<?xml version="1.0" encoding="UTF-8" standalone="no"?>
<!-- Created with Inkscape (http://www.inkscape.org/) -->

<svg
   xmlns:dc="http://purl.org/dc/elements/1.1/"
   xmlns:cc="http://creativecommons.org/ns#"
   xmlns:rdf="http://www.w3.org/1999/02/22-rdf-syntax-ns#"
   xmlns:svg="http://www.w3.org/2000/svg"
   xmlns="http://www.w3.org/2000/svg"
   xmlns:xlink="http://www.w3.org/1999/xlink"
   xmlns:sodipodi="http://sodipodi.sourceforge.net/DTD/sodipodi-0.dtd"
   xmlns:inkscape="http://www.inkscape.org/namespaces/inkscape"
   width="150.13495"
   height="181.1776"
   id="svg2"
   version="1.1"
   inkscape:version="0.48.1 r9760"
   sodipodi:docname="Synfig Studio UX.svg">
  <defs
     id="defs4">
    <filter
       inkscape:collect="always"
       id="filter3822"
       x="-0.19305907"
       width="1.3861181"
       y="-0.6113537"
       height="2.2227075"
       color-interpolation-filters="sRGB">
      <feGaussianBlur
         inkscape:collect="always"
         stdDeviation="17.484532"
         id="feGaussianBlur3824" />
    </filter>
    <linearGradient
       gradientUnits="userSpaceOnUse"
       y2="331.37125"
       x2="377.23792"
       y1="139.97688"
       x1="377.23792"
       id="linearGradient3860"
       xlink:href="#linearGradient3854"
       inkscape:collect="always" />
    <radialGradient
       r="335.63123"
       fy="525.66876"
       fx="377.23792"
       cy="525.66876"
       cx="377.23792"
       gradientTransform="matrix(2.0136983,5.331676e-6,-2.11093e-8,2.2175999,-382.40542,-635.95221)"
       gradientUnits="userSpaceOnUse"
       id="radialGradient3819"
       xlink:href="#linearGradient3821"
       inkscape:collect="always" />
    <radialGradient
       gradientUnits="userSpaceOnUse"
       gradientTransform="matrix(0.8517704,1.0562398e-7,0,0.9613861,-1122.4773,348.03689)"
       r="336.14325"
       fy="513.24353"
       fx="1760.7036"
       cy="513.24353"
       cx="1760.7036"
       id="radialGradient3208"
       xlink:href="#linearGradient2427"
       inkscape:collect="always" />
    <radialGradient
       gradientUnits="userSpaceOnUse"
       gradientTransform="matrix(4.8417716e-8,-1.7996756,0.9373413,-6.2464348e-8,-188.71787,1320.5)"
       r="329.17609"
       fy="603.78839"
       fx="377.23792"
       cy="603.78839"
       cx="377.23792"
       id="radialGradient3636"
       xlink:href="#linearGradient3630"
       inkscape:collect="always" />
    <linearGradient
       id="linearGradient3630">
      <stop
         style="stop-color:#469ff9;stop-opacity:1"
         offset="0"
         id="stop3638" />
      <stop
         id="stop3642"
         offset="0.67284548"
         style="stop-color:#c2cfdc;stop-opacity:0.49803922;" />
      <stop
         id="stop3634"
         offset="1"
         style="stop-color:#47a0fa;stop-opacity:0;" />
    </linearGradient>
    <linearGradient
       id="linearGradient2427">
      <stop
         id="stop2429"
         offset="0"
         style="stop-color:#a6c0ce;stop-opacity:1;" />
      <stop
         style="stop-color:#ffffff;stop-opacity:0;"
         offset="1"
         id="stop2433" />
    </linearGradient>
    <linearGradient
       id="linearGradient3821">
      <stop
         id="stop3823"
         offset="0"
         style="stop-color:#000000;stop-opacity:0;" />
      <stop
         style="stop-color:#000000;stop-opacity:0;"
         offset="0.19851486"
         id="stop3825" />
      <stop
         id="stop3827"
         offset="1"
         style="stop-color:#000000;stop-opacity:1;" />
    </linearGradient>
    <linearGradient
       id="linearGradient3854">
      <stop
         style="stop-color:#e4e6e8;stop-opacity:1;"
         offset="0"
         id="stop3856" />
      <stop
         id="stop3858"
         offset="1"
         style="stop-color:#4f7b8c;stop-opacity:0;" />
    </linearGradient>
  </defs>
  <sodipodi:namedview
     id="base"
     pagecolor="#ffffff"
     bordercolor="#666666"
     borderopacity="1.0"
     inkscape:pageopacity="0.0"
     inkscape:pageshadow="2"
     inkscape:zoom="3.5490039"
     inkscape:cx="75.067474"
     inkscape:cy="90.588799"
     inkscape:document-units="px"
     inkscape:current-layer="g4112"
     showgrid="false"
     fit-margin-top="0"
     fit-margin-left="0"
     fit-margin-right="0"
     fit-margin-bottom="0"
     inkscape:window-width="1440"
     inkscape:window-height="844"
     inkscape:window-x="0"
     inkscape:window-y="26"
     inkscape:window-maximized="1" />
  <metadata
     id="metadata7">
    <rdf:RDF>
      <cc:Work
         rdf:about="">
        <dc:format>image/svg+xml</dc:format>
        <dc:type
           rdf:resource="http://purl.org/dc/dcmitype/StillImage" />
        <dc:title />
      </cc:Work>
    </rdf:RDF>
  </metadata>
  <g
     inkscape:label="Layer 1"
     inkscape:groupmode="layer"
     id="layer1"
     transform="translate(-123.04725,-324.71875)">
    <rect
       style="opacity:0.49777778;fill:#2e3436;fill-opacity:1;stroke:#babdb6;stroke-width:2;stroke-miterlimit:4;stroke-opacity:1;stroke-dasharray:none;filter:url(#filter3822)"
       id="rect3048"
       width="217.35771"
       height="68.639282"
       x="165.87827"
       y="590.95367"
       ry="34.319641"
       transform="matrix(0.46670487,0,0,0.25259864,69.974917,323.25519)" />
    <g
       id="g3025"
       transform="matrix(0.30787533,0,0,0.3163098,88.564034,256.07063)"
       style="fill:#462c01;fill-opacity:1;stroke:#2e3436;stroke-width:1.55269706;stroke-opacity:1">
      <rect
         style="fill:#462c01;fill-opacity:1;stroke:#2e3436;stroke-width:1.55530179;stroke-miterlimit:4;stroke-opacity:1;stroke-dasharray:none"
         id="rect3021"
         width="344.79266"
         height="13.000721"
         x="-305.94992"
         y="670.69946"
         transform="matrix(0.78441427,-0.62023726,0.68228339,0.73108781,0,0)" />
      <rect
         transform="matrix(-0.78441427,-0.62023726,-0.68228339,0.73108781,0,0)"
         y="226.01341"
         x="-830.11145"
         height="13.000721"
         width="344.79266"
         id="rect3023"
         style="fill:#462c01;fill-opacity:1;stroke:#2e3436;stroke-width:1.55530179;stroke-miterlimit:4;stroke-opacity:1;stroke-dasharray:none" />
    </g>
    <path
       style="fill:#8f5902;stroke:none"
       d="m 158.00225,398.51448 -16.05813,17.7982 13.13848,0 86.95878,0 13.13849,0 -16.05814,-17.7982 -4.37949,0 -72.36049,0 -4.3795,0 z"
       id="rect2985"
       inkscape:connector-curvature="0" />
    <g
       id="g3031"
       transform="matrix(0.29456041,0,0,0.31496348,95.004405,250.02866)"
       style="fill:#653f01;fill-opacity:1;stroke:#2e3436;stroke-width:2.38618684;stroke-opacity:1">
      <rect
         transform="matrix(0.78441427,-0.62023726,0.68228339,0.73108781,0,0)"
         y="721.91077"
         x="-397.50323"
         height="15.901321"
         width="421.71964"
         id="rect3017"
         style="fill:#653f01;fill-opacity:1;stroke:#2e3436;stroke-width:2.39018989;stroke-miterlimit:4;stroke-opacity:1;stroke-dasharray:none" />
      <rect
         style="fill:#653f01;fill-opacity:1;stroke:#2e3436;stroke-width:2.39018989;stroke-miterlimit:4;stroke-opacity:1;stroke-dasharray:none"
         id="rect3019"
         width="421.71964"
         height="15.901321"
         x="-913.28143"
         y="284.33698"
         transform="matrix(-0.78441427,-0.62023726,-0.68228339,0.73108781,0,0)" />
    </g>
    <path
       style="fill:#8f5902;stroke:#2e3436;stroke-width:0.49046203;stroke-miterlimit:4;stroke-opacity:1"
       d="m 158.00713,398.5195 -15.75129,17.44394 -0.0786,0.0185 0,1.8467 112.77783,0.0498 0,-1.8467 -0.0775,-0.0684 -15.75129,-17.44393 -4.38994,0 -72.35384,0 z"
       id="path3872"
       inkscape:connector-curvature="0"
       sodipodi:nodetypes="ccccccccccc" />
    <rect
       style="fill:#e9b96e;fill-opacity:1;stroke:none"
       id="rect3828"
       width="112.27048"
       height="1.8477427"
       x="142.41959"
       y="415.96677" />
    <g
       id="g3837"
       transform="matrix(1,0.0984688,0.12698963,1.0125045,-54.244397,-23.210973)" />
    <g
       id="g4112">
      <rect
         y="361.55685"
         x="163.02589"
         height="39.616096"
         width="3.692755"
         id="rect3009"
         style="fill:#c17d11;fill-opacity:1;stroke:#2e3436;stroke-width:0.43516168000000000" />
      <path
         inkscape:connector-curvature="0"
         id="rect3866"
         d="m 152.14307,384.47205 c -0.27191,0.1021 -0.73353,0.0145 -1.07835,0.0437 -0.60799,0 -1.21598,0 -1.82396,0 0,9.85428 0,19.70856 0,29.56284 0.96743,0 1.93487,0 2.90231,0 0.54935,-0.7827 1.0987,-1.56541 1.64805,-2.34811 -0.0826,-9.08616 -0.16528,-18.17232 -0.24793,-27.25848 -0.46669,2e-5 -0.93346,-3e-5 -1.40012,2e-5 z"
         style="fill:#8f5902;fill-opacity:1;stroke:#2e3436;stroke-width:0.46670488" />
      <rect
         transform="scale(-1,1)"
         y="384.50851"
         x="-152.14592"
         height="29.567423"
         width="2.90799"
         id="rect3834"
         style="fill:#c17d11;fill-opacity:1;stroke:none" />
      <path
         sodipodi:nodetypes="ccccc"
         inkscape:connector-curvature="0"
         id="rect3029"
         d="m 152.14592,384.47504 1.40163,0 0.24063,27.25775 -1.64226,2.34318 z"
         style="fill:#825102;fill-opacity:1;stroke:none" />
      <path
         inkscape:connector-curvature="0"
         id="path3850"
         d="m 163.35858,373.0086 c -5.88743,4.67048 -11.75465,9.36642 -17.6551,14.02046 -0.51007,0.91982 -0.54335,3.07624 0.9859,2.6765 1.34709,-0.18783 2.99115,0.49637 4.03306,-0.67781 5.16982,-4.63485 10.33964,-9.2697 15.50946,-13.90455 0.34294,-1.05913 0.16812,-2.53142 -1.31416,-2.04798 -0.51989,-0.0177 -1.04013,-0.0304 -1.55916,-0.0666 z"
         style="fill:#8f5902;stroke:#2e3436;stroke-width:0.46670488px;stroke-linecap:butt;stroke-linejoin:miter;stroke-opacity:1" />
      <path
         sodipodi:nodetypes="ccccc"
         inkscape:connector-curvature="0"
         id="path3844"
         d="m 166.22861,375.12703 -16.34407,14.64838 0,-2.28556 16.51576,-14.05287 z"
         style="fill:#c17d11;stroke:none" />
      <path
         sodipodi:nodetypes="ccccc"
         inkscape:connector-curvature="0"
         id="path3846"
         d="m 166.25001,373.17944 -2.89209,-0.17709 -17.67476,14.05287 4.11554,-0.0644 z"
         style="fill:#e9b96e;stroke:none" />
      <path
         sodipodi:nodetypes="ccccc"
         inkscape:connector-curvature="0"
         id="path3848"
         d="m 145.51148,387.31816 -0.059,2.33919 4.28721,0.0913 -0.0268,-2.5539 z"
         style="fill:#e9b96e;stroke:none" />
      <rect
         style="fill:#7e4f02;fill-opacity:1;stroke:#2e3436;stroke-width:0.28314677"
         id="rect3155"
         width="1.5634086"
         height="39.616096"
         x="-423.87027"
         y="749.66107"
         transform="matrix(-0.39478079,0.91877534,0,1,0,0)" />
    </g>
    <rect
       y="361.92123"
       x="-234.33446"
       height="39.616096"
       width="3.692755"
       id="rect3877"
       style="fill:#c17d11;fill-opacity:1;stroke:#2e3436;stroke-width:0.43516168000000000"
       transform="scale(-1,1)" />
    <path
       inkscape:connector-curvature="0"
       id="path3879"
       d="m 245.21728,384.83644 c 0.27192,0.10211 0.73353,0.0145 1.07836,0.0438 0.60798,0 1.21597,0 1.82397,0 0,9.85427 0,19.70856 0,29.56283 -0.96745,0 -1.93488,0 -2.90233,0 -0.54935,-0.7827 -1.0987,-1.5654 -1.64805,-2.3481 0.0827,-9.08616 0.1653,-18.17232 0.24794,-27.25848 0.4667,10e-6 0.93346,-4e-5 1.40011,2e-5 z"
       style="fill:#8f5902;fill-opacity:1;stroke:#2e3436;stroke-width:0.46670488" />
    <rect
       y="384.87292"
       x="245.21443"
       height="29.567423"
       width="2.90799"
       id="rect3881"
       style="fill:#c17d11;fill-opacity:1;stroke:none" />
    <path
       sodipodi:nodetypes="ccccc"
       inkscape:connector-curvature="0"
       id="path3883"
       d="m 245.21443,384.83945 -1.40163,0 -0.24062,27.25773 1.64225,2.34318 z"
       style="fill:#825102;fill-opacity:1;stroke:none" />
    <path
       inkscape:connector-curvature="0"
       id="path3885"
       d="m 234.00178,373.37301 c 5.88742,4.67047 11.75465,9.3664 17.65511,14.02045 0.51006,0.91982 0.54334,3.07624 -0.9859,2.67651 -1.34709,-0.18784 -2.99117,0.49637 -4.03308,-0.67782 -5.16982,-4.63485 -10.33963,-9.2697 -15.50945,-13.90454 -0.34295,-1.05913 -0.16813,-2.53144 1.31416,-2.04799 0.51988,-0.0177 1.04013,-0.0304 1.55916,-0.0667 z"
       style="fill:#8f5902;stroke:#2e3436;stroke-width:0.46670488px;stroke-linecap:butt;stroke-linejoin:miter;stroke-opacity:1" />
    <path
       sodipodi:nodetypes="ccccc"
       inkscape:connector-curvature="0"
       id="path3887"
       d="m 231.13175,375.49144 16.34406,14.64836 0,-2.28555 -16.51574,-14.05288 z"
       style="fill:#c17d11;stroke:none" />
    <path
       sodipodi:nodetypes="ccccc"
       inkscape:connector-curvature="0"
       id="path3889"
       d="m 231.11035,373.54385 2.89209,-0.1771 17.67475,14.05288 -4.11553,-0.0645 z"
       style="fill:#e9b96e;stroke:none" />
    <path
       sodipodi:nodetypes="ccccc"
       inkscape:connector-curvature="0"
       id="path3891"
       d="m 251.84888,387.68257 0.059,2.33917 -4.28721,0.0913 0.0268,-2.55391 z"
       style="fill:#e9b96e;stroke:none" />
    <rect
       style="fill:#8f5902;fill-opacity:1;stroke:#2e3436;stroke-width:0.34074441"
       id="rect3157"
       width="2.3172121"
       height="38.709057"
       x="761.8479"
       y="-365.56989"
       transform="matrix(0.30182182,0.95336435,0,1,0,0)" />
    <path
       style="fill:#c17d11;fill-opacity:1;stroke:#2e3436;stroke-width:0.5"
       d="m 158.23643,335.60474 c 24.76076,-1.34317 51.53561,-1.67265 81.47439,0 l 0,29.67243 -81.47439,0 z"
       id="rect3011"
       inkscape:connector-curvature="0"
       sodipodi:nodetypes="ccccc" />
    <g
       transform="matrix(0.02911424,0,0,0.02911424,158.41639,333.93522)"
       id="g4103"
       inkscape:label="black"
       style="fill:#e9b96e;display:inline;enable-background:new">
      <path
         inkscape:connector-curvature="0"
         style="fill:#e9b96e;display:inline"
         d="m 1364.8692,1021.3541 c -35.3822,-34.69686 -57.4553,-54.26958 -81.7065,-72.45123 -45.8417,-34.36839 -95.5054,-56.92922 -148.2935,-67.36559 -20.4979,-4.05251 -51.7776,-7.91462 -73.087,-9.02406 -10.0091,-0.52111 -18.396,-1.14516 -18.6376,-1.38677 -1.2479,-1.24785 11.2659,-96.25151 17.7625,-134.85194 30.4477,-180.90906 83.5735,-321.46676 171.315,-453.25676 39.7478,-59.70237 95.1967,-127.10759 145.6037,-177 l 10.1031,-10.000002 20.2789,20.500002 c 104.378,105.51619 184.7854,227.0805 237.4617,359.00753 36.3791,91.11072 61.6653,191.95155 78.6094,313.49247 5.3268,38.20986 9.7533,75.95616 9.4041,80.19315 l -0.3138,3.80685 -7,0.23327 c -54.9811,1.8322 -91.0142,7.62163 -129.5148,20.80911 -57.0585,19.54402 -103.783,50.51021 -165.9852,110.00487 -21.5152,20.5786 -42.061,39.4657 -42.8634,39.403 -0.3501,-0.027 -10.7616,-9.9787 -23.1366,-22.1139 z m 49.3034,-25.72884 c 40.1906,-38.11039 60.3231,-54.83028 88.6704,-73.63977 62.0995,-41.2054 118.8702,-59.93305 203.2762,-67.05721 l 6.75,-0.56972 0,-3.94323 c 0,-12.26504 -7.5177,-72.26699 -13.5812,-108.39758 -18.1856,-108.36115 -38.6927,-183.95468 -73.2461,-270 -30.9791,-77.1444 -75.4469,-155.31597 -128.5598,-226 -36.296,-42.96521 -71.1634,-87.71614 -108.8879,-128.89563 -29.3371,30.61348 -59.2757,65.06938 -86.3315,97.89563 -66.4083,82.81873 -116.7172,167.74909 -153.2115,258.64835 -34.1183,84.98134 -53.9624,157.9413 -72.172,265.35165 -7.9307,46.77975 -16.1042,114.20569 -14.0018,115.50507 0.6196,0.38291 6.1587,0.97169 12.3092,1.30841 26.8373,1.46924 64.8503,8.01812 91.0346,15.68344 17.2642,5.054 29.1259,9.40957 45.9608,16.87653 7.5971,3.3696 13.9685,6.12655 14.1588,6.12655 0.1903,0 7.248,3.87894 15.6838,8.61986 41.2721,23.19495 72.6432,47.55233 121.3446,94.21549 12.65,12.1206 23.5866,22.066 24.3034,22.101 0.7169,0.035 12.6419,-10.688 26.5,-23.82884 z m -92.3365,-47.30966 c 2.4245,-6.90393 33.8184,-52.28215 50.1754,-71.9466 4.8718,-5.85682 8.8577,-11.33492 8.8577,-12.17356 0,-1.95004 -32.9105,-30.80077 -50.1622,-45.12282 -7.3272,-6.08293 -24.2685,-16.72987 -23.7873,-16.72987 2.649,0 52.6291,33.35244 69.4495,47.029 5.5,4.47202 10.675,8.12784 11.5,8.12404 0.825,-0.004 7.35,-4.75278 14.5,-10.55331 13.0229,-10.56498 61.51,-47.44448 63.6866,-47.42364 0.6371,0.006 -0.4166,1.24335 -2.3416,2.74945 -18.7375,14.66001 -68.845,59.42709 -68.845,61.95334 0,0.85305 3.0764,5.20615 6.8364,9.67356 16.0768,19.10149 44.9566,50.89168 52.3731,64.46256 4.0856,7.47594 2.5279,5.93908 -8.1085,-8 -15.299,-20.04956 -54.9365,-58.84 -58.235,-58.84 -3.0828,0 -40.9958,46.00323 -57.1663,67.01 -8.3779,10.88354 -9.5977,12.25072 -8.7328,9.78785 z M 1533.92,874.18336 c -20.126,-26.59637 -44.0665,-55.37958 -70.4208,-84.66561 -19.241,-21.38154 -73.1923,-75 -75.4655,-75 -2.3907,0 -39.5786,36.18195 -62.8052,61.10635 -29.9355,32.12358 -63.1132,69.43903 -85.0728,98.29715 -16.2062,21.29738 -16.8547,20.5382 -2.3164,-2.71212 31.7849,-50.83221 80.085,-113.48108 121.3978,-161.56645 5.8477,-6.80629 10.6409,-12.88129 10.6516,-13.5 0.024,-1.40082 -21.8163,-22.70834 -39.3522,-38.39168 -54.0867,-48.37265 -132.3183,-102.12701 -186.6224,-127.83017 -7.2725,-3.44222 -12.4364,-6.99169 -11.8208,-7.19688 3.1737,-1.05791 76.5915,34.30914 102.2759,48.81304 48.7824,27.54723 106.8301,67.66422 144.0604,99.56065 4.7636,4.08106 9.0114,7.42011 9.4396,7.42011 0.4283,0 4.6761,-3.33905 9.4396,-7.42011 37.3286,-31.98057 95.1502,-71.94181 144.0481,-99.55348 26.2094,-14.7999 89.9717,-44.48688 95.4372,-44.45092 0.9597,0.006 -23.9186,12.4372 -33.0775,17.31353 -51.918,27.64169 -105.8344,66.19151 -158.5146,113.33664 -17.5536,15.70927 -39.3766,37.001 -39.3523,38.39434 0.011,0.61601 5.8437,7.92265 12.9622,16.23699 23.9389,27.96045 49.2726,60.37552 71.2321,91.14301 24.4624,34.27447 59.7324,85.76969 58.319,87.17854 -0.1781,0.17748 -9.7959,-10.37184 -14.443,-16.51293 z m -381.1532,-17.70812 c -0.1105,-5.64316 19.2181,-77.40139 29.7395,-109.26704 4.1421,-12.54525 7.2709,-23.4878 6.9528,-24.31678 -1.2565,-3.27442 -36.8212,-18.52017 -62.5899,-26.83083 -18.8258,-6.07151 -40.2277,-10.4934 -39.6911,-11.03008 0.8236,-0.8236 37.1374,5.54541 53.1911,9.45879 17.3313,4.22482 33.2736,8.98605 46.181,13.79217 7.5637,2.81634 8.2915,2.92133 9.6443,1.39125 0.8048,-0.91023 6.4639,-11.66967 12.5758,-23.90987 12.7848,-25.60383 38.1669,-71.33896 43.2018,-78.5901 4.1788,-6.01812 -1.3235,4.82462 -11.2334,27.84 -7.4184,17.22874 -32.111,74.63479 -33.4136,79.82467 -0.4991,1.98878 0.4253,2.96935 6.7328,7.14153 19.218,12.7121 67.1719,50.05525 77.2681,60.76469 4.8312,5.12467 -3.6934,-1.01816 -16.874,-10.49161 -22.0468,-15.84589 -70.4558,-44.91449 -73.067,-42.74733 -3.2629,2.7079 -24.7884,55.81389 -35.5638,87.7401 -6.852,20.30142 -12.994,42.31548 -13.0544,39.23044 z m 470.3984,2.88751 c -0.3338,-0.825 -9.3814,-30.57 -13.1758,-41.845 -10.7666,-31.99248 -32.3421,-85.27942 -35.6359,-88.01305 -2.6225,-2.17648 -54.5014,30.10355 -76.0754,45.7183 -13.8406,10.01749 -14.3935,10.06721 -4.4904,0.4038 12.9425,-12.62913 52.1985,-43.50046 73.0723,-57.20498 l 2.4308,-1.59592 -3.8315,-10.40408 c -8.4438,-22.92815 -21.8087,-55.00498 -27.8505,-68.61739 -3.5137,-7.91649 -17.4202,-32.87089 -17.4202,-33.24664 0,-1.20962 18.1699,25.86444 24.2593,36.64742 3.2567,5.76693 12.4463,24.61478 20.4213,40.29785 16.9779,33.38758 13.2603,30.77576 33.6503,23.64117 19.759,-6.91384 63.6948,-17.91657 79.6897,-19.96184 8.9217,-1.14081 -9.2252,3.60469 -28.675,9.80955 -28.6508,9.14018 -61.9074,24.38811 -63.265,27.9258 -0.3236,0.84344 2.5767,11.11099 6.4452,22.81677 13.5038,40.86112 32.8179,110.46823 31.4851,113.99658 -0.2689,0.712 -0.6525,0.57541 -1.0343,-0.36834 z m -353.7328,-287.245 c 17.6087,-31.73538 60.9068,-94.83692 104.3081,-143.75345 2.2708,-2.5594 4.1287,-5.32396 4.1287,-6.14348 0,-2.43567 -25.1975,-25.9716 -42.9683,-40.13494 -18.9129,-15.07351 -52.109,-34.14974 -69.4617,-45.75497 -6.7375,-4.50596 -32.095,-19.7374 -32.095,-19.98766 0,-1.01339 35.6081,18.16917 49.0469,25.86876 23.4384,13.42866 69.9174,41.50229 92.6465,60.53498 6.4176,5.37392 12.1918,9.77076 12.8316,9.77076 0.6398,0 6.6183,-4.57086 13.2854,-10.15747 25.0937,-21.02672 66.5042,-53.03432 92.8896,-67.3929 9.2037,-5.00848 42.68,-18.50219 42.68,-17.74647 0,0.25835 -28.6425,14.9126 -35.93,19.79064 -15.75,10.54261 -51.1271,37.64461 -66.6651,50.36205 -13.9208,11.39384 -36.2599,32.87087 -36.2599,34.86069 0,0.81211 1.858,3.57061 4.1288,6.13001 36.4678,41.10207 77.1137,95.38259 92.3777,125.03772 7.7615,15.07919 16.2804,26.79587 15.4063,26.79587 -0.2976,0 -3.7999,-4.6125 -7.783,-10.25 -8.7071,-12.3235 -39.6812,-59.65057 -50.0422,-71.90207 -20.1594,-23.83755 -61.4538,-66.52807 -64.3525,-66.52807 -1.5402,0 -36.7408,35.78156 -51.1557,52 -15.6257,17.58078 -51.0942,68.90263 -61.8066,84.1 -4.3614,6.1875 -8.1605,11.25 -8.4424,11.25 -0.2819,0 1.1729,-3.0375 3.2328,-6.75 z"
         id="path4105"
         sodipodi:nodetypes="csssssscccsscccsssccscccsscccssssssssssccsssssssssssssssccssssssssssssssssssssssccssssssssssssssssccsssscccssssssssssccsssssssssssssssssssssssc" />
    </g>
  </g>
</svg>
