<?xml version="1.0" encoding="UTF-8" standalone="no"?>
<!-- Created with Inkscape (http://www.inkscape.org/) -->

<svg
   xmlns:dc="http://purl.org/dc/elements/1.1/"
   xmlns:cc="http://creativecommons.org/ns#"
   xmlns:rdf="http://www.w3.org/1999/02/22-rdf-syntax-ns#"
   xmlns:svg="http://www.w3.org/2000/svg"
   xmlns="http://www.w3.org/2000/svg"
   xmlns:sodipodi="http://sodipodi.sourceforge.net/DTD/sodipodi-0.dtd"
   xmlns:inkscape="http://www.inkscape.org/namespaces/inkscape"
   width="744.09448819"
   height="1052.3622047"
   id="svg7747"
   version="1.1"
   inkscape:version="0.48.2 r9819"
   sodipodi:docname="window-canvas-window-xsheet-widget.svg"
   inkscape:export-filename="/home/jcome/source/synfig-ui/plain/ux/window-canvas-window.png"
   inkscape:export-xdpi="90"
   inkscape:export-ydpi="90">
  <defs
     id="defs7749">
    <filter
       color-interpolation-filters="sRGB"
       inkscape:collect="always"
       id="filter4929-7-5-5"
       x="-0.042538654"
       width="1.0850773"
       y="-0.37466449"
       height="1.749329">
      <feGaussianBlur
         inkscape:collect="always"
         stdDeviation="2.3895801"
         id="feGaussianBlur4931-0-3-1" />
    </filter>
  </defs>
  <sodipodi:namedview
     id="base"
     pagecolor="#ffffff"
     bordercolor="#666666"
     borderopacity="1.0"
     inkscape:pageopacity="0.0"
     inkscape:pageshadow="2"
     inkscape:zoom="0.63920636"
     inkscape:cx="388.34617"
     inkscape:cy="620.9767"
     inkscape:document-units="px"
     inkscape:current-layer="g4902"
     showgrid="false"
     inkscape:window-width="1440"
     inkscape:window-height="820"
     inkscape:window-x="0"
     inkscape:window-y="0"
     inkscape:window-maximized="1"
     showguides="true"
     inkscape:guide-bbox="true">
    <sodipodi:guide
       orientation="1,0"
       position="47.22138,856.73075"
       id="guide4015" />
    <sodipodi:guide
       orientation="1,0"
       position="73.282962,392.06385"
       id="guide4453" />
    <sodipodi:guide
       orientation="1,0"
       position="478.95971,595.32668"
       id="guide5442" />
    <sodipodi:guide
       orientation="1,0"
       position="209.24988,-45.562853"
       id="guide5553" />
    <sodipodi:guide
       orientation="0,1"
       position="806.43885,765.50849"
       id="guide4938" />
  </sodipodi:namedview>
  <metadata
     id="metadata7752">
    <rdf:RDF>
      <cc:Work
         rdf:about="">
        <dc:format>image/svg+xml</dc:format>
        <dc:type
           rdf:resource="http://purl.org/dc/dcmitype/StillImage" />
        <dc:title></dc:title>
      </cc:Work>
    </rdf:RDF>
  </metadata>
  <g
     inkscape:label="Layer 1"
     inkscape:groupmode="layer"
     id="layer1"
     style="display:inline">
    <g
       style="enable-background:new"
       id="g9860"
       transform="translate(-238.94909,-596.01256)">
      <text
         xml:space="preserve"
         style="font-size:40px;font-style:normal;font-weight:normal;line-height:125%;letter-spacing:0px;word-spacing:0px;fill:#2e3436;fill-opacity:1;stroke:none;enable-background:new;font-family:Sans"
         x="454.06763"
         y="668.15991"
         id="text5756"
         sodipodi:linespacing="125%"><tspan
           sodipodi:role="line"
           id="tspan5758"
           x="454.06763"
           y="668.15991"
           style="font-size:36px;font-weight:bold;fill:#2e3436;-inkscape-font-specification:Sans Bold">Canvas window Xsheet</tspan></text>
    </g>
    <text
       xml:space="preserve"
       style="font-size:12px;font-style:normal;font-weight:normal;line-height:125%;letter-spacing:0px;word-spacing:0px;fill:#000000;fill-opacity:1;stroke:none;font-family:Sans"
       x="433.71671"
       y="205.94218"
       id="text4668"
       sodipodi:linespacing="125%"><tspan
         sodipodi:role="line"
         id="tspan4670"
         x="433.71671"
         y="205.94218" /></text>
    <g
       transform="matrix(4.1724144,0,0,4.1724144,-186.13212,-4497.2725)"
       id="g4715">
      <rect
         style="fill:#edd400;stroke:#2e3436;stroke-width:0.68969756;enable-background:new"
         id="rect4717"
         width="171.39647"
         height="143.9285"
         x="49.574448"
         y="1108.5673" />
      <rect
         y="1108.5679"
         x="49.575062"
         height="144.05098"
         width="171.39525"
         id="rect4719"
         style="fill:#d3d7cf;stroke:#2e3436;stroke-width:0.45999238;enable-background:new" />
      <path
         transform="matrix(0.46182911,-0.03994198,0,0.69274366,3.700269,198.47358)"
         d="m 335.95283,1512.5363 a 67.409187,6.5587316 0 1 1 -134.81838,0 67.409187,6.5587316 0 1 1 134.81838,0 z"
         sodipodi:ry="6.5587316"
         sodipodi:rx="67.409187"
         sodipodi:cy="1512.5363"
         sodipodi:cx="268.54364"
         id="path4721"
         style="fill:#babdb6;stroke:none;filter:url(#filter4929-7-5-5);enable-background:new"
         sodipodi:type="arc" />
      <g
         transform="matrix(1.6487462,-0.08663114,0.08663115,1.6487461,-1042.033,714.11656)"
         id="g4723"
         style="stroke:#2e3436;stroke-width:0.60870665;enable-background:new">
        <g
           transform="translate(50.582746,-23.466222)"
           id="g4725">
          <path
             sodipodi:nodetypes="cccccccccccc"
             inkscape:connector-curvature="0"
             id="path4727"
             d="m 639.02146,340.35871 c -7.41517,-2.18841 -16.57257,5.0259 -14.35439,12.93942 1.75715,4.58493 7.64518,4.46077 10.81572,7.47881 2.88685,3.24611 -1.18859,8.48773 -4.95709,8.0362 -2.26344,-0.35835 -4.74308,-1.59832 -2.98056,3.24971 3.03076,8.97246 10.38858,3.79438 13.48347,0.25804 3.9789,-0.0498 12.50646,10.25808 14.57221,0.93313 6.58717,-10.67511 -9.72165,-4.20685 -10.09331,-8.16733 -3.24184,-3.9636 1.41652,-9.16235 4.95097,-11.15927 5.03118,-2.37438 10.35987,-9.42671 4.50742,-13.93857 -5.74988,-1.51149 -15.6297,-1.1714 -15.94446,0.36986 z"
             style="fill:#fcaf3e;stroke:#2e3436;stroke-width:1px;stroke-linecap:butt;stroke-linejoin:miter;stroke-opacity:1" />
          <g
             transform="matrix(-1,0,0,1,1263.4779,1.8141289)"
             id="g4729">
            <path
               style="fill:#ef2929;stroke:#2e3436;stroke-width:1px;stroke-linecap:butt;stroke-linejoin:miter;stroke-opacity:1"
               d="m 620.15988,351.37902 c 5.59328,-4.10782 12.91502,-3.56994 19.4781,-3.79871 4.65601,0.46061 5.54318,6.82477 0.7149,8.11932 -5.18613,2.95328 -11.48164,1.29023 -16.59664,-0.92679 -1.46231,-0.79743 -2.76194,-1.93916 -3.59636,-3.39382 z"
               id="path4731"
               inkscape:connector-curvature="0" />
            <path
               style="fill:none;stroke:#2e3436;stroke-width:1px;stroke-linecap:butt;stroke-linejoin:miter;stroke-opacity:1"
               d="m 622.98522,350.87493 c 5.05813,1.97492 10.61867,1.66485 15.92055,1.22466"
               id="path4733"
               inkscape:connector-curvature="0" />
          </g>
          <path
             sodipodi:nodetypes="cc"
             inkscape:connector-curvature="0"
             id="path4735"
             d="m 622.85412,342.12855 c 2.6339,1.11147 2.56753,5.48069 8.32768,2.44932"
             style="fill:none;stroke:#2e3436;stroke-width:1px;stroke-linecap:butt;stroke-linejoin:miter;stroke-opacity:1" />
          <path
             style="fill:none;stroke:#2e3436;stroke-width:1px;stroke-linecap:butt;stroke-linejoin:miter;stroke-opacity:1"
             d="m 634.96411,345.11892 c 2.85873,0.0212 4.46613,4.08459 8.63184,-0.91695"
             id="path4737"
             inkscape:connector-curvature="0"
             sodipodi:nodetypes="cc" />
        </g>
      </g>
      <g
         transform="matrix(0.62629246,0.07201728,-0.07201727,0.62629246,-409.91473,663.3109)"
         id="g4740"
         style="stroke:#2e3436;stroke-width:0.60870665;enable-background:new">
        <path
           transform="matrix(3.9046626,0,0,3.9046626,-1528.9299,-618.33913)"
           sodipodi:nodetypes="csccc"
           inkscape:transform-center-y="3.1891281"
           inkscape:transform-center-x="-15.738116"
           inkscape:connector-curvature="0"
           id="path4742"
           d="m 656.95077,338.07808 c -6.38124,-9.38619 -17.9468,-6.57533 -24.54367,-6.96517 -7.87634,-0.46544 -15.32345,-2.15186 -13.51546,7.10827 -7.6906,10.05954 22.49955,1.22196 28.27624,-1.02143 2.30917,-0.69942 9.86973,2.15395 9.78289,0.87833 z"
           style="fill:#4e9a06;stroke:#2e3436;stroke-width:1.12569153;stroke-linecap:butt;stroke-linejoin:miter;stroke-opacity:1;enable-background:new" />
        <path
           inkscape:connector-curvature="0"
           id="path4744"
           d="m 889.7992,702.23529 c 6.69416,-5.90165 14.813,-11.86809 24.24978,-10.92486 12.87388,-0.0331 25.78034,0.1757 38.63393,-0.10981 8.52297,-1.31965 17.17218,-1.58676 25.74074,-2.48544 11.71915,-0.68835 23.73445,-0.45888 34.96465,3.29327 5.8182,1.35951 11.8688,2.945 16.428,7.01378 2.7242,1.5019 5.4815,3.14073 8.6074,3.61692"
           style="fill:none;stroke:#2e3436;stroke-width:1.5;stroke-linecap:butt;stroke-linejoin:miter;stroke-opacity:1" />
        <path
           inkscape:connector-curvature="0"
           id="path4746"
           d="m 936.64821,692.13852 c 4.15202,-3.7693 9.3727,-5.9981 14.3603,-8.40424 3.5189,-1.15243 6.55265,-3.4126 9.49723,-5.54087 l -0.026,-0.17267 -0.003,-0.0177"
           style="fill:none;stroke:#2e3436;stroke-width:1.5;stroke-linecap:butt;stroke-linejoin:miter;stroke-opacity:1" />
        <path
           inkscape:connector-curvature="0"
           id="path4748"
           d="m 956.43788,690.11917 c 1.72707,1.30987 3.82369,2.01594 5.57714,3.29493 1.99236,1.13574 4.20458,1.74764 6.30088,2.5935 1.73301,1.36656 3.98629,1.0471 5.97235,1.71961 2.23163,0.81057 4.62355,0.14945 6.89255,0.80954 l 0.29705,0.063"
           style="fill:none;stroke:#2e3436;stroke-width:1.5;stroke-linecap:butt;stroke-linejoin:miter;stroke-opacity:1" />
        <path
           inkscape:connector-curvature="0"
           id="path4750"
           d="m 989.15145,689.31143 c 1.89521,-1.78586 3.63532,-3.95708 6.33684,-4.48104 1.90309,-1.2999 4.07973,-1.84857 6.32571,-2.18627 2.7486,-0.72115 5.5266,-0.62785 8.3386,-0.60226"
           style="fill:none;stroke:#2e3436;stroke-width:1.5;stroke-linecap:butt;stroke-linejoin:miter;stroke-opacity:1" />
        <path
           inkscape:connector-curvature="0"
           id="path4752"
           d="m 912.81984,692.54239 c 3.2566,1.57373 6.68675,2.65348 10.1045,3.80344 4.259,1.69833 7.90991,4.7792 12.41502,5.89561 3.30371,1.88294 6.85771,2.34047 10.59788,2.01308"
           style="fill:none;stroke:#2e3436;stroke-width:1.5;stroke-linecap:butt;stroke-linejoin:miter;stroke-opacity:1" />
        <path
           inkscape:connector-curvature="0"
           id="path4754"
           d="m 900.29984,694.56175 c 0.62234,-5.6602 4.26839,-10.4486 8.01034,-14.50141 3.58742,-3.36595 8.77135,-2.76776 12.99094,-4.48052"
           style="fill:none;stroke:#2e3436;stroke-width:1.5;stroke-linecap:butt;stroke-linejoin:miter;stroke-opacity:1" />
        <path
           inkscape:connector-curvature="0"
           id="path4756"
           d="m 893.43404,699.81207 c 7.11325,3.30599 13.79675,8.08434 21.7887,9.02539 3.38651,-0.0865 6.33168,2.28511 9.71451,1.809 0.76735,-0.16911 1.46803,-0.58482 2.0181,-1.14149"
           style="fill:none;stroke:#2e3436;stroke-width:1.5;stroke-linecap:butt;stroke-linejoin:miter;stroke-opacity:1" />
        <path
           inkscape:connector-curvature="0"
           id="path4758"
           d="m 886.16437,700.21594 c -2.58538,3.50853 -7.22657,2.96752 -10.96131,2.41768 -3.05367,0.30155 -6.60008,-0.96207 -8.95668,1.52721 -2.12531,1.07699 -4.7983,5.16536 -1.43911,6.36906 3.15571,0.90369 6.59456,0.0146 8.79203,-2.48982 2.28316,-2.36259 5.58554,-2.03612 8.53621,-2.46872 1.79833,-1.10865 7.3126,-1.82748 5.29749,-4.67521 -0.9169,-0.70357 -2.28578,-0.97618 -3.28772,-0.27672"
           style="fill:#2e3436;stroke:#2e3436;stroke-width:1px;stroke-linecap:butt;stroke-linejoin:miter;stroke-opacity:1" />
      </g>
      <g
         transform="matrix(-0.19547156,0.41842202,-0.41842201,-0.19547158,527.86204,825.45342)"
         id="g4760"
         style="fill:#ad7fa8;stroke:#2e3436;stroke-width:0.60870665;enable-background:new">
        <g
           transform="matrix(2.1078948,0,0,2.1078948,-2238.2555,-277.39812)"
           style="fill:#ad7fa8;enable-background:new"
           id="g4763">
          <g
             style="fill:#ad7fa8"
             transform="matrix(1.8523992,0,0,1.8523992,806.64955,144.25409)"
             id="g4765">
            <path
               inkscape:transform-center-y="33.257455"
               inkscape:transform-center-x="18.440352"
               inkscape:connector-curvature="0"
               id="path4767"
               d="m 394.47919,159.70871 c 1.28832,-0.74523 2.82818,-0.32313 4.172,0.0195 1.15705,0.29221 2.43061,0.73002 3.59522,0.24322 0.79936,-0.32589 1.218,-1.18192 1.13181,-2.01755 -0.0666,-1.53479 -0.84673,-3.09049 -2.15133,-3.93603 -0.98746,-0.67318 -2.51418,-0.46813 -3.15713,0.58267 -1.26433,1.65493 -1.81778,3.86538 -3.59058,5.10817 z"
               style="fill:#ad7fa8;stroke:#2e3436;stroke-width:0.53514367px;stroke-linecap:butt;stroke-linejoin:miter;stroke-opacity:1" />
          </g>
        </g>
      </g>
      <path
         inkscape:connector-curvature="0"
         id="path4769"
         d="m 146.67976,1153.8151 c -0.0521,2.0282 -1.57488,3.3382 -2.87517,4.5032 -1.11645,1.0055 -2.47453,2.0137 -2.72954,3.6885 -0.18407,1.1425 0.48175,2.3225 1.47027,2.9383 1.75295,1.2303 4.01709,1.7054 5.85001,1.0097 1.42426,-0.4985 2.24035,-2.3265 1.51116,-3.9148 -0.97627,-2.7742 -3.0567,-5.2496 -3.22673,-8.2249 z"
         style="fill:#729fcf;stroke:#2e3436;stroke-width:0.71509135px;stroke-linecap:butt;stroke-linejoin:miter;stroke-opacity:1;enable-background:new"
         inkscape:transform-center-x="-2.4807664"
         inkscape:transform-center-y="-2.0281763" />
      <path
         inkscape:connector-curvature="0"
         id="path4771"
         d="m 151.45881,1120.2416 c 0.30541,2.033 -0.9832,3.6084 -2.07539,5.0001 -0.93686,1.2 -2.11433,2.4454 -2.07366,4.1615 0.0189,1.1725 0.88998,2.2326 1.98487,2.6728 1.96595,0.9187 4.30893,0.9939 6.01524,-0.023 1.3333,-0.7483 1.8255,-2.7162 0.81801,-4.1725 -1.46296,-2.5961 -3.97513,-4.6996 -4.66907,-7.6385 z"
         style="fill:#ad7fa8;stroke:#2e3436;stroke-width:0.72458136px;stroke-linecap:butt;stroke-linejoin:miter;stroke-opacity:1;enable-background:new"
         inkscape:transform-center-x="-2.4807405"
         inkscape:transform-center-y="-2.0281713" />
      <path
         inkscape:connector-curvature="0"
         id="path4773"
         d="m 128.13709,1124.2302 c 0.30541,2.0329 -0.98323,3.6084 -2.07538,5.0001 -0.93687,1.2 -2.11434,2.4453 -2.07366,4.1614 0.0189,1.1726 0.88998,2.2326 1.98486,2.6729 1.96595,0.9187 4.3089,0.9938 6.01524,-0.023 1.33333,-0.7484 1.82553,-2.7162 0.81801,-4.1725 -1.46299,-2.5961 -3.97511,-4.6996 -4.66907,-7.6385 z"
         style="fill:#c4a000;stroke:#2e3436;stroke-width:0.72458136px;stroke-linecap:butt;stroke-linejoin:miter;stroke-opacity:1;enable-background:new"
         inkscape:transform-center-x="-2.4807448"
         inkscape:transform-center-y="-2.0281738" />
      <path
         inkscape:connector-curvature="0"
         id="path4775"
         d="m 78.492367,1130.2293 c 0.305406,2.0329 -0.983202,3.6084 -2.075386,5 -0.936836,1.2001 -2.114331,2.4454 -2.073659,4.1615 0.01889,1.1725 0.889983,2.2326 1.984893,2.6729 1.96592,0.9187 4.3089,0.9938 6.015214,-0.023 1.333329,-0.7484 1.825524,-2.7163 0.818032,-4.1726 -1.462983,-2.5961 -3.97513,-4.6996 -4.669067,-7.6384 z"
         style="fill:#73d216;stroke:#2e3436;stroke-width:0.72458136px;stroke-linecap:butt;stroke-linejoin:miter;stroke-opacity:1;enable-background:new"
         inkscape:transform-center-x="-2.4807394"
         inkscape:transform-center-y="-2.0281738" />
      <path
         inkscape:connector-curvature="0"
         id="path4777"
         d="m 200.26577,1146.5593 c 0.30506,2.0305 -0.98207,3.6042 -2.07295,4.9942 -0.93573,1.1986 -2.11183,2.4425 -2.07121,4.1566 0.0189,1.1711 0.88893,2.23 1.98255,2.6697 1.96362,0.9176 4.30382,0.9927 6.00817,-0.023 1.33173,-0.7475 1.82336,-2.713 0.81703,-4.1676 -1.46125,-2.5931 -3.97043,-4.6941 -4.66359,-7.6295 z"
         style="fill:#8ae234;stroke:#2e3436;stroke-width:0.72373098px;stroke-linecap:butt;stroke-linejoin:miter;stroke-opacity:1;enable-background:new"
         inkscape:transform-center-x="-2.4807447"
         inkscape:transform-center-y="-2.0281826" />
      <path
         inkscape:connector-curvature="0"
         id="path4779"
         d="m 182.71524,1174.7008 c 0.80068,1.9083 -0.0672,3.7643 -0.78899,5.3924 -0.61748,1.4027 -1.45861,2.9091 -0.99459,4.5737 0.30705,1.1398 1.42047,1.9586 2.59778,2.1175 2.14558,0.4104 4.45054,-0.096 5.8641,-1.5101 1.1161,-1.06 1.10986,-3.102 -0.23345,-4.274 -2.06953,-2.1717 -5.04105,-3.6032 -6.44488,-6.2995 z"
         style="fill:#f57900;stroke:#2e3436;stroke-width:0.72941971px;stroke-linecap:butt;stroke-linejoin:miter;stroke-opacity:1;enable-background:new"
         inkscape:transform-center-x="-2.4862753"
         inkscape:transform-center-y="-3.4921232" />
      <path
         inkscape:connector-curvature="0"
         id="path4781"
         d="m 105.70862,1140.1112 c 0.3025,2.0135 -0.97383,3.5739 -2.05557,4.9523 -0.92791,1.1886 -2.09415,2.422 -2.05385,4.1218 0.0162,1.1613 0.88148,2.2112 1.96592,2.6473 1.94716,0.91 4.26777,0.9844 5.95781,-0.023 1.32059,-0.7412 1.80809,-2.6903 0.8102,-4.1327 -1.449,-2.5713 -3.93718,-4.6547 -4.62451,-7.5655 z"
         style="fill:#729fcf;stroke:#2e3436;stroke-width:0.71766508px;stroke-linecap:butt;stroke-linejoin:miter;stroke-opacity:1;enable-background:new"
         inkscape:transform-center-x="-2.4807479"
         inkscape:transform-center-y="-2.0281879" />
      <path
         inkscape:connector-curvature="0"
         id="path4783"
         d="m 208.03588,1125.6912 c 0.30371,2.0217 -0.97778,3.5885 -2.06391,4.9724 -0.93166,1.1934 -2.10262,2.4318 -2.06217,4.1385 0.0162,1.166 0.88505,2.2202 1.97389,2.658 1.95504,0.9137 4.28506,0.9884 5.98193,-0.023 1.32594,-0.7442 1.81541,-2.7012 0.8135,-4.1494 -1.45489,-2.5818 -3.95313,-4.6736 -4.64324,-7.5962 z"
         style="fill:#729fcf;stroke:#2e3436;stroke-width:0.72057176px;stroke-linecap:butt;stroke-linejoin:miter;stroke-opacity:1;enable-background:new"
         inkscape:transform-center-x="-2.480743"
         inkscape:transform-center-y="-2.0281896" />
      <path
         inkscape:connector-curvature="0"
         id="path4785"
         d="m 177.98332,1133.2448 c 0.30516,2.0314 -0.9825,3.6058 -2.07391,4.9964 -0.93613,1.1992 -2.11276,2.4436 -2.07212,4.1584 0.0189,1.1717 0.88934,2.231 1.98341,2.6709 1.96452,0.9181 4.30577,0.9931 6.01084,-0.023 1.33236,-0.7478 1.82421,-2.7142 0.81744,-4.1695 -1.4619,-2.5942 -3.97224,-4.6961 -4.66566,-7.6328 z"
         style="fill:#e9b96e;stroke:#2e3436;stroke-width:0.72405249px;stroke-linecap:butt;stroke-linejoin:miter;stroke-opacity:1;enable-background:new"
         inkscape:transform-center-x="-2.4807471"
         inkscape:transform-center-y="-2.0281644" />
      <path
         inkscape:connector-curvature="0"
         id="path4787"
         d="m 148.54445,1223.6367 c 1.51869,0.7422 3.13113,1.2776 4.62629,2.07"
         style="fill:none;stroke:#000000;stroke-width:0.46182913px;stroke-linecap:butt;stroke-linejoin:miter;stroke-opacity:1;enable-background:new" />
      <path
         inkscape:connector-curvature="0"
         id="path4789"
         d="m 146.35298,1227.5327 c 1.97083,0.8535 3.92744,1.7504 5.96564,2.4353"
         style="fill:none;stroke:#000000;stroke-width:0.46182913px;stroke-linecap:butt;stroke-linejoin:miter;stroke-opacity:1;enable-background:new" />
      <path
         inkscape:connector-curvature="0"
         id="path4791"
         d="m 144.28326,1230.9417 c 1.88131,1.0636 3.84618,1.9713 5.72217,3.0447"
         style="fill:none;stroke:#000000;stroke-width:0.46182913px;stroke-linecap:butt;stroke-linejoin:miter;stroke-opacity:1;enable-background:new" />
      <path
         inkscape:connector-curvature="0"
         id="path4793"
         d="m 105.81075,1228.6285 c 2.34676,-0.5471 4.8571,-0.7457 6.93969,-2.0698"
         style="fill:none;stroke:#000000;stroke-width:0.46182913px;stroke-linecap:butt;stroke-linejoin:miter;stroke-opacity:1;enable-background:new" />
      <path
         inkscape:connector-curvature="0"
         id="path4795"
         d="m 107.88047,1232.7679 c 2.54048,-1.0337 5.89897,-0.9789 7.42662,-3.6542"
         style="fill:none;stroke:#000000;stroke-width:0.46182913px;stroke-linecap:butt;stroke-linejoin:miter;stroke-opacity:1;enable-background:new" />
      <path
         inkscape:connector-curvature="0"
         id="path4797"
         d="m 110.4372,1235.5681 c 1.30294,-0.3838 2.42155,-1.1719 3.56495,-1.8749 0.82708,-0.6318 1.7434,-1.1531 2.51283,-1.8526 l 0.13116,-0.1684"
         style="fill:none;stroke:#000000;stroke-width:0.46182913px;stroke-linecap:butt;stroke-linejoin:miter;stroke-opacity:1;enable-background:new" />
      <rect
         style="fill:#888a85;stroke:none;enable-background:new"
         id="rect4799"
         width="2.8538425"
         height="138.54372"
         x="217.73721"
         y="1113.3396" />
      <rect
         y="1139.3114"
         x="218.05917"
         height="83.288513"
         width="2.2098598"
         id="rect4801"
         style="fill:#3465a4;stroke:none;enable-background:new"
         ry="2.0515795"
         rx="1.1049299" />
      <rect
         y="-220.53354"
         x="1249.0869"
         height="170.25102"
         width="2.8538425"
         id="rect4803"
         style="fill:#888a85;stroke:none;enable-background:new"
         transform="matrix(0,1,-1,0,0,0)" />
      <rect
         rx="1.1049299"
         ry="2.0515795"
         style="fill:#3465a4;stroke:none;enable-background:new"
         id="rect4805"
         width="2.2098598"
         height="83.288513"
         x="1249.4088"
         y="-191.45074"
         transform="matrix(0,1,-1,0,0,0)" />
      <g
         id="g4807"
         style="fill:#babdb6;stroke:#2e3436;stroke-width:0.60870665;enable-background:new"
         transform="matrix(2.6988822,0,0,1,-419.2883,454.77991)">
        <rect
           y="653.98834"
           x="175.40147"
           height="4.6961937"
           width="61.726067"
           id="rect4809"
           style="fill:#babdb6;stroke:none" />
        <path
           inkscape:connector-curvature="0"
           id="path4811"
           d="m 236.02508,654.60807 0,3.84846"
           style="fill:#babdb6;stroke:#000000;stroke-width:0.15004672;stroke-linecap:butt;stroke-linejoin:miter;stroke-opacity:1" />
        <path
           style="fill:#babdb6;stroke:#000000;stroke-width:0.15004672;stroke-linecap:butt;stroke-linejoin:miter;stroke-opacity:1"
           d="m 179.87936,654.60807 0,3.84846"
           id="path4813"
           inkscape:connector-curvature="0" />
        <path
           inkscape:connector-curvature="0"
           id="path4815"
           d="m 183.18204,654.60807 0,3.84846"
           style="fill:#babdb6;stroke:#000000;stroke-width:0.15004672;stroke-linecap:butt;stroke-linejoin:miter;stroke-opacity:1" />
        <path
           style="fill:#babdb6;stroke:#000000;stroke-width:0.15004672;stroke-linecap:butt;stroke-linejoin:miter;stroke-opacity:1"
           d="m 186.48474,654.60807 0,3.84846"
           id="path4817"
           inkscape:connector-curvature="0" />
        <path
           inkscape:connector-curvature="0"
           id="path4819"
           d="m 189.78743,654.60807 0,3.84846"
           style="fill:#babdb6;stroke:#000000;stroke-width:0.15004672;stroke-linecap:butt;stroke-linejoin:miter;stroke-opacity:1" />
        <path
           style="fill:#babdb6;stroke:#000000;stroke-width:0.15004672;stroke-linecap:butt;stroke-linejoin:miter;stroke-opacity:1"
           d="m 193.09013,654.60807 0,3.84846"
           id="path4821"
           inkscape:connector-curvature="0" />
        <path
           inkscape:connector-curvature="0"
           id="path4823"
           d="m 196.39279,654.60807 0,3.84846"
           style="fill:#babdb6;stroke:#000000;stroke-width:0.15004672;stroke-linecap:butt;stroke-linejoin:miter;stroke-opacity:1" />
        <path
           style="fill:#babdb6;stroke:#000000;stroke-width:0.15004672;stroke-linecap:butt;stroke-linejoin:miter;stroke-opacity:1"
           d="m 199.69549,654.60807 0,3.84846"
           id="path4825"
           inkscape:connector-curvature="0" />
        <path
           inkscape:connector-curvature="0"
           id="path4827"
           d="m 202.99818,654.60807 0,3.84846"
           style="fill:#babdb6;stroke:#000000;stroke-width:0.15004672;stroke-linecap:butt;stroke-linejoin:miter;stroke-opacity:1" />
        <path
           style="fill:#babdb6;stroke:#000000;stroke-width:0.15004672;stroke-linecap:butt;stroke-linejoin:miter;stroke-opacity:1"
           d="m 206.30087,654.60807 0,3.84846"
           id="path4829"
           inkscape:connector-curvature="0" />
        <path
           inkscape:connector-curvature="0"
           id="path4831"
           d="m 209.60357,654.60807 0,3.84846"
           style="fill:#babdb6;stroke:#000000;stroke-width:0.15004672;stroke-linecap:butt;stroke-linejoin:miter;stroke-opacity:1" />
        <path
           style="fill:#babdb6;stroke:#000000;stroke-width:0.15004672;stroke-linecap:butt;stroke-linejoin:miter;stroke-opacity:1"
           d="m 212.90626,654.60807 0,3.84846"
           id="path4833"
           inkscape:connector-curvature="0" />
        <path
           inkscape:connector-curvature="0"
           id="path4835"
           d="m 216.20894,654.60807 0,3.84846"
           style="fill:#babdb6;stroke:#000000;stroke-width:0.15004672;stroke-linecap:butt;stroke-linejoin:miter;stroke-opacity:1" />
        <path
           style="fill:#babdb6;stroke:#000000;stroke-width:0.15004672;stroke-linecap:butt;stroke-linejoin:miter;stroke-opacity:1"
           d="m 219.51163,654.60807 0,3.84846"
           id="path4837"
           inkscape:connector-curvature="0" />
        <path
           inkscape:connector-curvature="0"
           id="path4839"
           d="m 222.81432,654.60807 0,3.84846"
           style="fill:#babdb6;stroke:#000000;stroke-width:0.15004672;stroke-linecap:butt;stroke-linejoin:miter;stroke-opacity:1" />
        <path
           style="fill:#babdb6;stroke:#000000;stroke-width:0.15004672;stroke-linecap:butt;stroke-linejoin:miter;stroke-opacity:1"
           d="m 226.11702,654.60807 0,3.84846"
           id="path4841"
           inkscape:connector-curvature="0" />
        <path
           inkscape:connector-curvature="0"
           id="path4843"
           d="m 229.4197,654.60807 0,3.84846"
           style="fill:#babdb6;stroke:#000000;stroke-width:0.15004672;stroke-linecap:butt;stroke-linejoin:miter;stroke-opacity:1" />
        <path
           style="fill:#babdb6;stroke:#000000;stroke-width:0.15004672;stroke-linecap:butt;stroke-linejoin:miter;stroke-opacity:1"
           d="m 232.7224,654.60807 0,3.84846"
           id="path4845"
           inkscape:connector-curvature="0" />
        <path
           inkscape:connector-curvature="0"
           id="path4847"
           d="m 176.57667,654.60807 0,3.84846"
           style="fill:#babdb6;stroke:#000000;stroke-width:0.15004672;stroke-linecap:butt;stroke-linejoin:miter;stroke-opacity:1" />
      </g>
      <g
         id="g4849"
         transform="matrix(0,2.6992468,-0.9999839,0,708.423,639.99438)"
         style="fill:#babdb6;stroke:#2e3436;stroke-width:0.60870665;enable-background:new">
        <rect
           style="fill:#babdb6;stroke:none"
           id="rect4851"
           width="51.772331"
           height="4.6961937"
           x="173.66815"
           y="653.98834" />
        <path
           inkscape:connector-curvature="0"
           id="path4853"
           d="m 179.87936,654.60807 0,3.84846"
           style="fill:#babdb6;stroke:#000000;stroke-width:0.15004672;stroke-linecap:butt;stroke-linejoin:miter;stroke-opacity:1" />
        <path
           style="fill:#babdb6;stroke:#000000;stroke-width:0.15004672;stroke-linecap:butt;stroke-linejoin:miter;stroke-opacity:1"
           d="m 183.18204,654.60807 0,3.84846"
           id="path4855"
           inkscape:connector-curvature="0" />
        <path
           inkscape:connector-curvature="0"
           id="path4857"
           d="m 186.48474,654.60807 0,3.84846"
           style="fill:#babdb6;stroke:#000000;stroke-width:0.15004672;stroke-linecap:butt;stroke-linejoin:miter;stroke-opacity:1" />
        <path
           style="fill:#babdb6;stroke:#000000;stroke-width:0.15004672;stroke-linecap:butt;stroke-linejoin:miter;stroke-opacity:1"
           d="m 189.78743,654.60807 0,3.84846"
           id="path4859"
           inkscape:connector-curvature="0" />
        <path
           inkscape:connector-curvature="0"
           id="path4861"
           d="m 193.09013,654.60807 0,3.84846"
           style="fill:#babdb6;stroke:#000000;stroke-width:0.15004672;stroke-linecap:butt;stroke-linejoin:miter;stroke-opacity:1" />
        <path
           style="fill:#babdb6;stroke:#000000;stroke-width:0.15004672;stroke-linecap:butt;stroke-linejoin:miter;stroke-opacity:1"
           d="m 196.39279,654.60807 0,3.84846"
           id="path4863"
           inkscape:connector-curvature="0" />
        <path
           inkscape:connector-curvature="0"
           id="path4865"
           d="m 199.69549,654.60807 0,3.84846"
           style="fill:#babdb6;stroke:#000000;stroke-width:0.15004672;stroke-linecap:butt;stroke-linejoin:miter;stroke-opacity:1" />
        <path
           style="fill:#babdb6;stroke:#000000;stroke-width:0.15004672;stroke-linecap:butt;stroke-linejoin:miter;stroke-opacity:1"
           d="m 202.99818,654.60807 0,3.84846"
           id="path4867"
           inkscape:connector-curvature="0" />
        <path
           inkscape:connector-curvature="0"
           id="path4869"
           d="m 206.30087,654.60807 0,3.84846"
           style="fill:#babdb6;stroke:#000000;stroke-width:0.15004672;stroke-linecap:butt;stroke-linejoin:miter;stroke-opacity:1" />
        <path
           style="fill:#babdb6;stroke:#000000;stroke-width:0.15004672;stroke-linecap:butt;stroke-linejoin:miter;stroke-opacity:1"
           d="m 209.60357,654.60807 0,3.84846"
           id="path4871"
           inkscape:connector-curvature="0" />
        <path
           inkscape:connector-curvature="0"
           id="path4873"
           d="m 212.90626,654.60807 0,3.84846"
           style="fill:#babdb6;stroke:#000000;stroke-width:0.15004672;stroke-linecap:butt;stroke-linejoin:miter;stroke-opacity:1" />
        <path
           style="fill:#babdb6;stroke:#000000;stroke-width:0.15004672;stroke-linecap:butt;stroke-linejoin:miter;stroke-opacity:1"
           d="m 216.20894,654.60807 0,3.84846"
           id="path4875"
           inkscape:connector-curvature="0" />
        <path
           inkscape:connector-curvature="0"
           id="path4877"
           d="m 219.51163,654.60807 0,3.84846"
           style="fill:#babdb6;stroke:#000000;stroke-width:0.15004672;stroke-linecap:butt;stroke-linejoin:miter;stroke-opacity:1" />
        <path
           style="fill:#babdb6;stroke:#000000;stroke-width:0.15004672;stroke-linecap:butt;stroke-linejoin:miter;stroke-opacity:1"
           d="m 222.81432,654.60807 0,3.84846"
           id="path4879"
           inkscape:connector-curvature="0" />
        <path
           style="fill:#babdb6;stroke:#000000;stroke-width:0.15004672;stroke-linecap:butt;stroke-linejoin:miter;stroke-opacity:1"
           d="m 176.57667,654.60807 0,3.84846"
           id="path4881"
           inkscape:connector-curvature="0" />
      </g>
      <g
         style="fill:#babdb6;stroke:#2e3436;stroke-width:0.60870665;enable-background:new"
         transform="matrix(0,2.6947323,-1.4818512,0,1186.8588,640.63225)"
         id="g4902">
        <rect
           y="653.98834"
           x="175.47412"
           height="4.6961937"
           width="50.322594"
           id="rect4904"
           style="fill:#ff9955;stroke:none" />
        <path
           style="fill:#babdb6;stroke:#552200;stroke-width:0.15004671999999999;stroke-linecap:butt;stroke-linejoin:miter;stroke-opacity:1"
           d="m 179.87936,654.60807 0,3.84846"
           id="path4906"
           inkscape:connector-curvature="0" />
        <path
           inkscape:connector-curvature="0"
           id="path4908"
           d="m 183.18204,654.60807 0,3.84846"
           style="fill:#babdb6;stroke:#552200;stroke-width:0.15004671999999999;stroke-linecap:butt;stroke-linejoin:miter;stroke-opacity:1" />
        <path
           style="fill:#babdb6;stroke:#552200;stroke-width:0.15004671999999999;stroke-linecap:butt;stroke-linejoin:miter;stroke-opacity:1"
           d="m 186.48474,654.60807 0,3.84846"
           id="path4910"
           inkscape:connector-curvature="0" />
        <path
           inkscape:connector-curvature="0"
           id="path4912"
           d="m 189.78743,654.60807 0,3.84846"
           style="fill:#babdb6;stroke:#552200;stroke-width:0.15004671999999999;stroke-linecap:butt;stroke-linejoin:miter;stroke-opacity:1" />
        <path
           style="fill:#babdb6;stroke:#552200;stroke-width:0.15004671999999999;stroke-linecap:butt;stroke-linejoin:miter;stroke-opacity:1"
           d="m 193.09013,654.60807 0,3.84846"
           id="path4914"
           inkscape:connector-curvature="0" />
        <path
           style="fill:#babdb6;stroke:#552200;stroke-width:0.59625751000000005;stroke-linecap:butt;stroke-linejoin:miter;stroke-opacity:1"
           d="m 199.33973,654.68403 0,6.73813"
           id="path4918"
           inkscape:connector-curvature="0" />
        <path
           inkscape:connector-curvature="0"
           id="path4920"
           d="m 202.99818,654.73855 0,9.13393"
           style="fill:#803300;stroke:#552200;stroke-width:0.85332613999999984;stroke-linecap:butt;stroke-linejoin:miter;stroke-opacity:1" />
        <path
           inkscape:connector-curvature="0"
           id="path4924"
           d="m 209.60357,654.63935 0,5.03832"
           style="fill:#babdb6;stroke:#552200;stroke-width:0.27391893000000000;stroke-linecap:butt;stroke-linejoin:miter;stroke-opacity:1" />
        <path
           style="fill:#babdb6;stroke:#552200;stroke-width:0.15004671999999999;stroke-linecap:butt;stroke-linejoin:miter;stroke-opacity:1"
           d="m 212.90626,654.60807 0,3.84846"
           id="path4926"
           inkscape:connector-curvature="0" />
        <path
           inkscape:connector-curvature="0"
           id="path4928"
           d="m 216.20894,654.60807 0,3.84846"
           style="fill:#babdb6;stroke:#552200;stroke-width:0.15004671999999999;stroke-linecap:butt;stroke-linejoin:miter;stroke-opacity:1" />
        <path
           style="fill:#babdb6;stroke:#552200;stroke-width:0.15004671999999999;stroke-linecap:butt;stroke-linejoin:miter;stroke-opacity:1"
           d="m 219.51163,654.60807 0,3.84846"
           id="path4930"
           inkscape:connector-curvature="0" />
        <path
           inkscape:connector-curvature="0"
           id="path4932"
           d="m 222.81432,654.60807 0,3.84846"
           style="fill:#babdb6;stroke:#552200;stroke-width:0.15004671999999999;stroke-linecap:butt;stroke-linejoin:miter;stroke-opacity:1" />
        <path
           inkscape:connector-curvature="0"
           id="path4934"
           d="m 176.57667,654.60807 0,3.84846"
           style="fill:#babdb6;stroke:#552200;stroke-width:0.15004671999999999;stroke-linecap:butt;stroke-linejoin:miter;stroke-opacity:1" />
        <path
           inkscape:connector-curvature="0"
           id="path4940"
           d="m 206.71601,654.68403 0,6.73813"
           style="fill:#babdb6;stroke:#552200;stroke-width:0.59625751000000005;stroke-linecap:butt;stroke-linejoin:miter;stroke-opacity:1" />
        <path
           style="fill:#babdb6;stroke:#552200;stroke-width:0.27391893000000000;stroke-linecap:butt;stroke-linejoin:miter;stroke-opacity:1"
           d="m 196.32471,654.63935 0,5.03832"
           id="path4942"
           inkscape:connector-curvature="0" />
      </g>
      <g
         id="g4955"
         transform="matrix(0,2.6947323,-1.4818512,0,1289.1984,635.18227)"
         style="fill:#babdb6;stroke:#2e3436;stroke-width:0.60870665;enable-background:new">
        <rect
           style="fill:#babdb6;stroke:none"
           id="rect4957"
           width="50.322594"
           height="4.6961937"
           x="175.47412"
           y="653.98834" />
        <path
           inkscape:connector-curvature="0"
           id="path4959"
           d="m 179.87936,654.60807 0,3.84846"
           style="fill:#babdb6;stroke:#000000;stroke-width:0.15004672;stroke-linecap:butt;stroke-linejoin:miter;stroke-opacity:1" />
        <path
           style="fill:#babdb6;stroke:#000000;stroke-width:0.15004672;stroke-linecap:butt;stroke-linejoin:miter;stroke-opacity:1"
           d="m 183.18204,654.60807 0,3.84846"
           id="path4961"
           inkscape:connector-curvature="0" />
        <path
           inkscape:connector-curvature="0"
           id="path4963"
           d="m 186.48474,654.60807 0,3.84846"
           style="fill:#babdb6;stroke:#000000;stroke-width:0.15004672;stroke-linecap:butt;stroke-linejoin:miter;stroke-opacity:1" />
        <path
           style="fill:#babdb6;stroke:#000000;stroke-width:0.15004672;stroke-linecap:butt;stroke-linejoin:miter;stroke-opacity:1"
           d="m 189.78743,654.60807 0,3.84846"
           id="path4965"
           inkscape:connector-curvature="0" />
        <path
           inkscape:connector-curvature="0"
           id="path4967"
           d="m 193.09013,654.60807 0,3.84846"
           style="fill:#babdb6;stroke:#000000;stroke-width:0.15004672;stroke-linecap:butt;stroke-linejoin:miter;stroke-opacity:1" />
        <path
           inkscape:connector-curvature="0"
           id="path4969"
           d="m 199.33973,654.68403 0,6.73813"
           style="fill:#babdb6;stroke:#000000;stroke-width:0.59625751;stroke-linecap:butt;stroke-linejoin:miter;stroke-opacity:1" />
        <path
           style="fill:#babdb6;stroke:#000000;stroke-width:0.85332614;stroke-linecap:butt;stroke-linejoin:miter;stroke-opacity:1"
           d="m 202.99818,654.73855 0,9.13393"
           id="path4971"
           inkscape:connector-curvature="0" />
        <path
           style="fill:#babdb6;stroke:#000000;stroke-width:0.27391893;stroke-linecap:butt;stroke-linejoin:miter;stroke-opacity:1"
           d="m 209.60357,654.63935 0,5.03832"
           id="path4973"
           inkscape:connector-curvature="0" />
        <path
           inkscape:connector-curvature="0"
           id="path4975"
           d="m 212.90626,654.60807 0,3.84846"
           style="fill:#babdb6;stroke:#000000;stroke-width:0.15004672;stroke-linecap:butt;stroke-linejoin:miter;stroke-opacity:1" />
        <path
           style="fill:#babdb6;stroke:#000000;stroke-width:0.15004672;stroke-linecap:butt;stroke-linejoin:miter;stroke-opacity:1"
           d="m 216.20894,654.60807 0,3.84846"
           id="path4977"
           inkscape:connector-curvature="0" />
        <path
           inkscape:connector-curvature="0"
           id="path4979"
           d="m 219.51163,654.60807 0,3.84846"
           style="fill:#babdb6;stroke:#000000;stroke-width:0.15004672;stroke-linecap:butt;stroke-linejoin:miter;stroke-opacity:1" />
        <path
           style="fill:#babdb6;stroke:#000000;stroke-width:0.15004672;stroke-linecap:butt;stroke-linejoin:miter;stroke-opacity:1"
           d="m 222.81432,654.60807 0,3.84846"
           id="path4981"
           inkscape:connector-curvature="0" />
        <path
           style="fill:#babdb6;stroke:#000000;stroke-width:0.15004672;stroke-linecap:butt;stroke-linejoin:miter;stroke-opacity:1"
           d="m 176.57667,654.60807 0,3.84846"
           id="path4983"
           inkscape:connector-curvature="0" />
        <path
           style="fill:#babdb6;stroke:#000000;stroke-width:0.59625751;stroke-linecap:butt;stroke-linejoin:miter;stroke-opacity:1"
           d="m 206.71601,654.68403 0,6.73813"
           id="path4985"
           inkscape:connector-curvature="0" />
        <path
           inkscape:connector-curvature="0"
           id="path4987"
           d="m 196.32471,654.63935 0,5.03832"
           style="fill:#babdb6;stroke:#000000;stroke-width:0.27391893;stroke-linecap:butt;stroke-linejoin:miter;stroke-opacity:1" />
      </g>
    </g>
  </g>
  <g
     inkscape:groupmode="layer"
     id="layer5"
     inkscape:label="Layer#1"
     style="display:inline" />
  <g
     inkscape:groupmode="layer"
     id="layer2"
     inkscape:label="Layer"
     style="display:inline">
    <rect
       style="fill:#333333;stroke:none"
       id="rect4947"
       width="55.311306"
       height="52.797157"
       x="603.10577"
       y="430.81396" />
    <rect
       y="399.47632"
       x="642.96686"
       height="28.761883"
       width="30.131496"
       id="rect4949"
       style="fill:#333333;stroke:none" />
    <rect
       style="fill:#333333;stroke:none"
       id="rect4951"
       width="30.131496"
       height="28.761883"
       x="642.96686"
       y="485.76196" />
  </g>
  <g
     inkscape:groupmode="layer"
     id="layer3"
     inkscape:label="note"
     style="display:inline">
    <rect
       y="1047.6245"
       x="-47.375435"
       height="15.791812"
       width="818.01587"
       id="rect3609"
       style="opacity:0.5;fill:#4e9a06;stroke:none;display:inline" />
    <rect
       style="opacity:0.5;fill:#4e9a06;stroke:none;display:inline"
       id="rect3607"
       width="818.01587"
       height="15.791812"
       x="-47.375435"
       y="-2.5308173" />
  </g>
</svg>
