<?xml version="1.0" encoding="UTF-8" standalone="no"?>
<!-- Created with Inkscape (http://www.inkscape.org/) -->

<svg
   xmlns:dc="http://purl.org/dc/elements/1.1/"
   xmlns:cc="http://creativecommons.org/ns#"
   xmlns:rdf="http://www.w3.org/1999/02/22-rdf-syntax-ns#"
   xmlns:svg="http://www.w3.org/2000/svg"
   xmlns="http://www.w3.org/2000/svg"
   xmlns:xlink="http://www.w3.org/1999/xlink"
   xmlns:sodipodi="http://sodipodi.sourceforge.net/DTD/sodipodi-0.dtd"
   xmlns:inkscape="http://www.inkscape.org/namespaces/inkscape"
   width="24.00005"
   height="24.000002"
   id="svg4697"
   version="1.1"
   inkscape:version="0.48.4 r9939"
   sodipodi:docname="fis_valuetypes.svg">
  <defs
     id="defs4699">
    <linearGradient
       inkscape:collect="always"
       xlink:href="#linearGradient3821"
       id="linearGradient6885"
       gradientUnits="userSpaceOnUse"
       gradientTransform="matrix(0.92365403,0,0,0.92365403,-14.325725,-1.5306226)"
       x1="-83.40625"
       y1="516.15625"
       x2="-59.40625"
       y2="516.15625" />
    <linearGradient
       id="linearGradient3821">
      <stop
         style="stop-color:#d3d7cf;stop-opacity:1"
         offset="0"
         id="stop3825" />
      <stop
         id="stop3827"
         offset="1"
         style="stop-color:#2e3436;stop-opacity:1" />
    </linearGradient>
  </defs>
  <sodipodi:namedview
     id="base"
     pagecolor="#ffffff"
     bordercolor="#666666"
     borderopacity="1.0"
     inkscape:pageopacity="0.0"
     inkscape:pageshadow="2"
     inkscape:zoom="4.3191489"
     inkscape:cx="70.500003"
     inkscape:cy="-46.499996"
     inkscape:document-units="px"
     inkscape:current-layer="layer13"
     showgrid="false"
     inkscape:window-width="1440"
     inkscape:window-height="834"
     inkscape:window-x="0"
     inkscape:window-y="27"
     inkscape:window-maximized="1"
     fit-margin-top="0"
     fit-margin-left="0"
     fit-margin-right="0"
     fit-margin-bottom="0" />
  <metadata
     id="metadata4702">
    <rdf:RDF>
      <cc:Work
         rdf:about="">
        <dc:format>image/svg+xml</dc:format>
        <dc:type
           rdf:resource="http://purl.org/dc/dcmitype/StillImage" />
        <dc:title></dc:title>
      </cc:Work>
    </rdf:RDF>
  </metadata>
  <g
     inkscape:groupmode="layer"
     id="layer2"
     inkscape:label="Value Type #01"
     style="display:inline"
     transform="translate(-360.04724,-514.18109)">
    <g
       id="g5571"
       transform="matrix(0.99847736,0,0,1,200.88012,71.818906)">
      <rect
         y="520.36218"
         x="198.50592"
         height="24"
         width="24"
         id="rect6408"
         style="fill:none;stroke:none;display:inline" />
      <path
         sodipodi:nodetypes="ccccccccccc"
         inkscape:connector-curvature="0"
         id="path6394"
         d="m 209.62786,529.42298 -0.1875,4.40625 1.65625,-1.5625 c 1.09637,1.31184 1.92728,2.82456 2.5,4.4375 l -2.0625,0.5625 3.8125,2.1875 2.15625,-3.8125 -2.1875,0.59375 c -0.66031,-1.87843 -1.6761,-3.6094 -2.96875,-5.125 l 1.65625,-1.5 z"
         style="font-size:medium;font-style:normal;font-variant:normal;font-weight:normal;font-stretch:normal;text-indent:0;text-align:start;text-decoration:none;line-height:normal;letter-spacing:normal;word-spacing:normal;text-transform:none;direction:ltr;block-progression:tb;writing-mode:lr-tb;text-anchor:start;baseline-shift:baseline;color:#000000;fill:#a40000;fill-opacity:1;fill-rule:nonzero;stroke:none;stroke-width:0.74801642;marker:none;visibility:visible;display:inline;overflow:visible;enable-background:accumulate;font-family:Sans;-inkscape-font-specification:Sans" />
      <path
         transform="matrix(0.21378606,0,0,0.21378606,258.99733,458.94476)"
         d="m -176.69217,322.71246 c 0,7.02046 -5.69121,12.71167 -12.71167,12.71167 -7.02046,0 -12.71167,-5.69121 -12.71167,-12.71167 0,-7.02046 5.69121,-12.71166 12.71167,-12.71166 7.02046,0 12.71167,5.6912 12.71167,12.71166 z"
         sodipodi:ry="12.711667"
         sodipodi:rx="12.711667"
         sodipodi:cy="322.71246"
         sodipodi:cx="-189.40384"
         style="fill:none;stroke:#2e3436;stroke-width:9.35514736;stroke-linecap:round;stroke-linejoin:round;stroke-miterlimit:4;stroke-opacity:1;stroke-dasharray:none;display:inline"
         sodipodi:type="arc"
         id="path6413" />
      <path
         inkscape:connector-curvature="0"
         id="path6588"
         d="m 210.26619,521.65507 a 1.750175,1.750175 0 0 0 -1.34375,0.90625 l -10.21875,18.25 a 1.750175,1.750175 0 0 0 1.5,2.625 l 20.5,0 a 1.750175,1.750175 0 1 0 0,-3.5 l -17.5,0 8.78125,-15.65625 a 1.750175,1.750175 0 0 0 -1.71875,-2.625 z"
         style="font-size:medium;font-style:normal;font-variant:normal;font-weight:normal;font-stretch:normal;text-indent:0;text-align:start;text-decoration:none;line-height:normal;letter-spacing:normal;word-spacing:normal;text-transform:none;direction:ltr;block-progression:tb;writing-mode:lr-tb;text-anchor:start;baseline-shift:baseline;color:#000000;fill:#2e3436;fill-opacity:1;stroke:none;stroke-width:3.5;marker:none;visibility:visible;display:inline;overflow:visible;enable-background:accumulate;font-family:Sans;-inkscape-font-specification:Sans" />
    </g>
  </g>
  <g
     inkscape:groupmode="layer"
     id="layer3"
     inkscape:label="Value Type #02"
     style="display:inline"
     transform="translate(-360.04724,-514.18109)">
    <g
       style="display:inline"
       id="g4883"
       transform="translate(387.7036,184.48847)">
      <rect
         y="407.69263"
         x="89.343658"
         height="23.999983"
         width="23.999983"
         id="rect6512"
         style="fill:none;stroke:none" />
      <g
         transform="matrix(1.0701732,0,0,1.0701732,275.20153,-208.95762)"
         id="g6514">
        <path
           inkscape:connector-curvature="0"
           style="font-size:medium;font-style:normal;font-variant:normal;font-weight:normal;font-stretch:normal;text-indent:0;text-align:start;text-decoration:none;line-height:normal;letter-spacing:normal;word-spacing:normal;text-transform:none;direction:ltr;block-progression:tb;writing-mode:lr-tb;text-anchor:start;baseline-shift:baseline;color:#000000;fill:#2e3436;fill-opacity:1;fill-rule:nonzero;stroke:none;stroke-width:0.46721408;marker:none;visibility:visible;display:inline;overflow:visible;enable-background:accumulate;font-family:Sans;-inkscape-font-specification:Sans"
           d="m 77.03125,469.8125 0,3.96875 c 2.114697,1.40556 3.46875,3.81168 3.46875,6.5625 0,4.36946 -3.444128,7.84375 -7.8125,7.84375 -4.368436,0 -7.90625,-3.4753 -7.90625,-7.84375 0,-2.74797 1.384722,-5.15664 3.5,-6.5625 l 0,-3.9375 c -4.094344,1.72253 -6.96875,5.79497 -6.96875,10.5 0,6.26041 5.114604,11.375 11.375,11.375 6.260353,0 11.34375,-5.11552 11.34375,-11.375 0,-4.71928 -2.887528,-8.81741 -7,-10.53125 z"
           transform="matrix(0.93442818,0,0,0.93442818,-230.35637,138.75538)"
           id="path6506" />
        <path
           style="font-size:medium;font-style:normal;font-variant:normal;font-weight:normal;font-stretch:normal;text-indent:0;text-align:start;text-decoration:none;line-height:normal;letter-spacing:normal;word-spacing:normal;text-transform:none;direction:ltr;block-progression:tb;writing-mode:lr-tb;text-anchor:start;baseline-shift:baseline;color:#000000;fill:#2e3436;fill-opacity:1;fill-rule:nonzero;stroke:none;stroke-width:0.46721408;marker:none;visibility:visible;display:inline;overflow:visible;enable-background:accumulate;font-family:Sans;-inkscape-font-specification:Sans"
           d="m -162.68755,576.65625 c 0.01,-10e-4 0.0212,10e-4 0.0312,0 0.9642,-0.10313 1.85291,0.63363 1.84375,1.5 l 0,8.96875 c -0.0119,0.0182 0.009,0.0595 0,0.0937 -0.006,0.0251 -0.0339,0.0331 -0.0312,0.0625 0.0782,0.84654 -0.64352,1.65625 -1.59375,1.65625 -0.939,0 -1.68289,-0.79471 -1.625,-1.625 0,-2e-5 8.8e-4,-0.0193 0,-0.0312 -0.002,-0.0239 10e-6,-0.0625 0,-0.0625 -1e-5,-4e-5 -0.0312,-0.0625 -0.0312,-0.0625 l 0,-9 c -0.009,-0.72926 0.60313,-1.38787 1.40625,-1.5 z"
           id="path6510"
           inkscape:connector-curvature="0"
           sodipodi:nodetypes="ccccccsccccccc" />
      </g>
    </g>
  </g>
  <g
     inkscape:groupmode="layer"
     id="layer4"
     inkscape:label="Value Type #03"
     style="display:inline"
     transform="translate(-360.04724,-514.18109)">
    <g
       style="display:inline"
       id="g6534"
       transform="translate(310.51151,94.778745)">
      <rect
         y="419.40234"
         x="88.535728"
         height="24"
         width="24"
         id="rect6532"
         style="fill:none;stroke:none" />
      <path
         sodipodi:nodetypes="cccccccccssccssssccccccssssssssssscccccscccsccccc"
         inkscape:connector-curvature="0"
         id="path13343"
         d="m 96.15625,420.21875 c 1.349174,-0.007 3.177758,0.0151 5.15625,0.0312 3.86881,0.0316 8.26445,0.0799 10.96875,0.0625 l 0,5 -5.125,0 -0.21875,0 -0.0312,0.21875 c 0,0 -0.24761,2.83814 -0.40625,5.875 -0.0793,1.51843 -0.15065,3.09227 -0.125,4.375 -0.0193,0.96632 0.037,1.94124 0.40625,2.75 0.39403,0.86311 1.39969,1.14186 2.1875,0.75 0.74692,-0.37152 0.98444,-0.737 1.46875,-1.80374 l 1.46875,-0.0625 c -0.0909,1.62887 -0.60131,3.04018 -1.45687,3.94599 -0.58951,0.62413 -1.62537,0.9758 -2.76188,1.0765 -2.34415,0.20771 -3.81631,-0.20143 -4.6875,-1.15625 -0.87119,-0.95482 -1.18157,-2.5503 -1.0625,-4.8125 0.23966,-4.55361 1.375,-10.9375 1.375,-10.9375 l 0.0625,-0.28125 -0.3125,0 -4.5625,0 -0.21875,0 -0.03125,0.1875 c -0.01143,0.0729 -0.04891,0.28208 -0.09375,0.65625 -0.04484,0.37417 -0.112989,0.91275 -0.1875,1.53125 -0.149022,1.237 -0.348775,2.859 -0.5625,4.53125 -0.213725,1.67225 -0.418858,3.3674 -0.625,4.75 -0.206142,1.3826 -0.426397,2.47256 -0.53125,2.78125 -0.194559,0.57279 -0.894433,1.66469 -1.875,2.3125 -0.980567,0.64781 -2.190906,0.92665 -3.53125,0 -0.536874,-0.37117 -0.736807,-0.83863 -0.78125,-1.34375 -0.04444,-0.50512 0.1,-1.06163 0.34375,-1.625 0.487508,-1.12674 1.344199,-2.17141 1.65625,-2.59375 0.540645,-0.73171 2.405827,-3.84169 3.78125,-8.78125 0.126439,-0.45409 0.46875,-2.0625 0.46875,-2.0625 l 0.0625,-0.28125 -0.28125,0 c 0,0 -0.806197,-0.071 -1.75,-0.0625 -0.943803,0.009 -2.005777,0.0601 -2.65625,0.375 -0.649449,0.31443 -1.365425,1.05615 -1.96875,1.53125 -0.301663,0.23755 -0.576973,0.38155 -0.71875,0.40625 -0.07089,0.0124 -0.09952,0.0187 -0.125,0 -0.01494,-0.0109 -0.03906,-0.0803 -0.0625,-0.125 0.314406,-0.87665 1.118822,-2.39982 2.09375,-3.84375 0.990483,-1.46697 2.166889,-2.84276 3.0625,-3.3125 0.02496,-0.004 0.03926,0.005 0.09375,0 0.108975,-0.009 0.270799,-0.0245 0.46875,-0.0312 0.395903,-0.0136 0.950413,-0.0278 1.625,-0.0312 z"
         style="font-size:medium;font-style:normal;font-variant:normal;font-weight:normal;font-stretch:normal;text-indent:0;text-align:start;text-decoration:none;line-height:normal;letter-spacing:normal;word-spacing:normal;text-transform:none;direction:ltr;block-progression:tb;writing-mode:lr-tb;text-anchor:start;baseline-shift:baseline;color:#000000;fill:#2e3436;fill-opacity:1;fill-rule:nonzero;stroke:none;stroke-width:0.5;marker:none;visibility:visible;display:inline;overflow:visible;enable-background:accumulate;font-family:Sans;-inkscape-font-specification:Sans" />
    </g>
  </g>
  <g
     inkscape:groupmode="layer"
     id="layer5"
     inkscape:label="Value Type #04"
     style="display:inline"
     transform="translate(-360.04724,-514.18109)">
    <g
       style="display:inline"
       id="g6483"
       transform="matrix(0.99936249,0,0,1,-172.008,244.46836)">
      <g
         id="g6485">
        <g
           id="g6487"
           clip-path="none"
           mask="none">
          <g
             transform="translate(-2.2082474,7.7636119)"
             id="g6489" />
          <g
             id="g6491"
             transform="translate(-39.406223,-51.388681)">
            <rect
               style="fill:none;stroke:none"
               id="rect6493"
               width="24"
               height="24"
               x="610.8396"
               y="360.10141" />
            <g
               transform="translate(33.67809,10.44708)"
               id="g6495"
               style="display:inline">
              <path
                 sodipodi:nodetypes="ccccccccccccsssssccccc"
                 inkscape:connector-curvature="0"
                 style="fill:#2e3436;stroke:none"
                 mask="none"
                 clip-path="none"
                 d="m -46.34375,582.84375 0,19.5625 16.21875,0 0,-8.90625 7.78125,0 0,-10.65625 z m 2.9375,1.40625 3.90625,0 0,2.34375 -3.90625,0 z m 9.066838,-0.32534 c 0.827682,0 1.477251,0.6895 1.477251,1.51718 0,0.82768 -0.649569,1.47725 -1.477251,1.47725 -0.827682,0 -1.517177,-0.64957 -1.517177,-1.47725 0,-0.82768 0.689495,-1.51718 1.517177,-1.51718 z m 5.120662,0.32534 3.9375,0 0,2.34375 -3.9375,0 z"
                 transform="translate(623.49141,-230.98016)"
                 id="path6497" />
              <g
                 id="g6500"
                 transform="matrix(1,0,0,0.92587745,27.917889,31.377246)"
                 clip-path="none"
                 mask="none" />
              <path
                 style="fill:#2e3436;fill-rule:evenodd;stroke:none"
                 d="m 594.22289,363.49318 6.94008,0 -6.94008,7.94449 z"
                 id="path6502"
                 inkscape:connector-curvature="0"
                 sodipodi:nodetypes="cccc" />
              <path
                 id="path4582"
                 transform="translate(623.49141,-230.98016)"
                 d="m -34.339412,583.92466 c 0.827682,0 1.477251,0.6895 1.477251,1.51718 0,0.82768 -0.649569,1.47725 -1.477251,1.47725 -0.827682,0 -1.517177,-0.64957 -1.517177,-1.47725 0,-0.82768 0.689495,-1.51718 1.517177,-1.51718 z"
                 clip-path="none"
                 mask="none"
                 style="fill:#eeeeec;stroke:none"
                 inkscape:connector-curvature="0"
                 sodipodi:nodetypes="sssss" />
              <path
                 sodipodi:nodetypes="ccccc"
                 inkscape:connector-curvature="0"
                 style="fill:#eeeeec;stroke:none"
                 mask="none"
                 clip-path="none"
                 d="m -29.21875,584.25 3.9375,0 0,2.34375 -3.9375,0 z"
                 transform="translate(623.49141,-230.98016)"
                 id="path4584" />
              <path
                 sodipodi:nodetypes="ccccc"
                 inkscape:connector-curvature="0"
                 style="fill:#eeeeec;stroke:none"
                 mask="none"
                 clip-path="none"
                 d="m -43.40625,584.25 3.90625,0 0,2.34375 -3.90625,0 z"
                 transform="translate(623.49141,-230.98016)"
                 id="path4586" />
            </g>
          </g>
        </g>
      </g>
    </g>
  </g>
  <g
     inkscape:groupmode="layer"
     id="layer6"
     inkscape:label="Value Type #05"
     style="display:inline"
     transform="translate(-360.04724,-514.18109)">
    <g
       style="display:inline"
       id="g6814"
       transform="matrix(1,0,0,0.99975151,625.12957,41.674462)">
      <rect
         y="472.62408"
         x="-187.08232"
         height="24"
         width="24"
         id="rect6812"
         style="fill:none;stroke:none" />
      <path
         sodipodi:nodetypes="cczzc"
         inkscape:connector-curvature="0"
         id="path6810"
         d="m -182.38602,496.62407 18.80244,-8.97953 c 0,0 -8.48569,-11.83416 -14.83359,-14.43671 -6.3479,-2.60254 -8.43577,3.99357 -8.13615,9.97175 0.29962,5.97818 4.1673,13.44449 4.1673,13.44449 z"
         style="fill:#73d216;fill-opacity:1;stroke:none" />
      <path
         style="fill:#ef2929;fill-opacity:1;stroke:none"
         d="m -173.08964,492.18438 9.50606,-4.53984 c 0,0 -3.41915,-4.76836 -7.54031,-8.91711 l -6.82435,5.18769 z"
         id="path4173"
         inkscape:connector-curvature="0"
         sodipodi:nodetypes="ccccc" />
      <path
         inkscape:connector-curvature="0"
         id="path4175"
         transform="translate(-335.62601,64.723784)"
         d="m 157.6875,419.1875 -8.46875,0.78125 c 0.76993,5.65298 4.03125,11.9375 4.03125,11.9375 l 9.28125,-4.4375 -4.84375,-8.28125 z"
         style="fill:#3465a4;fill-opacity:1;stroke:none" />
    </g>
  </g>
  <g
     inkscape:groupmode="layer"
     id="layer7"
     inkscape:label="Value Type #06"
     style="display:inline"
     transform="translate(-360.04724,-514.18109)">
    <g
       style="display:inline"
       transform="translate(530.32764,128.96191)"
       id="g6897">
      <rect
         style="fill:none;stroke:none"
         id="rect6899"
         width="24"
         height="24"
         x="-92.280396"
         y="463.21918" />
      <path
         style="fill:url(#linearGradient6885);fill-rule:evenodd;stroke:none"
         d="m -91.364244,465.54968 0,19.339 c 7.389232,0 14.778464,0 22.167696,0 l 0,-19.339 c -7.389232,0 -14.778464,0 -22.167696,0 z"
         id="path6901"
         inkscape:connector-curvature="0"
         sodipodi:nodetypes="ccccc" />
    </g>
  </g>
  <g
     inkscape:groupmode="layer"
     id="layer8"
     inkscape:label="Value Type #07"
     style="display:inline"
     transform="translate(-360.04724,-514.18109)">
    <g
       style="display:inline"
       id="g7195"
       transform="translate(268.50335,94.778745)">
      <rect
         y="419.40234"
         x="208.5439"
         height="24"
         width="24"
         id="rect7128"
         style="fill:none;stroke:none" />
      <g
         style="fill:#2e3436"
         transform="matrix(1.1017964,0,0,1.1017964,461.67736,21.15534)"
         id="g7130">
        <g
           style="fill:#2e3436"
           id="g7053"
           transform="translate(-7.01542,0)">
          <g
             style="fill:#2e3436"
             id="g6978">
            <path
               style="fill:#2e3436;stroke:none"
               d="m 216.3125,429.5625 -1.125,1.84375 1.125,1.8125 8.5,0 1.125,-1.8125 -1.125,-1.84375 z"
               transform="matrix(0.9076087,0,0,0.9076087,-412.00697,-19.200771)"
               id="rect6972"
               inkscape:connector-curvature="0"
               sodipodi:nodetypes="ccccccc" />
          </g>
          <g
             style="fill:#2e3436"
             transform="translate(0,-8.7848827)"
             id="g6984">
            <path
               style="fill:#2e3436;stroke:none"
               d="m 215.84375,419.90625 -0.59375,1.0625 0,1.125 1.03125,1.5 8.53125,0 1.03125,-1.5 0,-1.125 -0.625,-1.0625 z"
               transform="matrix(0.9076087,0,0,0.9076087,-412.00697,-10.415888)"
               id="path6986"
               inkscape:connector-curvature="0"
               sodipodi:nodetypes="ccccccccc" />
          </g>
          <g
             style="fill:#2e3436"
             id="g6994"
             transform="matrix(0,-0.85320208,1,0,-590.12442,186.53622)">
            <path
               sodipodi:nodetypes="ccccccccc"
               inkscape:connector-curvature="0"
               id="path6996"
               d="m -208.70303,371.04734 -0.5934,-0.62584 c -2.29668,0 -4.59336,0 -6.89003,0 l -0.5934,0.96875 0,0.90266 2.09942,1.47234 3.8674,0 2.11001,-1.55807 z"
               style="fill:#2e3436;stroke:none" />
          </g>
        </g>
        <g
           style="fill:#2e3436"
           id="g7063"
           transform="matrix(-1,0,0,1,-430.69357,0)" />
        <g
           style="fill:#2e3436"
           transform="matrix(-1,0,0,1,-430.69357,-8.7848827)"
           id="g7067" />
        <g
           style="fill:#2e3436"
           id="g7071"
           transform="matrix(0,-0.85320208,-1,0,159.43085,186.53622)">
          <path
             sodipodi:nodetypes="ccccccccc"
             inkscape:connector-curvature="0"
             id="path7073"
             d="m -208.70303,371.04734 -0.5934,-0.62584 c -2.29668,0 -4.59336,0 -6.89003,0 l -0.5934,0.96875 0,0.90266 2.09942,1.47234 3.8674,0 2.11001,-1.55807 z"
             style="fill:#babdb6;stroke:none" />
        </g>
        <g
           style="fill:#2e3436"
           transform="matrix(1,0,0,-1,-7.01609,744.6875)"
           id="g7100">
          <g
             style="fill:#2e3436"
             id="g7102" />
          <g
             style="fill:#2e3436"
             id="g7106"
             transform="translate(0,-8.7848827)">
            <path
               style="fill:#2e3436;stroke:none"
               d="m 216.28125,439.21875 -1.03125,1.46875 0,1.15625 0.59375,1.0625 9.375,0 0.625,-1.0625 0,-1.15625 -1.03125,-1.46875 z"
               transform="matrix(0.9076087,0,0,-0.9076087,-412.0063,772.67315)"
               id="path7108"
               inkscape:connector-curvature="0"
               sodipodi:nodetypes="ccccccccc" />
          </g>
          <g
             style="fill:#2e3436"
             transform="matrix(0,-0.85320208,1,0,-590.12442,186.53622)"
             id="g7110">
            <path
               style="fill:#2e3436;stroke:none"
               d="m -208.70303,371.04734 -0.5934,-0.62584 c -2.29668,0 -4.59336,0 -6.89003,0 l -0.5934,0.96875 0,0.90266 2.09942,1.47234 3.8674,0 2.11001,-1.55807 z"
               id="path7112"
               inkscape:connector-curvature="0"
               sodipodi:nodetypes="ccccccccc" />
          </g>
        </g>
        <g
           style="fill:#2e3436"
           transform="matrix(-1,0,0,-1,-430.69424,744.6875)"
           id="g7114">
          <g
             style="fill:#2e3436"
             id="g7116" />
          <g
             style="fill:#2e3436"
             transform="translate(0,-8.7848827)"
             id="g7120" />
          <g
             style="fill:#2e3436"
             id="g7124"
             transform="matrix(0,-0.85320208,1,0,-590.12442,186.53622)">
            <path
               sodipodi:nodetypes="ccccccccc"
               inkscape:connector-curvature="0"
               id="path7126"
               d="m -208.70303,371.04734 -0.5934,-0.62584 c -2.29668,0 -4.59336,0 -6.89003,0 l -0.5934,0.96875 0,0.90266 2.09942,1.47234 3.8674,0 2.11001,-1.55807 z"
               style="fill:#2e3436;stroke:none" />
          </g>
        </g>
      </g>
    </g>
  </g>
  <g
     inkscape:groupmode="layer"
     id="layer9"
     inkscape:label="Value Type #08"
     style="display:inline"
     transform="translate(-360.04724,-514.18109)">
    <g
       style="display:inline"
       id="g7623"
       transform="translate(121.50334,94.778745)">
      <rect
         y="419.40234"
         x="238.5439"
         height="24"
         width="24"
         id="rect7473"
         style="fill:none;stroke:none" />
      <g
         transform="matrix(0.9913466,0,0,0.9913466,389.63393,-101.34486)"
         id="g7468"
         style="fill:#2e3436">
        <path
           inkscape:connector-curvature="0"
           style="font-size:medium;font-style:normal;font-variant:normal;font-weight:normal;font-stretch:normal;text-indent:0;text-align:start;text-decoration:none;line-height:normal;letter-spacing:normal;word-spacing:normal;text-transform:none;direction:ltr;block-progression:tb;writing-mode:lr-tb;text-anchor:start;baseline-shift:baseline;color:#000000;fill:#2e3436;fill-opacity:1;stroke:none;stroke-width:4.5348177;marker:none;visibility:visible;display:inline;overflow:visible;enable-background:accumulate;font-family:Sans;-inkscape-font-specification:Sans"
           d="m -150.25,527.53125 a 2.2682635,2.2682635 0 1 0 0.21875,4.53125 l 2.3125,0 0,-4.53125 -2.3125,0 a 2.2676356,2.2676356 0 0 0 -0.21875,0 z m 5.46875,0 0,4.53125 14.21875,0 a 2.2676356,2.2676356 0 1 0 0,-4.53125 l -14.21875,0 z"
           id="path7403" />
        <path
           inkscape:connector-curvature="0"
           style="font-size:medium;font-style:normal;font-variant:normal;font-weight:normal;font-stretch:normal;text-indent:0;text-align:start;text-decoration:none;line-height:normal;letter-spacing:normal;word-spacing:normal;text-transform:none;direction:ltr;block-progression:tb;writing-mode:lr-tb;text-anchor:start;baseline-shift:baseline;color:#000000;fill:#2e3436;fill-opacity:1;stroke:none;stroke-width:4.5348177;marker:none;visibility:visible;display:inline;overflow:visible;enable-background:accumulate;font-family:Sans;-inkscape-font-specification:Sans"
           d="m -150.25,535.13191 a 2.2682635,2.2682635 0 1 0 0.21875,4.53125 l 2.3125,0 0,-4.53125 -2.3125,0 a 2.2676356,2.2676356 0 0 0 -0.21875,0 z m 5.46875,0 0,4.53125 14.21875,0 a 2.2676356,2.2676356 0 1 0 0,-4.53125 l -14.21875,0 z"
           id="path7437" />
        <path
           inkscape:connector-curvature="0"
           style="font-size:medium;font-style:normal;font-variant:normal;font-weight:normal;font-stretch:normal;text-indent:0;text-align:start;text-decoration:none;line-height:normal;letter-spacing:normal;word-spacing:normal;text-transform:none;direction:ltr;block-progression:tb;writing-mode:lr-tb;text-anchor:start;baseline-shift:baseline;color:#000000;fill:#2e3436;fill-opacity:1;stroke:none;stroke-width:4.5348177;marker:none;visibility:visible;display:inline;overflow:visible;enable-background:accumulate;font-family:Sans;-inkscape-font-specification:Sans"
           d="m -150.25,542.73254 a 2.2682635,2.2682635 0 1 0 0.21875,4.53125 l 2.3125,0 0,-4.53125 -2.3125,0 a 2.2676356,2.2676356 0 0 0 -0.21875,0 z m 5.46875,0 0,4.53125 14.21875,0 a 2.2676356,2.2676356 0 1 0 0,-4.53125 l -14.21875,0 z"
           id="path7439" />
      </g>
    </g>
  </g>
  <g
     inkscape:groupmode="layer"
     id="layer10"
     inkscape:label="Value Type #09"
     style="display:inline"
     transform="translate(-360.04724,-514.18109)">
    <g
       style="display:inline"
       transform="matrix(0.9303233,0,0,0.9303233,1032.7993,111.49555)"
       id="g7605">
      <g
         id="g5577"
         transform="translate(84.31055,7.9848432)">
        <rect
           y="550.62262"
           x="-807.44843"
           height="25.797483"
           width="25.797483"
           id="rect7598"
           style="fill:none;stroke:none" />
        <g
           transform="translate(-280.70987,-24.196088)"
           id="g7600">
          <path
             sodipodi:type="arc"
             style="fill:none;stroke:#2e3436;stroke-width:7.8732338"
             id="path7592"
             sodipodi:cx="-96.178337"
             sodipodi:cy="400.70486"
             sodipodi:rx="18.973959"
             sodipodi:ry="18.973959"
             d="m -114.14271,394.59813 c 3.37265,-9.92146 14.14966,-15.2303 24.071112,-11.85764 7.610056,2.58693 12.764425,9.68818 12.865713,17.72527"
             transform="matrix(0.54610096,0,0,0.54610096,-461.31629,368.89318)"
             sodipodi:start="3.4692738"
             sodipodi:end="6.2705834"
             sodipodi:open="true" />
          <path
             sodipodi:end="1.7481099"
             sodipodi:start="0.43909087"
             transform="matrix(0.54610096,0,0,0.54610096,-461.31629,368.89318)"
             d="m -79.004276,408.77101 c -3.65085,7.77322 -12.067571,12.1251 -20.5208,10.61032"
             sodipodi:ry="18.973959"
             sodipodi:rx="18.973959"
             sodipodi:cy="400.70486"
             sodipodi:cx="-96.178337"
             id="path7594"
             style="fill:none;stroke:#2e3436;stroke-width:7.8732338"
             sodipodi:type="arc"
             sodipodi:open="true" />
          <path
             sodipodi:open="true"
             sodipodi:type="arc"
             style="fill:none;stroke:#2e3436;stroke-width:7.8732338"
             id="path7596"
             sodipodi:cx="-96.178337"
             sodipodi:cy="400.70486"
             sodipodi:rx="18.973959"
             sodipodi:ry="18.973959"
             d="m -105.17866,417.40832 c -6.16822,-3.32362 -10.00273,-9.77608 -9.97347,-16.78269"
             transform="matrix(0.54610096,0,0,0.54610096,-461.31629,368.89318)"
             sodipodi:start="2.0650231"
             sodipodi:end="3.1457685" />
        </g>
      </g>
    </g>
  </g>
  <g
     inkscape:groupmode="layer"
     id="layer11"
     inkscape:label="Value Type #10"
     style="display:inline"
     transform="translate(-360.04724,-514.18109)">
    <g
       style="display:inline"
       id="g7802"
       transform="translate(475.63642,13.009336)">
      <rect
         y="540.17175"
         x="-115.58918"
         height="24"
         width="24"
         id="rect7800"
         style="fill:none;stroke:none" />
      <g
         transform="translate(-34.943963,-56.024177)"
         id="g7796">
        <path
           style="font-size:medium;font-style:normal;font-variant:normal;font-weight:normal;font-stretch:normal;text-indent:0;text-align:start;text-decoration:none;line-height:normal;letter-spacing:normal;word-spacing:normal;text-transform:none;direction:ltr;block-progression:tb;writing-mode:lr-tb;text-anchor:start;baseline-shift:baseline;color:#000000;fill:#2e3436;fill-opacity:1;stroke:none;stroke-width:4;marker:none;visibility:visible;display:inline;overflow:visible;enable-background:accumulate;font-family:Sans;-inkscape-font-specification:Sans"
           d="m -76.375,596.36871 -4,0.0937 c 0.07734,3.60917 2.51138,11.16591 11,13.85004 4.72727,1.49479 8.41921,6.36724 8.46875,9.60182 l 4,-0.0625 c -0.0893,-5.83062 -5.36397,-11.49063 -11.25,-13.35182 -7.0357,-2.22471 -8.175094,-8.09416 -8.21875,-10.13129 z"
           id="path7794"
           inkscape:connector-curvature="0"
           sodipodi:nodetypes="ccsccscc" />
        <path
           transform="matrix(0.66821945,0,0,0.66821945,8.9876625,221.02487)"
           style="fill:#ce5c00;stroke:none"
           d="m -106.64675,580.56622 c 0,5.21315 -4.22609,9.43923 -9.43923,9.43923 -5.21315,0 -9.43923,-4.22608 -9.43923,-9.43923 0,-5.21314 4.22608,-9.43923 9.43923,-9.43923 5.21314,0 9.43923,4.22609 9.43923,9.43923 z"
           id="path7790"
           inkscape:connector-curvature="0" />
        <path
           style="font-size:medium;font-style:normal;font-variant:normal;font-weight:normal;font-stretch:normal;text-indent:0;text-align:start;text-decoration:none;line-height:normal;letter-spacing:normal;word-spacing:normal;text-transform:none;direction:ltr;block-progression:tb;writing-mode:lr-tb;text-anchor:start;baseline-shift:baseline;color:#000000;fill:#2e3436;fill-opacity:1;fill-rule:nonzero;stroke:none;stroke-width:5.00354242;marker:none;visibility:visible;display:inline;overflow:visible;enable-background:accumulate;font-family:Sans;-inkscape-font-specification:Sans"
           d="m -68.588439,600.99115 c -4.387001,0 -7.97687,3.58988 -7.97687,7.97687 0,4.387 3.589875,7.97687 7.97687,7.97687 4.386994,0 7.976869,-3.58986 7.976869,-7.97687 0,-4.38699 -3.589875,-7.97687 -7.976869,-7.97687 z"
           id="path7819"
           inkscape:connector-curvature="0"
           sodipodi:nodetypes="sssss" />
        <path
           inkscape:connector-curvature="0"
           id="path4588"
           d="m -68.588439,604.33225 c 2.580048,0 4.635772,2.05573 4.635772,4.63577 0,2.58006 -2.055724,4.63578 -4.635772,4.63578 -2.580062,0 -4.635773,-2.05571 -4.635773,-4.63578 0,-2.58004 2.055717,-4.63577 4.635773,-4.63577 z"
           style="font-size:medium;font-style:normal;font-variant:normal;font-weight:normal;font-stretch:normal;text-indent:0;text-align:start;text-decoration:none;line-height:normal;letter-spacing:normal;word-spacing:normal;text-transform:none;direction:ltr;block-progression:tb;writing-mode:lr-tb;text-anchor:start;baseline-shift:baseline;color:#000000;fill:#ef2929;fill-opacity:1;fill-rule:nonzero;stroke:none;stroke-width:5.00354242;marker:none;visibility:visible;display:inline;overflow:visible;enable-background:accumulate;font-family:Sans;-inkscape-font-specification:Sans"
           sodipodi:nodetypes="sssss" />
      </g>
    </g>
  </g>
  <g
     inkscape:groupmode="layer"
     id="layer12"
     inkscape:label="Value Type #11"
     style="display:inline"
     transform="translate(-360.04724,-514.18109)">
    <g
       style="display:inline"
       id="g7836"
       transform="translate(-127.05724,-32.348513)">
      <rect
         y="585.5296"
         x="604.10449"
         height="24"
         width="24"
         id="rect7829"
         style="fill:none;stroke:none" />
      <g
         transform="translate(69.053813,-3.2207656)"
         id="g7831">
        <path
           sodipodi:type="arc"
           style="fill:#c4a000;stroke:#2e3436;stroke-width:7.39625692;stroke-miterlimit:4;stroke-dasharray:none"
           id="path7825"
           sodipodi:cx="-135.03223"
           sodipodi:cy="339.97729"
           sodipodi:rx="21.307367"
           sodipodi:ry="21.307367"
           d="m -113.72486,339.97729 c 0,11.76774 -9.53963,21.30737 -21.30737,21.30737 -11.76773,0 -21.30736,-9.53963 -21.30736,-21.30737 0,-11.76773 9.53963,-21.30736 21.30736,-21.30736 11.76774,0 21.30737,9.53963 21.30737,21.30736 z"
           transform="matrix(0.47321233,0,0,0.47321233,610.94959,439.86892)" />
        <path
           style="fill:none;stroke:#2e3436;stroke-width:3;stroke-linecap:round;stroke-linejoin:round;stroke-opacity:1"
           d="m 547.07307,594.97705 -0.0589,5.69754 -2.49793,2.91686"
           id="path7827"
           inkscape:connector-curvature="0"
           sodipodi:nodetypes="ccc" />
      </g>
    </g>
  </g>
  <g
     inkscape:groupmode="layer"
     id="layer14"
     inkscape:label="Value Type #12"
     style="display:inline"
     transform="translate(-360.04724,-514.18109)">
    <g
       style="display:inline"
       transform="translate(-166.05725,-32.348513)"
       id="g7921">
      <rect
         style="fill:none;stroke:none"
         id="rect7923"
         width="24"
         height="24"
         x="604.10449"
         y="585.5296" />
      <g
         id="g7925"
         transform="translate(69.053813,-3.2207656)">
        <path
           transform="matrix(0.47321233,0,0,0.47321233,610.94959,439.86892)"
           d="m -113.72486,339.97729 c 0,11.76774 -9.53963,21.30737 -21.30737,21.30737 -11.76773,0 -21.30736,-9.53963 -21.30736,-21.30737 0,-11.76773 9.53963,-21.30736 21.30736,-21.30736 11.76774,0 21.30737,9.53963 21.30737,21.30736 z"
           sodipodi:ry="21.307367"
           sodipodi:rx="21.307367"
           sodipodi:cy="339.97729"
           sodipodi:cx="-135.03223"
           id="path7927"
           style="fill:#4e9a06;stroke:#2e3436;stroke-width:7.39625692;stroke-miterlimit:4;stroke-dasharray:none"
           sodipodi:type="arc" />
      </g>
    </g>
  </g>
  <g
     inkscape:groupmode="layer"
     id="layer13"
     inkscape:label="Value Type #13"
     style="display:inline"
     transform="translate(-360.04724,-514.18109)">
    <g
       style="display:inline"
       id="g8010"
       transform="translate(-181.65522,-59.287661)">
      <rect
         y="651.46875"
         x="541.70245"
         height="24"
         width="24"
         id="rect8008"
         style="fill:none;stroke:none" />
      <g
         transform="matrix(0.27272726,0,0,0.27272726,393.96541,491.25001)"
         id="g8004">
        <g
           id="g8023"
           transform="matrix(0.94596677,0,0,0.94596677,33.381761,32.386019)">
          <path
             sodipodi:nodetypes="zssssscccz"
             inkscape:connector-curvature="0"
             id="rect7993"
             d="m 542.54791,670.00776 c 1.32411,4.82051 2.17209,5.46099 4.88156,5.46099 l 28.88702,0 c 2.70947,0 4.88156,-2.42991 4.88156,-5.46099 l 0,-24.51442 c 0,-3.03108 -2.17209,-5.46099 -4.88156,-5.46099 l -16.65631,0 c -3.76933,-29.81272 7.57535,-40.47149 14.50663,-46.83202 0.54199,-0.63621 0.0285,-2.32175 -1.04572,-2.03166 -36.00933,8.3701 -31.89729,74.01859 -30.57318,78.83909 z"
             style="fill:#2e3436;stroke:none" />
          <path
             style="fill:#2e3436;stroke:none"
             d="m 587.38562,670.00776 c 1.32411,4.82051 2.17209,5.46099 4.88155,5.46099 l 28.88704,0 c 2.70946,0 4.88155,-2.42991 4.88155,-5.46099 l 0,-24.51442 c 0,-3.03108 -2.17209,-5.46099 -4.88155,-5.46099 l -16.65632,0 c -3.76933,-29.81272 7.57534,-40.47149 14.50662,-46.83202 0.542,-0.63621 0.0285,-2.32175 -1.0457,-2.03166 -36.00933,8.3701 -31.8973,74.01859 -30.57319,78.83909 z"
             id="path8002"
             inkscape:connector-curvature="0"
             sodipodi:nodetypes="zssssscccz" />
        </g>
      </g>
    </g>
  </g>
</svg>
