<?xml version="1.0" encoding="UTF-8" standalone="no"?>
<!-- Created with Inkscape (http://www.inkscape.org/) -->

<svg
   xmlns:dc="http://purl.org/dc/elements/1.1/"
   xmlns:cc="http://creativecommons.org/ns#"
   xmlns:rdf="http://www.w3.org/1999/02/22-rdf-syntax-ns#"
   xmlns:svg="http://www.w3.org/2000/svg"
   xmlns="http://www.w3.org/2000/svg"
   xmlns:sodipodi="http://sodipodi.sourceforge.net/DTD/sodipodi-0.dtd"
   xmlns:inkscape="http://www.inkscape.org/namespaces/inkscape"
   width="24"
   height="24"
   id="svg21783"
   version="1.1"
   inkscape:version="0.48.4 r9939"
   sodipodi:docname="New document 17">
  <defs
     id="defs21785" />
  <sodipodi:namedview
     id="base"
     pagecolor="#ffffff"
     bordercolor="#666666"
     borderopacity="1.0"
     inkscape:pageopacity="0.0"
     inkscape:pageshadow="2"
     inkscape:zoom="2.007068"
     inkscape:cx="51.020408"
     inkscape:cy="11.292517"
     inkscape:document-units="px"
     inkscape:current-layer="layer1"
     showgrid="false"
     fit-margin-top="0"
     fit-margin-left="0"
     fit-margin-right="0"
     fit-margin-bottom="0"
     inkscape:showpageshadow="false"
     inkscape:window-width="1440"
     inkscape:window-height="834"
     inkscape:window-x="0"
     inkscape:window-y="27"
     inkscape:window-maximized="1" />
  <metadata
     id="metadata21788">
    <rdf:RDF>
      <cc:Work
         rdf:about="">
        <dc:format>image/svg+xml</dc:format>
        <dc:type
           rdf:resource="http://purl.org/dc/dcmitype/StillImage" />
        <dc:title></dc:title>
      </cc:Work>
    </rdf:RDF>
  </metadata>
  <g
     inkscape:label="01 - Link"
     inkscape:groupmode="layer"
     id="layer1"
     transform="translate(-424.59865,-711.92681)">
    <g
       style="display:inline"
       id="g7056"
       transform="translate(384.56716,52.180773)">
      <rect
         y="659.74603"
         x="40.031487"
         height="24"
         width="24"
         id="rect6739"
         style="fill:none;stroke:none" />
      <g
         transform="translate(-429.99771,383.41563)"
         id="g8279">
        <g
           id="g7968"
           transform="translate(0,1.0906333)" />
        <g
           id="g8275"
           transform="matrix(0.91666668,0,0,0.91560482,61.636549,-3.2695121)"
           style="fill:#204a87">
          <path
             inkscape:connector-curvature="0"
             id="rect8247"
             d="m 448.73527,319.0337 c -2.06493,1.89574 -2.74848,5.00368 -1.50018,7.66994 1.53637,3.28154 5.466,4.70578 8.74753,3.1694 l 5.38799,-2.51439 c 3.28154,-1.53638 4.70576,-5.466 3.16939,-8.74755 -0.88129,-1.88239 -2.5743,-3.15456 -4.45829,-3.61311 l -1.05646,2.28198 c -0.0642,0.13696 -0.10574,0.26299 -0.14791,0.40144 1.28091,0.10613 2.46926,0.86427 3.06376,2.13408 0.88355,1.88719 0.0911,4.03957 -1.796,4.92312 l -5.36684,2.53552 c -1.88721,0.88358 -4.06071,0.11235 -4.94427,-1.77486 -0.88356,-1.88721 -0.11235,-4.0607 1.77486,-4.94425 l 2.42988,-1.16212 c -0.13854,-1.08983 -0.0413,-2.22954 0.31694,-3.31731 l -3.97232,1.85938 c -0.61529,0.28807 -1.17156,0.66125 -1.64808,1.09873 z"
             style="font-size:medium;font-style:normal;font-variant:normal;font-weight:normal;font-stretch:normal;text-indent:0;text-align:start;text-decoration:none;line-height:normal;letter-spacing:normal;word-spacing:normal;text-transform:none;direction:ltr;block-progression:tb;writing-mode:lr-tb;text-anchor:start;baseline-shift:baseline;color:#000000;fill:#2e3436;fill-opacity:1;stroke:none;stroke-width:3;marker:none;visibility:visible;display:inline;overflow:visible;enable-background:accumulate;font-family:Sans;-inkscape-font-specification:Sans" />
          <path
             inkscape:connector-curvature="0"
             id="rect8245"
             d="m 459.17314,308.63807 c -0.43665,0.47879 -0.81064,1.03279 -1.09872,1.64808 l -2.51438,5.34571 c -1.53227,3.27277 -0.13561,7.20243 3.12714,8.74756 l 1.05646,-0.50711 c 0.78012,-0.36523 1.2917,-0.99094 1.50019,-1.71148 -0.44364,-0.0337 -0.87928,-0.1364 -1.31003,-0.33807 -1.88719,-0.88356 -2.63729,-3.07818 -1.75372,-4.96538 l 2.49325,-5.36684 c 0.88357,-1.88722 3.05707,-2.7007 4.94426,-1.81713 1.88721,0.88357 2.67956,3.07818 1.79599,4.96539 l -1.83824,3.95118 c 0.63663,1.57972 0.68416,3.2696 0.25355,4.81748 0.68778,-0.58864 1.26311,-1.30893 1.66921,-2.17632 l 2.49326,-5.36685 c 1.53638,-3.28154 0.11216,-7.25342 -3.16939,-8.7898 -2.66624,-1.24831 -5.75665,-0.51118 -7.64883,1.56358 z"
             style="font-size:medium;font-style:normal;font-variant:normal;font-weight:normal;font-stretch:normal;text-indent:0;text-align:start;text-decoration:none;line-height:normal;letter-spacing:normal;word-spacing:normal;text-transform:none;direction:ltr;block-progression:tb;writing-mode:lr-tb;text-anchor:start;baseline-shift:baseline;color:#000000;fill:#2e3436;fill-opacity:1;stroke:none;stroke-width:3;marker:none;visibility:visible;display:inline;overflow:visible;enable-background:accumulate;font-family:Sans;-inkscape-font-specification:Sans"
             sodipodi:nodetypes="scccccsccscccccss" />
        </g>
      </g>
    </g>
  </g>
</svg>
