<?xml version="1.0" encoding="UTF-8" standalone="no"?>
<!-- Created with Inkscape (http://www.inkscape.org/) -->

<svg
   xmlns:dc="http://purl.org/dc/elements/1.1/"
   xmlns:cc="http://creativecommons.org/ns#"
   xmlns:rdf="http://www.w3.org/1999/02/22-rdf-syntax-ns#"
   xmlns:svg="http://www.w3.org/2000/svg"
   xmlns="http://www.w3.org/2000/svg"
   xmlns:xlink="http://www.w3.org/1999/xlink"
   xmlns:sodipodi="http://sodipodi.sourceforge.net/DTD/sodipodi-0.dtd"
   xmlns:inkscape="http://www.inkscape.org/namespaces/inkscape"
   width="24.00005"
   height="24.000002"
   id="svg4697"
   version="1.1"
   inkscape:version="0.48.4 r9939"
   sodipodi:docname="fis_values.svg">
  <defs
     id="defs4699">
    <linearGradient
       inkscape:collect="always"
       xlink:href="#linearGradient3821"
       id="linearGradient6885"
       gradientUnits="userSpaceOnUse"
       gradientTransform="matrix(0.92365403,0,0,0.92365403,-14.325725,-1.5306226)"
       x1="-83.40625"
       y1="516.15625"
       x2="-59.40625"
       y2="516.15625" />
    <linearGradient
       id="linearGradient3821">
      <stop
         style="stop-color:#d3d7cf;stop-opacity:1"
         offset="0"
         id="stop3825" />
      <stop
         id="stop3827"
         offset="1"
         style="stop-color:#2e3436;stop-opacity:1" />
    </linearGradient>
  </defs>
  <sodipodi:namedview
     id="base"
     pagecolor="#ffffff"
     bordercolor="#666666"
     borderopacity="1.0"
     inkscape:pageopacity="0.0"
     inkscape:pageshadow="2"
     inkscape:zoom="2.1166538"
     inkscape:cx="46.7073"
     inkscape:cy="8.8684043"
     inkscape:document-units="px"
     inkscape:current-layer="layer13"
     showgrid="false"
     inkscape:window-width="1440"
     inkscape:window-height="834"
     inkscape:window-x="0"
     inkscape:window-y="27"
     inkscape:window-maximized="1"
     fit-margin-top="0"
     fit-margin-left="0"
     fit-margin-right="0"
     fit-margin-bottom="0"
     showguides="true"
     inkscape:guide-bbox="true"
     inkscape:showpageshadow="false" />
  <metadata
     id="metadata4702">
    <rdf:RDF>
      <cc:Work
         rdf:about="">
        <dc:format>image/svg+xml</dc:format>
        <dc:type
           rdf:resource="http://purl.org/dc/dcmitype/StillImage" />
        <dc:title />
      </cc:Work>
    </rdf:RDF>
  </metadata>
  <g
     inkscape:groupmode="layer"
     id="layer2"
     inkscape:label="01 - Angle"
     style="display:inline"
     transform="translate(-360.04724,-514.18109)">
    <g
       id="g5571"
       transform="matrix(0.99847736,0,0,1,161.88014,-6.1810917)">
      <rect
         y="520.36218"
         x="198.50592"
         height="24"
         width="24"
         id="rect6408"
         style="fill:none;stroke:none;display:inline" />
      <path
         sodipodi:nodetypes="ccccccccccc"
         inkscape:connector-curvature="0"
         id="path6394"
         d="m 209.62786,529.42298 -0.1875,4.40625 1.65625,-1.5625 c 1.09637,1.31184 1.92728,2.82456 2.5,4.4375 l -2.0625,0.5625 3.8125,2.1875 2.15625,-3.8125 -2.1875,0.59375 c -0.66031,-1.87843 -1.6761,-3.6094 -2.96875,-5.125 l 1.65625,-1.5 z"
         style="font-size:medium;font-style:normal;font-variant:normal;font-weight:normal;font-stretch:normal;text-indent:0;text-align:start;text-decoration:none;line-height:normal;letter-spacing:normal;word-spacing:normal;text-transform:none;direction:ltr;block-progression:tb;writing-mode:lr-tb;text-anchor:start;baseline-shift:baseline;color:#000000;fill:#a40000;fill-opacity:1;fill-rule:nonzero;stroke:none;stroke-width:0.74801642;marker:none;visibility:visible;display:inline;overflow:visible;enable-background:accumulate;font-family:Sans;-inkscape-font-specification:Sans" />
      <path
         style="font-size:medium;font-style:normal;font-variant:normal;font-weight:normal;font-stretch:normal;text-indent:0;text-align:start;text-decoration:none;line-height:normal;letter-spacing:normal;word-spacing:normal;text-transform:none;direction:ltr;block-progression:tb;writing-mode:lr-tb;text-anchor:start;baseline-shift:baseline;color:#000000;fill:#2e3436;fill-opacity:1;stroke:none;stroke-width:9.35514736;marker:none;visibility:visible;display:inline;overflow:visible;enable-background:accumulate;font-family:Sans;-inkscape-font-specification:Sans"
         d="m 218.50491,524.21632 c -2.04131,0 -3.71453,1.67989 -3.71453,3.72121 0,2.04132 1.67322,3.71453 3.71453,3.71453 2.04132,0 3.72122,-1.67321 3.72122,-3.71453 0,-2.04132 -1.6799,-3.72121 -3.72122,-3.72121 z"
         id="path6413"
         inkscape:connector-curvature="0"
         sodipodi:nodetypes="sssss" />
      <path
         inkscape:connector-curvature="0"
         id="path6588"
         d="m 210.26619,521.65507 a 1.750175,1.750175 0 0 0 -1.34375,0.90625 l -10.21875,18.25 a 1.750175,1.750175 0 0 0 1.5,2.625 l 20.5,0 a 1.750175,1.750175 0 1 0 0,-3.5 l -17.5,0 8.78125,-15.65625 a 1.750175,1.750175 0 0 0 -1.71875,-2.625 z"
         style="font-size:medium;font-style:normal;font-variant:normal;font-weight:normal;font-stretch:normal;text-indent:0;text-align:start;text-decoration:none;line-height:normal;letter-spacing:normal;word-spacing:normal;text-transform:none;direction:ltr;block-progression:tb;writing-mode:lr-tb;text-anchor:start;baseline-shift:baseline;color:#000000;fill:#2e3436;fill-opacity:1;stroke:none;stroke-width:3.5;marker:none;visibility:visible;display:inline;overflow:visible;enable-background:accumulate;font-family:Sans;-inkscape-font-specification:Sans" />
      <path
         inkscape:connector-curvature="0"
         id="path12665"
         d="m 218.50491,526.22056 c 0.96044,0 1.71697,0.75653 1.71697,1.71697 0,0.96044 -0.75653,1.71697 -1.71697,1.71697 -0.96043,0 -1.71697,-0.75653 -1.71697,-1.71697 0,-0.96044 0.75654,-1.71697 1.71697,-1.71697 z"
         style="font-size:medium;font-style:normal;font-variant:normal;font-weight:normal;font-stretch:normal;text-indent:0;text-align:start;text-decoration:none;line-height:normal;letter-spacing:normal;word-spacing:normal;text-transform:none;direction:ltr;block-progression:tb;writing-mode:lr-tb;text-anchor:start;baseline-shift:baseline;color:#000000;fill:#eeeeec;fill-opacity:1;stroke:none;stroke-width:9.35514736000000013;marker:none;visibility:visible;display:inline;overflow:visible;enable-background:accumulate;font-family:Sans;-inkscape-font-specification:Sans"
         sodipodi:nodetypes="sssss" />
    </g>
  </g>
  <g
     inkscape:groupmode="layer"
     id="layer3"
     inkscape:label="02 - Bool"
     style="display:inline"
     transform="translate(-360.04724,-514.18109)">
    <g
       style="display:inline"
       id="g4883"
       transform="translate(309.70362,106.48847)">
      <rect
         y="407.69263"
         x="89.343658"
         height="23.999983"
         width="23.999983"
         id="rect6512"
         style="fill:none;stroke:none" />
      <g
         transform="matrix(1.0701732,0,0,1.0701732,275.20153,-208.95762)"
         id="g6514">
        <path
           inkscape:connector-curvature="0"
           style="font-size:medium;font-style:normal;font-variant:normal;font-weight:normal;font-stretch:normal;text-indent:0;text-align:start;text-decoration:none;line-height:normal;letter-spacing:normal;word-spacing:normal;text-transform:none;direction:ltr;block-progression:tb;writing-mode:lr-tb;text-anchor:start;baseline-shift:baseline;color:#000000;fill:#2e3436;fill-opacity:1;fill-rule:nonzero;stroke:none;stroke-width:0.46721408;marker:none;visibility:visible;display:inline;overflow:visible;enable-background:accumulate;font-family:Sans;-inkscape-font-specification:Sans"
           d="m 77.03125,469.8125 0,3.96875 c 2.114697,1.40556 3.46875,3.81168 3.46875,6.5625 0,4.36946 -3.444128,7.84375 -7.8125,7.84375 -4.368436,0 -7.90625,-3.4753 -7.90625,-7.84375 0,-2.74797 1.384722,-5.15664 3.5,-6.5625 l 0,-3.9375 c -4.094344,1.72253 -6.96875,5.79497 -6.96875,10.5 0,6.26041 5.114604,11.375 11.375,11.375 6.260353,0 11.34375,-5.11552 11.34375,-11.375 0,-4.71928 -2.887528,-8.81741 -7,-10.53125 z"
           transform="matrix(0.93442818,0,0,0.93442818,-230.35637,138.75538)"
           id="path6506" />
        <path
           style="font-size:medium;font-style:normal;font-variant:normal;font-weight:normal;font-stretch:normal;text-indent:0;text-align:start;text-decoration:none;line-height:normal;letter-spacing:normal;word-spacing:normal;text-transform:none;direction:ltr;block-progression:tb;writing-mode:lr-tb;text-anchor:start;baseline-shift:baseline;color:#000000;fill:#2e3436;fill-opacity:1;fill-rule:nonzero;stroke:none;stroke-width:0.46721408;marker:none;visibility:visible;display:inline;overflow:visible;enable-background:accumulate;font-family:Sans;-inkscape-font-specification:Sans"
           d="m -162.68755,576.65625 c 0.01,-10e-4 0.0212,10e-4 0.0312,0 0.9642,-0.10313 1.85291,0.63363 1.84375,1.5 l 0,8.96875 c -0.0119,0.0182 0.009,0.0595 0,0.0937 -0.006,0.0251 -0.0339,0.0331 -0.0312,0.0625 0.0782,0.84654 -0.64352,1.65625 -1.59375,1.65625 -0.939,0 -1.68289,-0.79471 -1.625,-1.625 0,-2e-5 8.8e-4,-0.0193 0,-0.0312 -0.002,-0.0239 10e-6,-0.0625 0,-0.0625 -1e-5,-4e-5 -0.0312,-0.0625 -0.0312,-0.0625 l 0,-9 c -0.009,-0.72926 0.60313,-1.38787 1.40625,-1.5 z"
           id="path6510"
           inkscape:connector-curvature="0"
           sodipodi:nodetypes="ccccccsccccccc" />
      </g>
    </g>
  </g>
  <g
     inkscape:groupmode="layer"
     id="layer4"
     inkscape:label="03 - Real"
     style="display:inline"
     transform="translate(-360.04724,-514.18109)">
    <g
       style="display:inline"
       id="g6534"
       transform="translate(349.51154,94.778747)">
      <rect
         y="419.40234"
         x="88.535728"
         height="24"
         width="24"
         id="rect6532"
         style="fill:none;stroke:none" />
      <path
         sodipodi:nodetypes="cccccccccssccssssccccccssssssssssscccccscccsccccc"
         inkscape:connector-curvature="0"
         id="path13343"
         d="m 96.15625,420.21875 c 1.349174,-0.007 3.177758,0.0151 5.15625,0.0312 3.86881,0.0316 8.26445,0.0799 10.96875,0.0625 l 0,5 -5.125,0 -0.21875,0 -0.0312,0.21875 c 0,0 -0.24761,2.83814 -0.40625,5.875 -0.0793,1.51843 -0.15065,3.09227 -0.125,4.375 -0.0193,0.96632 0.037,1.94124 0.40625,2.75 0.39403,0.86311 1.39969,1.14186 2.1875,0.75 0.74692,-0.37152 0.98444,-0.737 1.46875,-1.80374 l 1.46875,-0.0625 c -0.0909,1.62887 -0.60131,3.04018 -1.45687,3.94599 -0.58951,0.62413 -1.62537,0.9758 -2.76188,1.0765 -2.34415,0.20771 -3.81631,-0.20143 -4.6875,-1.15625 -0.87119,-0.95482 -1.18157,-2.5503 -1.0625,-4.8125 0.23966,-4.55361 1.375,-10.9375 1.375,-10.9375 l 0.0625,-0.28125 -0.3125,0 -4.5625,0 -0.21875,0 -0.03125,0.1875 c -0.01143,0.0729 -0.04891,0.28208 -0.09375,0.65625 -0.04484,0.37417 -0.112989,0.91275 -0.1875,1.53125 -0.149022,1.237 -0.348775,2.859 -0.5625,4.53125 -0.213725,1.67225 -0.418858,3.3674 -0.625,4.75 -0.206142,1.3826 -0.426397,2.47256 -0.53125,2.78125 -0.194559,0.57279 -0.894433,1.66469 -1.875,2.3125 -0.980567,0.64781 -2.190906,0.92665 -3.53125,0 -0.536874,-0.37117 -0.736807,-0.83863 -0.78125,-1.34375 -0.04444,-0.50512 0.1,-1.06163 0.34375,-1.625 0.487508,-1.12674 1.344199,-2.17141 1.65625,-2.59375 0.540645,-0.73171 2.405827,-3.84169 3.78125,-8.78125 0.126439,-0.45409 0.46875,-2.0625 0.46875,-2.0625 l 0.0625,-0.28125 -0.28125,0 c 0,0 -0.806197,-0.071 -1.75,-0.0625 -0.943803,0.009 -2.005777,0.0601 -2.65625,0.375 -0.649449,0.31443 -1.365425,1.05615 -1.96875,1.53125 -0.301663,0.23755 -0.576973,0.38155 -0.71875,0.40625 -0.07089,0.0124 -0.09952,0.0187 -0.125,0 -0.01494,-0.0109 -0.03906,-0.0803 -0.0625,-0.125 0.314406,-0.87665 1.118822,-2.39982 2.09375,-3.84375 0.990483,-1.46697 2.166889,-2.84276 3.0625,-3.3125 0.02496,-0.004 0.03926,0.005 0.09375,0 0.108975,-0.009 0.270799,-0.0245 0.46875,-0.0312 0.395903,-0.0136 0.950413,-0.0278 1.625,-0.0312 z"
         style="font-size:medium;font-style:normal;font-variant:normal;font-weight:normal;font-stretch:normal;text-indent:0;text-align:start;text-decoration:none;line-height:normal;letter-spacing:normal;word-spacing:normal;text-transform:none;direction:ltr;block-progression:tb;writing-mode:lr-tb;text-anchor:start;baseline-shift:baseline;color:#000000;fill:#2e3436;fill-opacity:1;fill-rule:nonzero;stroke:none;stroke-width:0.5;marker:none;visibility:visible;display:inline;overflow:visible;enable-background:accumulate;font-family:Sans;-inkscape-font-specification:Sans" />
    </g>
  </g>
  <g
     inkscape:groupmode="layer"
     id="layer5"
     inkscape:label="04 - Canvas"
     style="display:inline"
     transform="translate(-360.04724,-514.18109)">
    <g
       style="display:inline"
       id="g6483"
       transform="matrix(0.99936249,0,0,1,-94.007966,205.46836)">
      <g
         id="g6485">
        <g
           id="g6487"
           clip-path="none"
           mask="none">
          <g
             transform="translate(-2.2082474,7.7636119)"
             id="g6489" />
          <g
             id="g6491"
             transform="translate(-39.406223,-51.388681)">
            <rect
               style="fill:none;stroke:none"
               id="rect6493"
               width="24"
               height="24"
               x="610.8396"
               y="360.10141" />
            <g
               transform="translate(33.67809,10.44708)"
               id="g6495"
               style="display:inline">
              <path
                 sodipodi:nodetypes="ccccccc"
                 inkscape:connector-curvature="0"
                 style="fill:#2e3436;stroke:none"
                 mask="none"
                 clip-path="none"
                 d="m -46.34375,582.84375 0,19.5625 16.21875,0 0,-8.90625 7.78125,0 0,-10.65625 z"
                 transform="translate(623.49141,-230.98016)"
                 id="path6497" />
              <g
                 id="g6500"
                 transform="matrix(1,0,0,0.92587745,27.917889,31.377246)"
                 clip-path="none"
                 mask="none" />
              <path
                 style="fill:#2e3436;fill-rule:evenodd;stroke:none"
                 d="m 594.22289,363.49318 6.94008,0 -6.94008,7.94449 z"
                 id="path6502"
                 inkscape:connector-curvature="0"
                 sodipodi:nodetypes="cccc" />
              <path
                 id="path4582"
                 transform="translate(623.49141,-230.98016)"
                 d="m -34.339412,583.92466 c 0.827682,0 1.477251,0.6895 1.477251,1.51718 0,0.82768 -0.649569,1.47725 -1.477251,1.47725 -0.827682,0 -1.517177,-0.64957 -1.517177,-1.47725 0,-0.82768 0.689495,-1.51718 1.517177,-1.51718 z"
                 clip-path="none"
                 mask="none"
                 style="fill:#eeeeec;stroke:none"
                 inkscape:connector-curvature="0"
                 sodipodi:nodetypes="sssss" />
              <path
                 sodipodi:nodetypes="ccccc"
                 inkscape:connector-curvature="0"
                 style="fill:#eeeeec;stroke:none"
                 mask="none"
                 clip-path="none"
                 d="m -29.21875,584.25 3.9375,0 0,2.34375 -3.9375,0 z"
                 transform="translate(623.49141,-230.98016)"
                 id="path4584" />
              <path
                 sodipodi:nodetypes="ccccc"
                 inkscape:connector-curvature="0"
                 style="fill:#eeeeec;stroke:none"
                 mask="none"
                 clip-path="none"
                 d="m -43.40625,584.25 3.90625,0 0,2.34375 -3.90625,0 z"
                 transform="translate(623.49141,-230.98016)"
                 id="path4586" />
              <path
                 id="path12653"
                 transform="translate(623.49141,-230.98016)"
                 d="m -43.40625,584.25 3.90625,0 0,2.34375 -3.90625,0 z m 9.066838,-0.32534 c 0.827682,0 1.477251,0.6895 1.477251,1.51718 0,0.82768 -0.649569,1.47725 -1.477251,1.47725 -0.827682,0 -1.517177,-0.64957 -1.517177,-1.47725 0,-0.82768 0.689495,-1.51718 1.517177,-1.51718 z m 5.120662,0.32534 3.9375,0 0,2.34375 -3.9375,0 z"
                 clip-path="none"
                 mask="none"
                 style="fill:#eeeeec;stroke:none"
                 inkscape:connector-curvature="0"
                 sodipodi:nodetypes="cccccsssssccccc" />
              <path
                 sodipodi:nodetypes="ccccc"
                 inkscape:connector-curvature="0"
                 style="fill:#eeeeec;stroke:none"
                 mask="none"
                 clip-path="none"
                 d="m -43.40625,584.25 3.90625,0 0,2.34375 -3.90625,0 z"
                 transform="translate(623.49141,-230.98016)"
                 id="path12655" />
              <path
                 sodipodi:nodetypes="sssss"
                 inkscape:connector-curvature="0"
                 style="fill:#eeeeec;stroke:none"
                 mask="none"
                 clip-path="none"
                 d="m -34.339412,583.92466 c 0.827682,0 1.477251,0.6895 1.477251,1.51718 0,0.82768 -0.649569,1.47725 -1.477251,1.47725 -0.827682,0 -1.517177,-0.64957 -1.517177,-1.47725 0,-0.82768 0.689495,-1.51718 1.517177,-1.51718 z"
                 transform="translate(623.49141,-230.98016)"
                 id="path12657" />
              <path
                 sodipodi:nodetypes="ccccc"
                 inkscape:connector-curvature="0"
                 style="fill:#eeeeec;stroke:none"
                 mask="none"
                 clip-path="none"
                 d="m -29.21875,584.25 3.9375,0 0,2.34375 -3.9375,0 z"
                 transform="translate(623.49141,-230.98016)"
                 id="path12659" />
            </g>
          </g>
        </g>
      </g>
    </g>
  </g>
  <g
     inkscape:groupmode="layer"
     id="layer6"
     inkscape:label="05 - Color"
     style="display:inline"
     transform="translate(-360.04724,-514.18109)">
    <g
       style="display:inline"
       id="g6814"
       transform="matrix(1,0,0,0.99975151,703.1296,41.674464)">
      <rect
         y="472.62408"
         x="-187.08232"
         height="24"
         width="24"
         id="rect6812"
         style="fill:none;stroke:none" />
      <path
         sodipodi:nodetypes="cczzc"
         inkscape:connector-curvature="0"
         id="path6810"
         d="m -182.38602,496.62407 18.80244,-8.97953 c 0,0 -8.48569,-11.83416 -14.83359,-14.43671 -6.3479,-2.60254 -8.43577,3.99357 -8.13615,9.97175 0.29962,5.97818 4.1673,13.44449 4.1673,13.44449 z"
         style="fill:#73d216;fill-opacity:1;stroke:none" />
      <path
         style="fill:#ef2929;fill-opacity:1;stroke:none"
         d="m -173.08964,492.18438 9.50606,-4.53984 c 0,0 -3.41915,-4.76836 -7.54031,-8.91711 l -6.82435,5.18769 z"
         id="path4173"
         inkscape:connector-curvature="0"
         sodipodi:nodetypes="ccccc" />
      <path
         inkscape:connector-curvature="0"
         id="path4175"
         transform="translate(-335.62601,64.723784)"
         d="m 157.6875,419.1875 -8.46875,0.78125 c 0.76993,5.65298 4.03125,11.9375 4.03125,11.9375 l 9.28125,-4.4375 -4.84375,-8.28125 z"
         style="fill:#3465a4;fill-opacity:1;stroke:none" />
    </g>
  </g>
  <g
     inkscape:groupmode="layer"
     id="layer7"
     inkscape:label="06 - Gradient"
     style="display:inline"
     transform="translate(-360.04724,-514.18109)">
    <g
       style="display:inline"
       transform="translate(647.32768,50.961914)"
       id="g6897">
      <rect
         style="fill:none;stroke:none"
         id="rect6899"
         width="24"
         height="24"
         x="-92.280396"
         y="463.21918" />
      <path
         style="fill:url(#linearGradient6885);fill-rule:evenodd;stroke:none"
         d="m -91.364244,465.54968 0,19.339 c 7.389232,0 14.778464,0 22.167696,0 l 0,-19.339 c -7.389232,0 -14.778464,0 -22.167696,0 z"
         id="path6901"
         inkscape:connector-curvature="0"
         sodipodi:nodetypes="ccccc" />
    </g>
  </g>
  <g
     inkscape:groupmode="layer"
     id="layer8"
     inkscape:label="07 - Integer"
     style="display:inline"
     transform="translate(-360.04724,-514.18109)">
    <g
       style="display:inline"
       id="g7195"
       transform="translate(385.50339,94.778747)">
      <rect
         y="419.40234"
         x="208.5439"
         height="24"
         width="24"
         id="rect7128"
         style="fill:none;stroke:none" />
      <g
         style="fill:#2e3436"
         transform="matrix(1.1017964,0,0,1.1017964,461.67736,21.15534)"
         id="g7130">
        <g
           style="fill:#2e3436"
           id="g7053"
           transform="translate(-7.01542,0)">
          <g
             style="fill:#2e3436"
             id="g6978">
            <path
               style="fill:#2e3436;stroke:none"
               d="m 216.3125,429.5625 -1.125,1.84375 1.125,1.8125 8.5,0 1.125,-1.8125 -1.125,-1.84375 z"
               transform="matrix(0.9076087,0,0,0.9076087,-412.00697,-19.200771)"
               id="rect6972"
               inkscape:connector-curvature="0"
               sodipodi:nodetypes="ccccccc" />
          </g>
          <g
             style="fill:#2e3436"
             transform="translate(0,-8.7848827)"
             id="g6984">
            <path
               style="fill:#2e3436;stroke:none"
               d="m 215.84375,419.90625 -0.59375,1.0625 0,1.125 1.03125,1.5 8.53125,0 1.03125,-1.5 0,-1.125 -0.625,-1.0625 z"
               transform="matrix(0.9076087,0,0,0.9076087,-412.00697,-10.415888)"
               id="path6986"
               inkscape:connector-curvature="0"
               sodipodi:nodetypes="ccccccccc" />
          </g>
          <g
             style="fill:#2e3436"
             id="g6994"
             transform="matrix(0,-0.85320208,1,0,-590.12442,186.53622)">
            <path
               sodipodi:nodetypes="ccccccccc"
               inkscape:connector-curvature="0"
               id="path6996"
               d="m -208.70303,371.04734 -0.5934,-0.62584 c -2.29668,0 -4.59336,0 -6.89003,0 l -0.5934,0.96875 0,0.90266 2.09942,1.47234 3.8674,0 2.11001,-1.55807 z"
               style="fill:#2e3436;stroke:none" />
          </g>
        </g>
        <g
           style="fill:#2e3436"
           id="g7063"
           transform="matrix(-1,0,0,1,-430.69357,0)" />
        <g
           style="fill:#2e3436"
           transform="matrix(-1,0,0,1,-430.69357,-8.7848827)"
           id="g7067" />
        <g
           style="fill:#2e3436"
           id="g7071"
           transform="matrix(0,-0.85320208,-1,0,159.43085,186.53622)">
          <path
             sodipodi:nodetypes="ccccccccc"
             inkscape:connector-curvature="0"
             id="path7073"
             d="m -208.70303,371.04734 -0.5934,-0.62584 c -2.29668,0 -4.59336,0 -6.89003,0 l -0.5934,0.96875 0,0.90266 2.09942,1.47234 3.8674,0 2.11001,-1.55807 z"
             style="fill:#babdb6;stroke:none" />
        </g>
        <g
           style="fill:#2e3436"
           transform="matrix(1,0,0,-1,-7.01609,744.6875)"
           id="g7100">
          <g
             style="fill:#2e3436"
             id="g7102" />
          <g
             style="fill:#2e3436"
             id="g7106"
             transform="translate(0,-8.7848827)">
            <path
               style="fill:#2e3436;stroke:none"
               d="m 216.28125,439.21875 -1.03125,1.46875 0,1.15625 0.59375,1.0625 9.375,0 0.625,-1.0625 0,-1.15625 -1.03125,-1.46875 z"
               transform="matrix(0.9076087,0,0,-0.9076087,-412.0063,772.67315)"
               id="path7108"
               inkscape:connector-curvature="0"
               sodipodi:nodetypes="ccccccccc" />
          </g>
          <g
             style="fill:#2e3436"
             transform="matrix(0,-0.85320208,1,0,-590.12442,186.53622)"
             id="g7110">
            <path
               style="fill:#2e3436;stroke:none"
               d="m -208.70303,371.04734 -0.5934,-0.62584 c -2.29668,0 -4.59336,0 -6.89003,0 l -0.5934,0.96875 0,0.90266 2.09942,1.47234 3.8674,0 2.11001,-1.55807 z"
               id="path7112"
               inkscape:connector-curvature="0"
               sodipodi:nodetypes="ccccccccc" />
          </g>
        </g>
        <g
           style="fill:#2e3436"
           transform="matrix(-1,0,0,-1,-430.69424,744.6875)"
           id="g7114">
          <g
             style="fill:#2e3436"
             id="g7116" />
          <g
             style="fill:#2e3436"
             transform="translate(0,-8.7848827)"
             id="g7120" />
          <g
             style="fill:#2e3436"
             id="g7124"
             transform="matrix(0,-0.85320208,1,0,-590.12442,186.53622)">
            <path
               sodipodi:nodetypes="ccccccccc"
               inkscape:connector-curvature="0"
               id="path7126"
               d="m -208.70303,371.04734 -0.5934,-0.62584 c -2.29668,0 -4.59336,0 -6.89003,0 l -0.5934,0.96875 0,0.90266 2.09942,1.47234 3.8674,0 2.11001,-1.55807 z"
               style="fill:#2e3436;stroke:none" />
          </g>
        </g>
      </g>
    </g>
  </g>
  <g
     inkscape:groupmode="layer"
     id="layer9"
     inkscape:label="08 - List"
     style="display:inline"
     transform="translate(-360.04724,-514.18109)">
    <g
       style="display:inline"
       id="g7623"
       transform="translate(121.50337,133.77875)">
      <rect
         y="419.40234"
         x="238.5439"
         height="24"
         width="24"
         id="rect7473"
         style="fill:none;stroke:none" />
      <g
         transform="matrix(0.9913466,0,0,0.9913466,389.63393,-101.34486)"
         id="g7468"
         style="fill:#2e3436">
        <path
           inkscape:connector-curvature="0"
           style="font-size:medium;font-style:normal;font-variant:normal;font-weight:normal;font-stretch:normal;text-indent:0;text-align:start;text-decoration:none;line-height:normal;letter-spacing:normal;word-spacing:normal;text-transform:none;direction:ltr;block-progression:tb;writing-mode:lr-tb;text-anchor:start;baseline-shift:baseline;color:#000000;fill:#2e3436;fill-opacity:1;stroke:none;stroke-width:4.5348177;marker:none;visibility:visible;display:inline;overflow:visible;enable-background:accumulate;font-family:Sans;-inkscape-font-specification:Sans"
           d="m -150.25,527.53125 c -1.18628,0.0573 -2.21352,1.18872 -2.15625,2.375 0.0573,1.18628 1.18872,2.21352 2.375,2.15625 l 2.3125,0 0,-4.53125 z"
           id="path7403"
           sodipodi:nodetypes="cscccc" />
        <path
           inkscape:connector-curvature="0"
           style="font-size:medium;font-style:normal;font-variant:normal;font-weight:normal;font-stretch:normal;text-indent:0;text-align:start;text-decoration:none;line-height:normal;letter-spacing:normal;word-spacing:normal;text-transform:none;direction:ltr;block-progression:tb;writing-mode:lr-tb;text-anchor:start;baseline-shift:baseline;color:#000000;fill:#2e3436;fill-opacity:1;stroke:none;stroke-width:4.5348177;marker:none;visibility:visible;display:inline;overflow:visible;enable-background:accumulate;font-family:Sans;-inkscape-font-specification:Sans"
           d="m -150.25,535.13191 c -1.18628,0.0573 -2.21352,1.18872 -2.15625,2.375 0.0573,1.18628 1.18872,2.21352 2.375,2.15625 l 2.3125,0 0,-4.53125 z"
           id="path7437"
           sodipodi:nodetypes="cscccc" />
        <path
           inkscape:connector-curvature="0"
           style="font-size:medium;font-style:normal;font-variant:normal;font-weight:normal;font-stretch:normal;text-indent:0;text-align:start;text-decoration:none;line-height:normal;letter-spacing:normal;word-spacing:normal;text-transform:none;direction:ltr;block-progression:tb;writing-mode:lr-tb;text-anchor:start;baseline-shift:baseline;color:#000000;fill:#2e3436;fill-opacity:1;stroke:none;stroke-width:4.5348177;marker:none;visibility:visible;display:inline;overflow:visible;enable-background:accumulate;font-family:Sans;-inkscape-font-specification:Sans"
           d="m -150.25,542.73254 c -1.18628,0.0573 -2.21352,1.18872 -2.15625,2.375 0.0573,1.18628 1.18872,2.21352 2.375,2.15625 l 2.3125,0 0,-4.53125 z"
           id="path7439"
           sodipodi:nodetypes="cscccc" />
        <path
           sodipodi:nodetypes="cccscc"
           id="path17538"
           d="m -144.78125,527.53125 0,4.53125 14.21875,0 c 1.21808,0.0513 2.3631,-1.04646 2.3631,-2.26562 0,-1.21917 -1.14502,-2.31696 -2.3631,-2.26563 z"
           style="font-size:medium;font-style:normal;font-variant:normal;font-weight:normal;font-stretch:normal;text-indent:0;text-align:start;text-decoration:none;line-height:normal;letter-spacing:normal;word-spacing:normal;text-transform:none;direction:ltr;block-progression:tb;writing-mode:lr-tb;text-anchor:start;baseline-shift:baseline;color:#000000;fill:#2e3436;fill-opacity:1;stroke:none;stroke-width:4.5348177;marker:none;visibility:visible;display:inline;overflow:visible;enable-background:accumulate;font-family:Sans;-inkscape-font-specification:Sans"
           inkscape:connector-curvature="0" />
        <path
           sodipodi:nodetypes="cccscc"
           id="path17540"
           d="m -144.78125,535.13191 0,4.53125 14.21875,0 c 1.21808,0.0513 2.3631,-1.04646 2.3631,-2.26562 0,-1.21917 -1.14502,-2.31696 -2.3631,-2.26563 z"
           style="font-size:medium;font-style:normal;font-variant:normal;font-weight:normal;font-stretch:normal;text-indent:0;text-align:start;text-decoration:none;line-height:normal;letter-spacing:normal;word-spacing:normal;text-transform:none;direction:ltr;block-progression:tb;writing-mode:lr-tb;text-anchor:start;baseline-shift:baseline;color:#000000;fill:#2e3436;fill-opacity:1;stroke:none;stroke-width:4.5348177;marker:none;visibility:visible;display:inline;overflow:visible;enable-background:accumulate;font-family:Sans;-inkscape-font-specification:Sans"
           inkscape:connector-curvature="0" />
        <path
           sodipodi:nodetypes="cccscc"
           id="path17542"
           d="m -144.78125,542.73254 0,4.53125 14.21875,0 c 1.21808,0.0513 2.3631,-1.04646 2.3631,-2.26562 0,-1.21917 -1.14502,-2.31696 -2.3631,-2.26563 z"
           style="font-size:medium;font-style:normal;font-variant:normal;font-weight:normal;font-stretch:normal;text-indent:0;text-align:start;text-decoration:none;line-height:normal;letter-spacing:normal;word-spacing:normal;text-transform:none;direction:ltr;block-progression:tb;writing-mode:lr-tb;text-anchor:start;baseline-shift:baseline;color:#000000;fill:#2e3436;fill-opacity:1;stroke:none;stroke-width:4.5348177;marker:none;visibility:visible;display:inline;overflow:visible;enable-background:accumulate;font-family:Sans;-inkscape-font-specification:Sans"
           inkscape:connector-curvature="0" />
      </g>
    </g>
  </g>
  <g
     inkscape:groupmode="layer"
     id="layer10"
     inkscape:label="09 - Segment"
     style="display:inline"
     transform="translate(-360.04724,-514.18109)">
    <g
       style="display:inline"
       transform="matrix(0.9303233,0,0,0.9303233,1071.7993,33.495553)"
       id="g7605">
      <g
         id="g5577"
         transform="translate(84.31055,7.9848432)">
        <rect
           y="550.62262"
           x="-807.44843"
           height="25.797483"
           width="25.797483"
           id="rect7598"
           style="fill:none;stroke:none" />
        <g
           transform="translate(-280.70987,-24.196088)"
           id="g7600">
          <path
             style="font-size:medium;font-style:normal;font-variant:normal;font-weight:normal;font-stretch:normal;text-indent:0;text-align:start;text-decoration:none;line-height:normal;letter-spacing:normal;word-spacing:normal;text-transform:none;direction:ltr;block-progression:tb;writing-mode:lr-tb;text-anchor:start;baseline-shift:baseline;color:#000000;fill:#2e3436;fill-opacity:1;stroke:none;stroke-width:7.8732338;marker:none;visibility:visible;display:inline;overflow:visible;enable-background:accumulate;font-family:Sans;-inkscape-font-specification:Sans"
             d="m -514.73179,575.25108 c -4.86146,0.35981 -9.29434,3.5589 -10.95615,8.4475 l 4.07869,1.38232 c 1.46788,-4.3181 6.09195,-6.60464 10.41005,-5.13676 3.30087,1.12208 5.51947,4.17637 5.5634,7.66247 l 4.30055,-0.0512 c -0.0667,-5.29203 -3.47078,-9.98661 -8.48163,-11.68998 -1.62953,-0.55393 -3.29442,-0.73429 -4.91491,-0.61436 z"
             id="path7592"
             inkscape:connector-curvature="0" />
          <path
             style="font-size:medium;font-style:normal;font-variant:normal;font-weight:normal;font-stretch:normal;text-indent:0;text-align:start;text-decoration:none;line-height:normal;letter-spacing:normal;word-spacing:normal;text-transform:none;direction:ltr;block-progression:tb;writing-mode:lr-tb;text-anchor:start;baseline-shift:baseline;color:#000000;fill:#2e3436;fill-opacity:1;stroke:none;stroke-width:7.8732338;marker:none;visibility:visible;display:inline;overflow:visible;enable-background:accumulate;font-family:Sans;-inkscape-font-specification:Sans"
             d="m -506.40375,591.20747 c -1.5845,3.37364 -5.22243,5.24809 -8.89121,4.59066 l -0.75089,4.23228 c 5.56386,0.99702 11.1301,-1.88063 13.53307,-6.99692 l -3.89097,-1.82602 z"
             id="path7594"
             inkscape:connector-curvature="0" />
          <path
             style="font-size:medium;font-style:normal;font-variant:normal;font-weight:normal;font-stretch:normal;text-indent:0;text-align:start;text-decoration:none;line-height:normal;letter-spacing:normal;word-spacing:normal;text-transform:none;direction:ltr;block-progression:tb;writing-mode:lr-tb;text-anchor:start;baseline-shift:baseline;color:#000000;fill:#2e3436;fill-opacity:1;stroke:none;stroke-width:7.8732338;marker:none;visibility:visible;display:inline;overflow:visible;enable-background:accumulate;font-family:Sans;-inkscape-font-specification:Sans"
             d="m -526.3535,587.65781 c -0.0193,4.61615 2.52354,8.88592 6.58734,11.07561 l 2.03081,-3.78857 c -2.67314,-1.44037 -4.33029,-4.21643 -4.31761,-7.25291 l -4.30054,-0.0341 z"
             id="path7596"
             inkscape:connector-curvature="0" />
        </g>
      </g>
    </g>
  </g>
  <g
     inkscape:groupmode="layer"
     id="layer11"
     inkscape:label="10 - Spline Point"
     style="display:inline"
     transform="translate(-360.04724,-514.18109)">
    <g
       style="display:inline"
       id="g7802"
       transform="translate(553.63645,13.009338)">
      <rect
         y="540.17175"
         x="-115.58918"
         height="24"
         width="24"
         id="rect7800"
         style="fill:none;stroke:none" />
      <g
         transform="translate(-34.943963,-56.024177)"
         id="g7796">
        <path
           style="font-size:medium;font-style:normal;font-variant:normal;font-weight:normal;font-stretch:normal;text-indent:0;text-align:start;text-decoration:none;line-height:normal;letter-spacing:normal;word-spacing:normal;text-transform:none;direction:ltr;block-progression:tb;writing-mode:lr-tb;text-anchor:start;baseline-shift:baseline;color:#000000;fill:#2e3436;fill-opacity:1;stroke:none;stroke-width:4;marker:none;visibility:visible;display:inline;overflow:visible;enable-background:accumulate;font-family:Sans;-inkscape-font-specification:Sans"
           d="m 82.28125,39.1875 -4,0.09375 c 0.05109,2.384056 1.138989,6.463204 4.3125,9.75 -0.318835,0.859517 -0.5,1.783154 -0.5,2.75 0,4.387 3.581755,7.96875 7.96875,7.96875 2.104623,0 4.008152,-0.843427 5.4375,-2.1875 1.371367,1.728637 2.226625,3.630033 2.25,5.15625 l 4,-0.0625 c -0.0484,-3.158419 -1.63555,-6.268416 -4,-8.75 0.191838,-0.682815 0.28125,-1.383079 0.28125,-2.125 0,-4.38699 -3.581756,-8 -7.96875,-8 -1.976041,0 -3.790136,0.736035 -5.1875,1.9375 -2.103383,-2.457739 -2.566217,-5.246493 -2.59375,-6.53125 z"
           transform="translate(-158.64525,557.19593)"
           id="path7794"
           inkscape:connector-curvature="0" />
        <path
           inkscape:connector-curvature="0"
           id="path4588"
           d="m -68.588439,604.33225 c 2.580048,0 4.635772,2.05573 4.635772,4.63577 0,2.58006 -2.055724,4.63578 -4.635772,4.63578 -2.580062,0 -4.635773,-2.05571 -4.635773,-4.63578 0,-2.58004 2.055717,-4.63577 4.635773,-4.63577 z"
           style="font-size:medium;font-style:normal;font-variant:normal;font-weight:normal;font-stretch:normal;text-indent:0;text-align:start;text-decoration:none;line-height:normal;letter-spacing:normal;word-spacing:normal;text-transform:none;direction:ltr;block-progression:tb;writing-mode:lr-tb;text-anchor:start;baseline-shift:baseline;color:#000000;fill:#ef2929;fill-opacity:1;fill-rule:nonzero;stroke:none;stroke-width:5.00354242;marker:none;visibility:visible;display:inline;overflow:visible;enable-background:accumulate;font-family:Sans;-inkscape-font-specification:Sans"
           sodipodi:nodetypes="sssss" />
      </g>
    </g>
  </g>
  <g
     inkscape:groupmode="layer"
     id="layer12"
     inkscape:label="11 - Time"
     style="display:inline"
     transform="translate(-360.04724,-514.18109)">
    <g
       style="display:inline"
       id="g7836"
       transform="translate(-127.05722,-32.348511)">
      <rect
         y="585.5296"
         x="604.10449"
         height="24"
         width="24"
         id="rect7829"
         style="fill:none;stroke:none" />
      <g
         transform="translate(69.053813,-3.2207656)"
         id="g7831">
        <path
           sodipodi:type="arc"
           style="fill:#c4a000;stroke:none"
           id="path7825"
           sodipodi:cx="-135.03223"
           sodipodi:cy="339.97729"
           sodipodi:rx="21.307367"
           sodipodi:ry="21.307367"
           d="m -113.72486,339.97729 c 0,11.76774 -9.53963,21.30737 -21.30737,21.30737 -11.76773,0 -21.30736,-9.53963 -21.30736,-21.30737 0,-11.76773 9.53963,-21.30736 21.30736,-21.30736 11.76774,0 21.30737,9.53963 21.30737,21.30736 z"
           transform="matrix(0.47321233,0,0,0.47321233,610.94959,439.86892)" />
        <path
           style="fill:none;stroke:#2e3436;stroke-width:3;stroke-linecap:round;stroke-linejoin:round;stroke-opacity:1"
           d="m 547.07307,594.97705 -0.0589,5.69754 -2.49793,2.91686"
           id="path7827"
           inkscape:connector-curvature="0"
           sodipodi:nodetypes="ccc" />
        <path
           style="font-size:medium;font-style:normal;font-variant:normal;font-weight:normal;font-stretch:normal;text-indent:0;text-align:start;text-decoration:none;line-height:normal;letter-spacing:normal;word-spacing:normal;text-transform:none;direction:ltr;block-progression:tb;writing-mode:lr-tb;text-anchor:start;baseline-shift:baseline;color:#000000;fill:#2e3436;fill-opacity:1;fill-rule:nonzero;stroke:none;stroke-width:7.39625692;marker:none;visibility:visible;display:inline;overflow:visible;enable-background:accumulate;font-family:Sans;-inkscape-font-specification:Sans"
           d="m 547.05114,588.91602 c -6.51441,0 -11.83031,5.3159 -11.83031,11.8303 0,6.51441 5.3159,11.83031 11.83031,11.83031 6.5144,0 11.83031,-5.3159 11.83031,-11.83031 0,-6.5144 -5.31591,-11.8303 -11.83031,-11.8303 z m 0,3.50472 c 4.62287,0 8.32558,3.70272 8.32558,8.32558 0,4.62287 -3.70271,8.34037 -8.32558,8.34037 -4.62287,0 -8.34037,-3.7175 -8.34037,-8.34037 0,-4.62286 3.7175,-8.32558 8.34037,-8.32558 z"
           id="path17558"
           inkscape:connector-curvature="0" />
      </g>
    </g>
  </g>
  <g
     inkscape:groupmode="layer"
     id="layer14"
     inkscape:label="12 - Vector"
     style="display:inline"
     transform="translate(-360.04724,-514.18109)">
    <g
       style="display:inline"
       transform="translate(-88.057213,-32.348511)"
       id="g7921">
      <rect
         style="fill:none;stroke:none"
         id="rect7923"
         width="24"
         height="24"
         x="604.10449"
         y="585.5296" />
      <g
         id="g7925"
         transform="translate(69.053813,-3.2207656)">
        <path
           transform="matrix(0.47321233,0,0,0.47321233,610.94959,439.86892)"
           d="m -113.72486,339.97729 c 0,11.76774 -9.53963,21.30737 -21.30737,21.30737 -11.76773,0 -21.30736,-9.53963 -21.30736,-21.30737 0,-11.76773 9.53963,-21.30736 21.30736,-21.30736 11.76774,0 21.30737,9.53963 21.30737,21.30736 z"
           sodipodi:ry="21.307367"
           sodipodi:rx="21.307367"
           sodipodi:cy="339.97729"
           sodipodi:cx="-135.03223"
           id="path7927"
           style="fill:#4e9a06;stroke:none"
           sodipodi:type="arc" />
        <path
           style="font-size:medium;font-style:normal;font-variant:normal;font-weight:normal;font-stretch:normal;text-indent:0;text-align:start;text-decoration:none;line-height:normal;letter-spacing:normal;word-spacing:normal;text-transform:none;direction:ltr;block-progression:tb;writing-mode:lr-tb;text-anchor:start;baseline-shift:baseline;color:#000000;fill:#2e3436;fill-opacity:1;fill-rule:nonzero;stroke:none;stroke-width:7.39625692;marker:none;visibility:visible;display:inline;overflow:visible;enable-background:accumulate;font-family:Sans;-inkscape-font-specification:Sans"
           d="m 547.05114,588.91602 c -6.51441,0 -11.83031,5.3159 -11.83031,11.8303 0,6.51441 5.3159,11.83031 11.83031,11.83031 6.5144,0 11.83031,-5.3159 11.83031,-11.83031 0,-6.5144 -5.31591,-11.8303 -11.83031,-11.8303 z m 0,3.50472 c 4.62287,0 8.32558,3.70272 8.32558,8.32558 0,4.62287 -3.70271,8.34037 -8.32558,8.34037 -4.62287,0 -8.34037,-3.7175 -8.34037,-8.34037 0,-4.62286 3.7175,-8.32558 8.34037,-8.32558 z"
           id="path17564"
           inkscape:connector-curvature="0" />
      </g>
    </g>
  </g>
  <g
     inkscape:groupmode="layer"
     id="layer13"
     inkscape:label="13 - String"
     style="display:inline"
     transform="translate(-360.04724,-514.18109)">
    <g
       style="display:inline"
       id="g8010"
       transform="translate(13.344829,-98.287659)">
      <rect
         y="651.46875"
         x="541.70245"
         height="24"
         width="24"
         id="rect8008"
         style="fill:none;stroke:none" />
      <g
         transform="matrix(0.27272726,0,0,0.27272726,393.96541,491.25001)"
         id="g8004">
        <g
           id="g8023"
           transform="matrix(0.94596677,0,0,0.94596677,33.381761,32.386019)">
          <path
             sodipodi:nodetypes="zssssscccz"
             inkscape:connector-curvature="0"
             id="rect7993"
             d="m 542.54791,670.00776 c 1.32411,4.82051 2.17209,5.46099 4.88156,5.46099 l 28.88702,0 c 2.70947,0 4.88156,-2.42991 4.88156,-5.46099 l 0,-24.51442 c 0,-3.03108 -2.17209,-5.46099 -4.88156,-5.46099 l -16.65631,0 c -3.76933,-29.81272 7.57535,-40.47149 14.50663,-46.83202 0.54199,-0.63621 0.0285,-2.32175 -1.04572,-2.03166 -36.00933,8.3701 -31.89729,74.01859 -30.57318,78.83909 z"
             style="fill:#2e3436;stroke:none" />
          <path
             style="fill:#2e3436;stroke:none"
             d="m 587.38562,670.00776 c 1.32411,4.82051 2.17209,5.46099 4.88155,5.46099 l 28.88704,0 c 2.70946,0 4.88155,-2.42991 4.88155,-5.46099 l 0,-24.51442 c 0,-3.03108 -2.17209,-5.46099 -4.88155,-5.46099 l -16.65632,0 c -3.76933,-29.81272 7.57534,-40.47149 14.50662,-46.83202 0.542,-0.63621 0.0285,-2.32175 -1.0457,-2.03166 -36.00933,8.3701 -31.8973,74.01859 -30.57319,78.83909 z"
             id="path8002"
             inkscape:connector-curvature="0"
             sodipodi:nodetypes="zssssscccz" />
        </g>
      </g>
    </g>
  </g>
</svg>
