<?xml version="1.0" encoding="UTF-8" standalone="no"?>
<!-- Created with Inkscape (http://www.inkscape.org/) -->

<svg
   xmlns:dc="http://purl.org/dc/elements/1.1/"
   xmlns:cc="http://creativecommons.org/ns#"
   xmlns:rdf="http://www.w3.org/1999/02/22-rdf-syntax-ns#"
   xmlns:svg="http://www.w3.org/2000/svg"
   xmlns="http://www.w3.org/2000/svg"
   xmlns:xlink="http://www.w3.org/1999/xlink"
   xmlns:sodipodi="http://sodipodi.sourceforge.net/DTD/sodipodi-0.dtd"
   xmlns:inkscape="http://www.inkscape.org/namespaces/inkscape"
   width="24"
   height="24.00226"
   id="svg6382"
   version="1.1"
   inkscape:version="0.48.4 r9939"
   sodipodi:docname="fis_panels.svg">
  <defs
     id="defs6384">
    <linearGradient
       inkscape:collect="always"
       xlink:href="#linearGradient3808"
       id="linearGradient6632"
       gradientUnits="userSpaceOnUse"
       x1="561.21222"
       y1="370.82083"
       x2="576.01996"
       y2="370.82083" />
    <linearGradient
       id="linearGradient3808">
      <stop
         style="stop-color:#8ae234;stop-opacity:1;"
         offset="0"
         id="stop3810" />
      <stop
         style="stop-color:#40bbbb;stop-opacity:1;"
         offset="1"
         id="stop3812" />
    </linearGradient>
    <linearGradient
       inkscape:collect="always"
       xlink:href="#linearGradient3808"
       id="linearGradient7278"
       gradientUnits="userSpaceOnUse"
       x1="561.21222"
       y1="370.82083"
       x2="576.01996"
       y2="370.82083" />
  </defs>
  <sodipodi:namedview
     id="base"
     pagecolor="#ffffff"
     bordercolor="#666666"
     borderopacity="1.0"
     inkscape:pageopacity="0.0"
     inkscape:pageshadow="2"
     inkscape:zoom="4.3191487"
     inkscape:cx="70.551679"
     inkscape:cy="-46.498866"
     inkscape:document-units="px"
     inkscape:current-layer="layer15"
     showgrid="false"
     fit-margin-top="0"
     fit-margin-left="0"
     fit-margin-right="0"
     fit-margin-bottom="0"
     inkscape:window-width="1440"
     inkscape:window-height="834"
     inkscape:window-x="0"
     inkscape:window-y="27"
     inkscape:window-maximized="1" />
  <metadata
     id="metadata6387">
    <rdf:RDF>
      <cc:Work
         rdf:about="">
        <dc:format>image/svg+xml</dc:format>
        <dc:type
           rdf:resource="http://purl.org/dc/dcmitype/StillImage" />
        <dc:title></dc:title>
      </cc:Work>
    </rdf:RDF>
  </metadata>
  <g
     inkscape:groupmode="layer"
     id="layer2"
     inkscape:label="Panels"
     style="display:inline"
     transform="translate(-331.7705,-704.16111)">
    <g
       inkscape:groupmode="layer"
       id="layer3"
       inkscape:label="timetrack"
       style="display:inline">
      <g
         style="display:inline"
         transform="translate(-96.779458,386.71912)"
         id="g3791">
        <rect
           style="fill:none;stroke:none;display:inline"
           id="rect3793"
           width="24"
           height="24"
           x="545.72223"
           y="356.44312"
           ry="0" />
        <g
           id="g3816"
           transform="translate(-12.653207,0.21010476)">
          <path
             sodipodi:nodetypes="cczzcc"
             inkscape:connector-curvature="0"
             id="path3803"
             d="m 569.95291,356.75067 c -6.40029,0.008 -11.58145,5.16024 -11.57286,11.50963 0.008,6.34939 2.7618,11.7761 11.60449,11.80916 8.84269,0.0331 11.21212,-8.03027 11.80914,-11.84079 0.59702,-3.81052 0.46451,-7.9254 0.43867,-11.50096 z"
             style="fill:#2e3436;stroke:none" />
          <path
             style="font-size:medium;font-style:normal;font-variant:normal;font-weight:normal;font-stretch:normal;text-indent:0;text-align:start;text-decoration:none;line-height:normal;letter-spacing:normal;word-spacing:normal;text-transform:none;direction:ltr;block-progression:tb;writing-mode:lr-tb;text-anchor:start;baseline-shift:baseline;color:#000000;fill:url(#linearGradient7278);fill-opacity:1;stroke:none;stroke-width:1;marker:none;visibility:visible;display:inline;overflow:visible;enable-background:accumulate;font-family:Sans;-inkscape-font-specification:Sans"
             d="m 571.00535,359.18419 0.10099,0 9.65803,0 c -0.27666,5.39338 -1.44333,10.24103 -3.1765,13.68873 -1.97743,3.93359 -4.38984,5.77422 -6.48153,5.77422 -5.43384,0 -9.80492,-4.33097 -9.80492,-9.73603 0,-5.37065 4.31831,-9.67227 9.70393,-9.72692 z"
             id="path3795"
             inkscape:connector-curvature="0"
             sodipodi:nodetypes="cccsssc" />
          <path
             sodipodi:nodetypes="cscc"
             inkscape:connector-curvature="0"
             id="path3797"
             d="m 571.10634,378.64714 c -5.43384,0 -9.80492,-4.33097 -9.80492,-9.73603 0,-5.37065 4.31831,-9.67227 9.70393,-9.72692 l 0.10099,0"
             style="font-size:medium;font-style:normal;font-variant:normal;font-weight:normal;font-stretch:normal;text-indent:0;text-align:start;text-decoration:none;line-height:normal;letter-spacing:normal;word-spacing:normal;text-transform:none;direction:ltr;block-progression:tb;writing-mode:lr-tb;text-anchor:start;baseline-shift:baseline;color:#000000;fill:none;stroke:none;stroke-width:1;marker:none;visibility:visible;display:inline;overflow:visible;enable-background:accumulate;font-family:Sans;-inkscape-font-specification:Sans" />
          <path
             style="fill:#2e3436;fill-rule:evenodd;stroke:none"
             d="m 573.55827,362.98699 c -0.13636,0.0603 -0.29512,0.13624 -0.40395,0.25134 l -1.9814,2.16506 c -0.67801,-0.2891 -1.43519,-0.39245 -2.19161,-0.1652 -0.88368,0.2655 -1.55317,0.90151 -1.93848,1.66615 l -1.30259,0.0615 c -0.87471,0.028 -1.55429,0.71785 -1.52609,1.58559 0.0282,0.86773 0.76361,1.52989 1.63831,1.50187 l 1.31472,-0.0218 c 0.75412,1.20857 2.26148,1.79149 3.69292,1.36143 1.70486,-0.51222 2.66501,-2.29223 2.14872,-3.9835 -0.0484,-0.15878 -0.11516,-0.31913 -0.18541,-0.4645 l 2.03357,-2.1373 c 0.43529,-0.4606 0.40395,-1.19738 -0.0603,-1.62917 -0.34822,-0.32387 -0.82922,-0.37211 -1.2383,-0.19151 z"
             id="path3799"
             inkscape:connector-curvature="0"
             inkscape:transform-center-y="-1.2042044"
             sodipodi:nodetypes="cccsccsccssccscc"
             inkscape:transform-center-x="0.32999614" />
          <path
             sodipodi:type="arc"
             style="fill:#eeeeec;stroke:none"
             id="path3801"
             sodipodi:cx="591.97955"
             sodipodi:cy="357.76077"
             sodipodi:rx="1.1866921"
             sodipodi:ry="0.73341602"
             d="m 593.16625,357.76077 c 0,0.40506 -0.5313,0.73342 -1.1867,0.73342 -0.65539,0 -1.18669,-0.32836 -1.18669,-0.73342 0,-0.40505 0.5313,-0.73341 1.18669,-0.73341 0.6554,0 1.1867,0.32836 1.1867,0.73341 z"
             transform="matrix(1.3338219,-0.00180719,0.00290082,2.1410007,-220.65229,-396.66468)" />
        </g>
      </g>
    </g>
    <g
       inkscape:groupmode="layer"
       id="layer4"
       inkscape:label="canvas"
       style="display:inline">
      <g
         style="display:inline"
         transform="matrix(0.99936249,0,0,1,-200.25029,395.44951)"
         id="g6435">
        <g
           id="g6437">
          <g
             mask="none"
             clip-path="none"
             id="g6439">
            <g
               id="g6441"
               transform="translate(-2.2082474,7.7636119)" />
            <g
               transform="translate(-39.406223,-51.388681)"
               id="g6443">
              <rect
                 y="360.10141"
                 x="610.8396"
                 height="24"
                 width="24"
                 id="rect6445"
                 style="fill:none;stroke:none" />
              <g
                 style="display:inline"
                 id="g6447"
                 transform="translate(33.67809,10.44708)">
                <path
                   sodipodi:nodetypes="ccccccc"
                   inkscape:connector-curvature="0"
                   style="fill:#4e9a06;stroke:none"
                   mask="none"
                   clip-path="none"
                   d="m -46.34375,582.84375 0,19.5625 16.21875,0 0,-8.90625 7.78125,0 0,-10.65625 z"
                   transform="translate(623.49141,-230.98016)"
                   id="path3109" />
                <path
                   id="path6449"
                   transform="translate(623.49141,-230.98016)"
                   d="m -43.40625,584.25 3.90625,0 0,2.34375 -3.90625,0 z m 9.066838,-0.32534 c 0.827682,0 1.477251,0.6895 1.477251,1.51718 0,0.82768 -0.649569,1.47725 -1.477251,1.47725 -0.827682,0 -1.517177,-0.64957 -1.517177,-1.47725 0,-0.82768 0.689495,-1.51718 1.517177,-1.51718 z m 5.120662,0.32534 3.9375,0 0,2.34375 -3.9375,0 z"
                   clip-path="none"
                   mask="none"
                   style="fill:#ffffff;stroke:none"
                   inkscape:connector-curvature="0"
                   sodipodi:nodetypes="cccccsssssccccc" />
                <g
                   mask="none"
                   clip-path="none"
                   transform="matrix(1,0,0,0.92587745,27.917889,31.377246)"
                   id="g6451" />
                <path
                   sodipodi:nodetypes="cccc"
                   inkscape:connector-curvature="0"
                   id="path6459"
                   d="m 594.22289,363.49318 6.94008,0 -6.94008,7.94449 z"
                   style="fill:#4e9a06;fill-rule:evenodd;stroke:none" />
              </g>
            </g>
          </g>
        </g>
      </g>
    </g>
    <g
       inkscape:groupmode="layer"
       id="layer5"
       inkscape:label="graph"
       style="display:inline">
      <g
         style="display:inline"
         id="g8486"
         transform="translate(-228.81745,430.08401)">
        <g
           id="g8493"
           transform="translate(-5.8244629,-0.3774305)">
          <g
             transform="matrix(1.0420658,0,0,1.0420658,25.0571,-682.52639)"
             id="g3835"
             style="fill:#555753;display:inline" />
          <g
             id="g6493"
             transform="translate(-3.1577835,-0.62744515)">
            <rect
               y="275.0831"
               x="569.50128"
               height="24"
               width="24"
               id="rect8106"
               style="fill:none;stroke:none;display:inline" />
            <g
               transform="matrix(1.0420658,0,0,1.0420658,25.193263,-682.54943)"
               id="g6486"
               style="fill:#555753;display:inline">
              <path
                 inkscape:connector-curvature="0"
                 style="font-size:medium;font-style:normal;font-variant:normal;font-weight:normal;font-stretch:normal;text-indent:0;text-align:start;text-decoration:none;line-height:normal;letter-spacing:normal;word-spacing:normal;text-transform:none;direction:ltr;block-progression:tb;writing-mode:lr-tb;text-anchor:start;baseline-shift:baseline;color:#000000;fill:#a40000;fill-opacity:1;stroke:none;stroke-width:1.85651338;marker:none;visibility:visible;display:inline;overflow:visible;enable-background:accumulate;font-family:Sans;-inkscape-font-specification:Sans"
                 d="m 99.537005,435.60752 0,-15.54502 1.156255,0 -2.093755,-3.3125 -2.09375,3.3125 1.125,0 0,15.54502 z"
                 transform="matrix(0.9596323,0,0,0.9596323,430.54688,519.9088)"
                 id="path3484"
                 sodipodi:nodetypes="cccccccc" />
              <path
                 style="font-size:medium;font-style:normal;font-variant:normal;font-weight:normal;font-stretch:normal;text-indent:0;text-align:start;text-decoration:none;line-height:normal;letter-spacing:normal;word-spacing:normal;text-transform:none;direction:ltr;block-progression:tb;writing-mode:lr-tb;text-anchor:start;baseline-shift:baseline;color:#000000;fill:#5c3566;fill-opacity:1;stroke:none;stroke-width:3.71302676;marker:none;visibility:visible;display:inline;overflow:visible;enable-background:accumulate;font-family:Sans;-inkscape-font-specification:Sans"
                 d="m 544.67093,919.73432 c -2.15389,-0.0279 -3.93449,1.96805 -4.5456,3.42193 -0.61111,1.45388 -0.87,3.02083 -1.15757,4.5 -0.28756,1.47917 -0.59771,2.86644 -0.98733,3.65625 -0.38962,0.78981 -0.44443,0.82757 -0.8852,0.84375 -1.7631,0.0647 -2.57033,-0.71244 -3.8472,-1.96875 -0.63844,-0.62815 -1.29649,-1.34981 -2.213,-2 -0.9165,-0.65019 -2.21438,-1.22515 -3.67697,-1.15625 -2.46688,0.11621 -3.78581,1.1703 -4.79169,2.21891 l 0.008,4.40764 1.43043,0.061 c 0,0 0.30246,-0.77413 0.91925,-1.5625 0.61678,-0.78837 1.58829,-1.36569 2.60471,-1.40625 0.36525,-0.0146 0.56569,0.0517 1.02138,0.375 0.4557,0.32328 1.03435,0.90306 1.73635,1.59375 1.40399,1.38137 3.64225,3.24752 6.97944,3.125 2.10937,-0.0774 3.68016,-1.55712 4.39194,-3 0.71179,-1.44288 1.00133,-3.02711 1.29375,-4.53125 0.29243,-1.50414 0.57851,-2.92086 0.95329,-3.8125 0.37478,-0.89164 0.53264,-0.96552 0.78306,-1 z"
                 id="path3446-8"
                 inkscape:connector-curvature="0"
                 sodipodi:nodetypes="cssscssscccsccscssscc" />
              <path
                 id="path6478"
                 transform="matrix(0.9596323,0,0,0.9596323,430.54688,519.9088)"
                 d="m 97.5625,436.52499 0,1.9375 18.9375,0 0,1 3.21875,-2.03125 -3.21875,-2.03125 0,1.125 z"
                 style="font-size:medium;font-style:normal;font-variant:normal;font-weight:normal;font-stretch:normal;text-indent:0;text-align:start;text-decoration:none;line-height:normal;letter-spacing:normal;word-spacing:normal;text-transform:none;direction:ltr;block-progression:tb;writing-mode:lr-tb;text-anchor:start;baseline-shift:baseline;color:#000000;fill:#204a87;fill-opacity:1;stroke:none;stroke-width:1.85651338;marker:none;visibility:visible;display:inline;overflow:visible;enable-background:accumulate;font-family:Sans;-inkscape-font-specification:Sans"
                 inkscape:connector-curvature="0"
                 sodipodi:nodetypes="cccccccc" />
            </g>
          </g>
        </g>
      </g>
    </g>
    <g
       inkscape:groupmode="layer"
       id="layer6"
       inkscape:label="parameter"
       style="display:inline">
      <g
         style="display:inline"
         id="g4614"
         transform="translate(171.26744,-66.971614)">
        <rect
           y="810.13385"
           x="160.4686"
           height="24"
           width="24"
           id="rect4612"
           style="fill:none;stroke:none" />
        <g
           transform="matrix(0.20968218,0,0,0.20968218,77.631972,647.66306)"
           id="g4592">
          <path
             style="fill:none;stroke:#2e3436;stroke-width:9.5382452"
             d="m 414.10454,785.4696 76.36591,0 c 5.8668,0 10.58988,5.15331 10.58988,11.55451 l 0,70.09691 c 0,6.4012 -4.72308,11.55451 -10.58988,11.55451 l -76.36591,0 c -5.86681,0 -10.5899,-5.15331 -10.5899,-11.55451 l 0,-70.09691 c 0,-6.4012 4.72309,-11.55451 10.5899,-11.55451 z"
             id="rect4546"
             inkscape:connector-curvature="0" />
          <g
             id="g4582"
             transform="translate(1.2952101e-5,0.05661858)">
            <g
               transform="translate(0,8.6657781)"
               id="g4568">
              <path
                 style="fill:#2e3436;fill-rule:evenodd;stroke:none"
                 d="m 414.20372,798.45646 0,12.81702 c 25.37675,0 50.75346,0 76.13022,0 l 0,-12.81702 c -25.37676,0 -50.75347,0 -76.13022,0 z"
                 id="rect4548"
                 inkscape:connector-curvature="0"
                 sodipodi:nodetypes="ccccc" />
              <path
                 style="fill:#2e3436;fill-opacity:1;stroke:#eeeeec;stroke-width:4.7691226"
                 d="m 478.79716,805.30197 c 0,8.38477 -6.79719,15.18196 -15.18196,15.18196 -8.38475,0 -15.18194,-6.79719 -15.18194,-15.18196 0,-8.38476 6.79719,-15.18194 15.18194,-15.18194 8.38477,0 15.18196,6.79718 15.18196,15.18194 z"
                 id="path4554"
                 inkscape:connector-curvature="0"
                 sodipodi:nodetypes="sssss" />
            </g>
            <g
               transform="translate(0,5.99878)"
               id="g4564" />
            <g
               id="g4847"
               transform="translate(0,46.003751)">
              <path
                 sodipodi:nodetypes="ccccc"
                 inkscape:connector-curvature="0"
                 id="path4849"
                 d="m 414.20372,798.45646 0,12.81702 c 25.37675,0 50.75346,0 76.13022,0 l 0,-12.81702 c -25.37676,0 -50.75347,0 -76.13022,0 z"
                 style="fill:#2e3436;fill-rule:evenodd;stroke:none" />
              <path
                 sodipodi:nodetypes="sssss"
                 inkscape:connector-curvature="0"
                 id="path4851"
                 d="m 457.01668,805.30197 c 0,8.38477 -6.79719,15.18196 -15.18196,15.18196 -8.38475,0 -15.18194,-6.79719 -15.18194,-15.18196 0,-8.38476 6.79719,-15.18194 15.18194,-15.18194 8.38477,0 15.18196,6.79718 15.18196,15.18194 z"
                 style="fill:#2e3436;fill-opacity:1;stroke:#eeeeec;stroke-width:4.7691226" />
            </g>
          </g>
        </g>
      </g>
    </g>
    <g
       inkscape:groupmode="layer"
       id="layer7"
       inkscape:label="navigator"
       style="display:inline">
      <g
         style="display:inline"
         id="g5145"
         transform="translate(513.41649,186.64374)">
        <rect
           y="595.51849"
           x="-181.68045"
           height="24"
           width="24"
           id="rect5136"
           style="fill:none;stroke:none" />
        <g
           transform="matrix(0.20220365,0,0,0.20220365,-136.30099,495.28573)"
           id="g5138">
          <path
             style="font-size:medium;font-style:normal;font-variant:normal;font-weight:normal;font-stretch:normal;text-indent:0;text-align:start;text-decoration:none;line-height:normal;letter-spacing:normal;word-spacing:normal;text-transform:none;direction:ltr;block-progression:tb;writing-mode:lr-tb;text-anchor:start;baseline-shift:baseline;color:#000000;fill:#2e3436;fill-opacity:1;fill-rule:nonzero;stroke:none;stroke-width:9.89101791;marker:none;visibility:visible;display:inline;overflow:visible;enable-background:accumulate;font-family:Sans;-inkscape-font-specification:Sans"
             d="m 161.84375,331.625 c -6.58875,0 -11.96875,5.34813 -11.96875,11.9375 0,6.58937 5.37938,11.9375 11.96875,11.9375 6.58937,0 11.9375,-5.34875 11.9375,-11.9375 0,-6.58876 -5.34874,-11.9375 -11.9375,-11.9375 z m 0,3.5 c 4.64965,0 8.40625,3.78785 8.40625,8.4375 0,4.64965 -3.75616,8.4375 -8.40625,8.4375 -4.65008,0 -8.4375,-3.78742 -8.4375,-8.4375 0,-4.65009 3.78785,-8.4375 8.4375,-8.4375 z"
             transform="matrix(4.9455091,0,0,4.9455091,-965.42026,-1144.0524)"
             id="path5680"
             inkscape:connector-curvature="0" />
          <g
             id="g5127"
             transform="matrix(0.80713802,-0.39274806,0.39274806,0.80713802,-249.83622,42.214496)">
            <path
               sodipodi:nodetypes="cccc"
               inkscape:connector-curvature="0"
               id="rect4300"
               d="m -165.0811,536.31763 44.78043,18.74139 -44.78043,18.74138 z"
               style="fill:#cc0000;fill-rule:evenodd;stroke:none" />
            <path
               style="fill:#204a87;fill-rule:evenodd;stroke:none"
               d="m -165.0811,536.31763 0,37.48277 -44.78043,-18.74138 z"
               id="path5125"
               inkscape:connector-curvature="0"
               sodipodi:nodetypes="cccc" />
            <path
               transform="matrix(11.770224,0,0,11.770224,1764.1063,-5974.6464)"
               d="m -163.31553,554.76477 c 0,0.32503 -0.26349,0.58852 -0.58852,0.58852 -0.32504,0 -0.58853,-0.26349 -0.58853,-0.58852 0,-0.32503 0.26349,-0.58852 0.58853,-0.58852 0.32503,0 0.58852,0.26349 0.58852,0.58852 z"
               sodipodi:ry="0.5885244"
               sodipodi:rx="0.5885244"
               sodipodi:cy="554.76477"
               sodipodi:cx="-163.90405"
               id="path4307"
               style="fill:#d3d7cf;stroke:none"
               sodipodi:type="arc" />
          </g>
        </g>
      </g>
    </g>
    <g
       inkscape:groupmode="layer"
       id="layer8"
       inkscape:label="layer"
       style="display:inline">
      <g
         style="display:inline"
         id="g5657"
         transform="matrix(0.98324133,0,0,1.0509568,642.79494,197.83115)">
        <rect
           y="481.78107"
           x="-197.03809"
           height="22.836334"
           width="24.290899"
           id="rect5608"
           style="fill:none;stroke:none" />
        <g
           id="g5652"
           style="fill:#555753">
          <path
             style="fill:#3465a4;fill-rule:evenodd;stroke:none"
             d="m -174.21875,491.625 -0.25,0.46875 -3.4375,6.28125 -0.25,0.5 -0.59375,0 -16.03125,0 -0.53125,0 -1.84375,3.40625 18.40625,0 5.78125,-10.65625 -1.25,0 z"
             id="rect5581"
             inkscape:connector-curvature="0" />
          <path
             style="fill:#3465a4;fill-rule:evenodd;stroke:none"
             d="m -174.25,487.28125 -0.25,0.46875 -3.40625,6.25 -0.25,0.53125 -0.59375,0 -16.03125,0 -0.53125,0 -1.84375,3.375 18.40625,0 5.78125,-10.625 -1.28125,0 z"
             id="rect5592"
             inkscape:connector-curvature="0" />
          <path
             transform="matrix(1,0,-0.47672063,0.87905486,0,0)"
             style="fill:#3465a4;fill-rule:evenodd;stroke:none"
             d="m 70.514427,549.35535 18.405365,0 0,12.10714 -18.405365,0 z"
             id="rect5594"
             inkscape:connector-curvature="0" />
        </g>
      </g>
    </g>
    <g
       inkscape:groupmode="layer"
       id="layer9"
       inkscape:label="color palette"
       style="display:inline">
      <g
         style="display:inline"
         id="g5447"
         transform="matrix(0.99951259,0,0,0.9999058,657.91876,261.24796)">
        <rect
           y="559.96704"
           x="-326.34177"
           height="24"
           width="24"
           id="rect5445"
           style="fill:none;stroke:none" />
        <g
           transform="matrix(0.19686601,0,0,0.19581608,-276.55233,458.13684)"
           id="g5427">
          <g
             id="g5361"
             transform="matrix(1.0492807,0,0,1,11.97488,0)">
            <path
               style="fill:#babdb6;fill-rule:evenodd;stroke:none"
               d="m 195.0625,279.5 -5.78125,5.1875 -0.875,0.78125 -1.125,1 c -0.4062,0.36508 -0.89438,0.57949 -1.40625,0.65625 l 1,0 15.8125,0 c 0.63846,0 1.15625,-1.07473 1.15625,-2.40625 l 0,-2.8125 c 0,-1.33152 -0.51779,-2.40625 -1.15625,-2.40625 z"
               transform="matrix(4.8410278,0,0,5.1068329,-1123.0165,-823.6941)"
               id="rect5328"
               inkscape:connector-curvature="0"
               sodipodi:nodetypes="ccccccssssc" />
            <path
               style="fill:#ad7fa8;fill-rule:evenodd;stroke:none"
               d="m -171.4567,603.70038 24.67987,0 0,38.88202 -24.67987,0 z"
               id="rect5330"
               inkscape:connector-curvature="0" />
            <path
               style="fill:#75507b;fill-rule:evenodd;stroke:none"
               d="m 194.28125,280.1875 -5,4.5 -0.0937,0.0937 0,2.34375 5.09375,0 z"
               transform="matrix(4.8410278,0,0,5.1068329,-1123.0165,-823.6941)"
               id="rect5332"
               inkscape:connector-curvature="0"
               sodipodi:nodetypes="cccccc" />
          </g>
          <g
             transform="matrix(0.77852902,-0.70347889,0.67043918,0.7419645,-469.21557,-3.9688788)"
             id="g5407"
             inkscape:transform-center-x="-36.191172"
             inkscape:transform-center-y="-32.821045">
            <path
               style="fill:#babdb6;fill-rule:evenodd;stroke:none"
               d="m 195.65625,267.59375 c -0.18408,0.002 -0.35032,0.0498 -0.46875,0.15625 l -5.78125,5.21875 -0.6875,7.53125 -0.125,1.15625 -0.125,1.5 c -0.048,0.52797 -0.2529,1.01108 -0.5625,1.40625 l 0.6875,-0.625 11.71875,-10.53125 c 0.47371,-0.42576 0.14749,-1.54331 -0.75,-2.53125 l -1.90625,-2.09375 c -0.67312,-0.74095 -1.44777,-1.19285 -2,-1.1875 z"
               transform="matrix(3.5918707,3.4055608,-3.2630171,3.7890887,30.784142,-1075.6165)"
               id="path5409"
               inkscape:connector-curvature="0"
               sodipodi:nodetypes="cccccccccccc" />
            <path
               style="fill:#729fcf;fill-rule:evenodd;stroke:none"
               d="m -171.4567,603.70038 24.67987,0 0,38.88202 -24.67987,0 z"
               id="rect5411"
               inkscape:connector-curvature="0" />
            <path
               style="fill:#3465a4;fill-rule:evenodd;stroke:none"
               d="m 189.3125,273.78125 -0.59375,6.71875 -0.0312,0.15625 1.625,1.75 3.78125,-3.375 z"
               transform="matrix(3.5918707,3.4055608,-3.2630171,3.7890887,30.784142,-1075.6165)"
               id="rect5413"
               inkscape:connector-curvature="0"
               sodipodi:nodetypes="cccccc" />
          </g>
          <g
             inkscape:transform-center-y="-46.89787"
             inkscape:transform-center-x="-4.4880248"
             id="g5417"
             transform="matrix(0.09443741,-1.0450223,0.99594159,0.09000204,-832.26994,322.30278)">
            <path
               inkscape:connector-curvature="0"
               style="fill:#babdb6;fill-rule:evenodd;stroke:none"
               d="m -230.75,603.6875 c -6.78805,0 -12.25,8.69843 -12.25,19.46875 0,10.77032 5.46195,19.4375 12.25,19.4375 l 7.6875,0 5.96875,0 80.25,0 c 3.24311,0 5.84375,-5.48141 5.84375,-12.28125 l 0,-14.34375 c 0,-6.79984 -2.60064,-12.28125 -5.84375,-12.28125 l -80.25,0 -5.96875,0 -7.6875,0 z"
               id="path5419"
               transform="matrix(0.95303383,0,0,1,-11.412466,0)" />
            <path
               style="fill:#fcaf3e;fill-rule:evenodd;stroke:none"
               d="m -171.4567,603.70038 24.67987,0 0,38.88202 -24.67987,0 z"
               id="rect5421"
               inkscape:connector-curvature="0" />
            <path
               style="fill:#f57900;fill-rule:evenodd;stroke:none"
               d="m -207.2251,603.70038 24.67986,0 0,38.88202 -24.67986,0 z"
               id="rect5423"
               inkscape:connector-curvature="0" />
            <path
               inkscape:connector-curvature="0"
               style="fill:#ce5c00;fill-rule:evenodd;stroke:none"
               d="m -230.75,603.6875 c -6.78805,0 -12.25,8.69843 -12.25,19.46875 0,10.77032 5.46195,19.4375 12.25,19.4375 l 13.65625,0 0,-38.90625 -13.65625,0 z"
               transform="matrix(0.95303383,0,0,1,-11.412466,0)"
               id="path5425" />
          </g>
          <path
             style="fill:#d3d7cf;fill-opacity:1;stroke:none"
             d="m -227.26721,621.03284 c 0,3.31201 -2.68492,5.99693 -5.99693,5.99693 -3.31201,0 -5.99693,-2.68492 -5.99693,-5.99693 0,-3.31202 2.68492,-5.99694 5.99693,-5.99694 3.31201,0 5.99693,2.68492 5.99693,5.99694 z"
             id="path5392"
             inkscape:connector-curvature="0" />
        </g>
      </g>
    </g>
    <g
       inkscape:groupmode="layer"
       id="layer10"
       inkscape:label="keyframe"
       style="display:inline">
      <g
         style="display:inline"
         id="g5789"
         transform="matrix(0.99986185,0,0,1,655.04952,505.13288)">
        <rect
           y="277.02936"
           x="-245.20953"
           height="24"
           width="24"
           id="rect5787"
           style="fill:none;stroke:none" />
        <path
           style="fill:#ce5c00;stroke:none"
           d="m 250.28125,332.1875 c -1.88849,0.0463 -3.78316,0.80455 -5.1875,2.28125 -1.84649,1.94147 -2.40705,4.62218 -1.75,7.03125 l -9.5,10 1.34375,3.21875 c 0,0 3.94459,0.61676 4.375,-0.21875 0.48345,-0.93843 -0.68637,-2.53774 0.0937,-3.15625 0.78009,-0.61852 1.6552,1.19831 2.75,0.5625 1.0948,-0.63582 0.3044,-4.56612 1.40625,-4.59375 1.1987,0.22028 2.07678,1.111 3.09375,1.71875 l 2.21875,-2.21875 c 2.36704,0.43264 4.90542,-0.28248 6.6875,-2.15625 2.8087,-2.95319 2.67193,-7.62881 -0.28125,-10.4375 -1.4766,-1.40436 -3.36151,-2.07757 -5.25,-2.03125 z m 1.0625,3.6875 c 1.43292,0 2.59375,1.16083 2.59375,2.59375 0,1.43293 -1.16083,2.59375 -2.59375,2.59375 -1.43293,0 -2.59375,-1.16082 -2.59375,-2.59375 0,-1.43292 1.16082,-2.59375 2.59375,-2.59375 z"
           transform="translate(-479.04159,-54.534991)"
           id="path5783"
           inkscape:connector-curvature="0" />
      </g>
    </g>
    <g
       inkscape:groupmode="layer"
       id="layer11"
       inkscape:label="metadata"
       style="display:inline">
      <g
         style="display:inline"
         id="g5933"
         transform="translate(846.09707,624.83162)">
        <rect
           y="157.33061"
           x="-397.1543"
           height="24"
           width="24"
           id="rect5931"
           style="fill:none;stroke:none" />
        <path
           inkscape:connector-curvature="0"
           style="font-size:medium;font-style:normal;font-variant:normal;font-weight:normal;font-stretch:normal;text-indent:0;text-align:start;text-decoration:none;line-height:normal;letter-spacing:normal;word-spacing:normal;text-transform:none;direction:ltr;block-progression:tb;writing-mode:lr-tb;text-anchor:start;baseline-shift:baseline;color:#000000;fill:#5c3566;fill-opacity:1;stroke:none;stroke-width:8;marker:none;visibility:visible;display:inline;overflow:visible;enable-background:accumulate;font-family:Sans;-inkscape-font-specification:Sans"
           d="m 279.78125,264.59375 c -2.75193,0.10916 -7,3.1875 -7,3.1875 l -8.9375,8.96875 8.90625,8.90625 8.96875,-8.96875 c 0,0 1.25297,-1.7806 2.1875,-3.78125 -0.15696,-0.28693 -0.38481,-0.60535 -0.6875,-0.8125 -0.75699,-0.51806 -1.25486,-0.7055 -2.09375,-0.78125 -0.81984,0.76774 -2.10608,0.76888 -2.90625,-0.0312 -0.81673,-0.81673 -0.81673,-2.15201 0,-2.96875 0.81673,-0.81673 2.15202,-0.81673 2.96875,0 1.35549,0.10935 2.57003,0.53002 3.6875,1.28125 10e-4,-0.14245 0.0164,-0.27336 0,-0.40625 -0.0887,-0.56882 -1.06117,-1.8507 -2.15625,-2.90625 -0.85173,-0.82098 -1.78356,-1.49762 -2.40625,-1.65625 -0.16857,-0.0208 -0.34779,-0.0385 -0.53125,-0.0312 z"
           transform="translate(-660.98972,-105.79214)"
           id="path10030" />
        <path
           style="font-size:medium;font-style:normal;font-variant:normal;font-weight:normal;font-stretch:normal;text-indent:0;text-align:start;text-decoration:none;line-height:normal;letter-spacing:normal;word-spacing:normal;text-transform:none;direction:ltr;block-progression:tb;writing-mode:lr-tb;text-anchor:start;baseline-shift:baseline;color:#000000;fill:#204a87;fill-opacity:1;stroke:none;stroke-width:1.60000002;marker:none;visibility:visible;display:inline;overflow:visible;enable-background:accumulate;font-family:Sans;-inkscape-font-specification:Sans"
           d="m -380.34375,163.21875 c -0.41726,0.0409 -0.75971,0.45775 -0.7188,0.875 0.0409,0.41726 0.45779,0.75968 0.87505,0.71875 1.17098,0.0588 1.87267,0.29431 2.8125,0.9375 0.80447,0.55054 1.18335,1.51843 1.21875,1.9375 0.0331,0.39138 -0.18104,1.30198 -0.375,2.28125 -0.19396,0.97927 -0.37228,2.09723 0.15625,3.15625 0.57364,1.14943 1.26149,1.74926 2.30342,1.82244 0.41726,0.0409 0.83415,-0.30148 0.87505,-0.71874 0.0409,-0.41726 -0.30153,-0.83413 -0.7188,-0.87501 -0.63273,-0.0663 -0.75959,-0.39006 -1.02217,-0.91619 -0.24132,-0.48353 -0.20649,-1.27152 -0.0312,-2.15625 0.17524,-0.88473 0.48538,-1.7819 0.40625,-2.71875 -0.0844,-0.99927 -0.64674,-2.26304 -1.90625,-3.125 -1.12413,-0.76931 -2.26607,-1.14895 -3.65625,-1.21875 -0.0725,-0.01 -0.14629,-0.01 -0.21875,0 z"
           id="path10038"
           inkscape:connector-curvature="0"
           sodipodi:nodetypes="cscscsscscscssccc" />
      </g>
    </g>
    <g
       inkscape:groupmode="layer"
       id="layer12"
       inkscape:label="layer set"
       style="display:inline">
      <g
         style="display:inline"
         id="g6062"
         transform="translate(611.56688,331.77262)">
        <rect
           style="fill:none;stroke:none"
           id="rect5628"
           width="24"
           height="24"
           x="-240.76193"
           y="411.38962" />
        <g
           transform="translate(27.30057,-50.861528)"
           id="g6057">
          <path
             inkscape:connector-curvature="0"
             style="fill:#3465a4;fill-rule:evenodd;stroke:none"
             d="m -251.3125,475.03125 -2,3.65625 -0.21875,0.375 -0.4375,0 -6.40625,0 -2.25,4.15625 14.125,0 4.4375,-8.1875 -7.25,0 z"
             id="rect5630" />
          <path
             inkscape:connector-curvature="0"
             style="fill:#f57900;fill-rule:evenodd;stroke:none"
             d="m -263.65625,470.15625 -4.40625,8.1875 14.09375,0 2.25,-4.15625 -10.84375,0 -1.25,0 0.59375,-1.09375 1.59375,-2.9375 -2.03125,0 z"
             id="rect5634" />
          <path
             transform="matrix(1,0,-0.47672063,0.87905486,0,0)"
             style="fill:#3465a4;fill-rule:evenodd;stroke:none"
             d="m -5.8690457,529.29974 14.1203842,0 0,9.28847 -14.1203842,0 z"
             id="rect5638"
             inkscape:connector-curvature="0" />
        </g>
      </g>
    </g>
    <g
       inkscape:groupmode="layer"
       id="layer13"
       inkscape:label="history"
       style="display:inline">
      <g
         style="display:inline"
         id="g4729"
         transform="translate(579.65227,393.91373)">
        <rect
           y="349.2485"
           x="-169.77841"
           height="24"
           width="24"
           id="rect4725"
           style="fill:none;stroke:none" />
        <g
           transform="translate(167.80493,-103.44553)"
           id="g4717">
          <path
             sodipodi:nodetypes="ccccccc"
             inkscape:connector-curvature="0"
             id="path3955"
             d="m -330.03887,453.85341 0,4.38356 c 12.26707,0.20978 12.26707,17.14657 -1.03959,17.29923 10.10244,-4.1036 6.89283,-11.42949 1.03959,-10.97741 l 0,4.38356 -7.54447,-7.54447 z"
             style="fill:#c4a000;fill-rule:evenodd;stroke:none" />
          <path
             style="fill:#c4a000;fill-rule:evenodd;stroke:none"
             d="m 338.75,264.28125 -4.0625,4.0625 c 3.6428,1.12017 5.9245,3.87087 6.5625,6.96875 4.03345,1.43457 5.00241,7.18989 -3.53125,10.65625 13.30666,-0.15266 13.29832,-17.10272 1.03125,-17.3125 z"
             transform="translate(-661.41877,189.57128)"
             id="path6458"
             inkscape:connector-curvature="0"
             sodipodi:nodetypes="cccccc" />
        </g>
      </g>
    </g>
    <g
       inkscape:groupmode="layer"
       id="layer14"
       inkscape:label="info"
       style="display:inline">
      <g
         style="display:inline"
         id="g5584"
         transform="translate(645.0862,521.22474)">
        <rect
           y="260.9375"
           x="-274.28125"
           height="24"
           width="24"
           id="rect5582"
           style="fill:none;stroke:none" />
        <path
           inkscape:connector-curvature="0"
           id="path5539"
           d="m -262.27791,260.9375 c -6.62815,0 -12.00334,5.36851 -12.00334,11.99666 0,6.62815 5.37519,12.00334 12.00334,12.00334 6.62815,0 11.99666,-5.37519 11.99666,-12.00334 0,-6.62815 -5.36851,-11.99666 -11.99666,-11.99666 z m 0.72768,2.22309 c 1.37348,0 2.48344,1.10997 2.48344,2.48345 0,1.37348 -1.10996,2.49012 -2.48344,2.49012 -1.37349,0 -2.49013,-1.11664 -2.49013,-2.49012 0,-1.37348 1.11664,-2.48345 2.49013,-2.48345 z m 0.42726,6.18859 c 2.13152,0.0265 2.24943,1.79498 1.28178,4.15911 -1.1059,2.70187 -3.13631,3.83066 -2.60362,5.48127 0.36153,0.95059 1.18337,0.71203 2.27007,0.15685 0.80025,-0.40884 1.59513,-0.41614 1.81585,0.14967 0.47471,1.21695 -1.07681,2.92832 -3.35824,3.25143 -2.24626,0.31812 -4.40272,-0.47535 -4.37274,-3.13769 0.0221,-1.9629 0.6907,-3.83602 1.98943,-5.37413 2.09268,-2.4784 -2.19439,-0.55202 -2.53686,-1.42197 -0.745,-1.89246 3.2123,-2.93631 4.47288,-3.1644 0.38932,-0.0704 0.73694,-0.10392 1.04145,-0.10014 z"
           style="fill:#204a87;fill-opacity:1;stroke:none"
           sodipodi:nodetypes="sssssssssscscsssssscc" />
      </g>
    </g>
    <g
       inkscape:groupmode="layer"
       id="layer15"
       inkscape:label="library"
       style="display:inline">
      <g
         style="display:inline"
         id="g13820"
         transform="translate(564.81136,305.38086)">
        <rect
           y="398.78137"
           x="-154.9375"
           height="24"
           width="24"
           id="rect13818"
           style="fill:none;stroke:none" />
        <g
           transform="matrix(0.20088935,0,0,0.20088935,-123.81221,336.70028)"
           id="g13809">
          <path
             style="fill:#555753;stroke:none"
             d="m -60.75,321.4375 c -3.23341,0.15597 -8.065587,1.90441 -10.9375,3.34375 0.528826,0.65708 1.056491,1.33202 1.53125,2.03125 0.9671,-0.0533 1.940389,-0.11353 2.625,0.0312 1.934722,0.40913 5.71875,3.84375 5.71875,3.84375 0,0 -2.058498,1.70327 -2.625,2.125 -0.691692,0.51492 -1.368359,0.98359 -2.03125,1.4375 0.576876,1.7028 1.040508,3.46241 1.3125,5.28125 3.148125,-3.15957 6.342771,-6.4143 6.5,-6.5625 l 5.8125,4.53125 c 0,0 -7.770832,7.00391 -12.59375,12.59375 -0.0025,0.0124 -0.02874,0.0189 -0.03125,0.0312 -0.231176,1.14152 -0.524279,2.25277 -0.875,3.34375 l 14.46875,-7.40625 0.25,-0.125 c 2.200798,-2.46722 3.9375,-4.3125 3.9375,-4.3125 l 6.8125,5.28125 5.40625,-6.96875 c -6.849484,-5.22277 -23.06459,-18.3467 -23.75,-18.4375 -0.440897,-0.0785 -0.973566,-0.0894 -1.53125,-0.0625 z"
             id="path13345"
             inkscape:connector-curvature="0"
             sodipodi:nodetypes="sccccscccccccccccccs" />
          <path
             style="fill:#e9b96e;fill-opacity:1;stroke:none"
             d="m -130.3125,322.375 c -11.03724,0 -20,8.96276 -20,20 0,4.43557 1.46127,8.49702 3.90625,11.8125 l 21.46875,0 c -1.09906,-3.17241 -1.71875,-6.57797 -1.71875,-10.09375 0,-7.11361 2.45597,-13.6692 6.53125,-18.90625 -2.9846,-1.77977 -6.45932,-2.8125 -10.1875,-2.8125 z"
             id="path13279"
             inkscape:connector-curvature="0"
             sodipodi:nodetypes="ssccscs" />
          <path
             style="fill:#204a87;fill-rule:evenodd;stroke:none"
             d="m -50.5,350.67804 -16.5,8.46875 -87.9375,0 0,62.19696 87.9375,0 16.5,-8.4375 z"
             id="rect13271"
             inkscape:connector-curvature="0"
             sodipodi:nodetypes="ccccccc" />
          <path
             style="font-size:medium;font-style:normal;font-variant:normal;font-weight:normal;font-stretch:normal;text-indent:0;text-align:start;text-decoration:none;line-height:normal;letter-spacing:normal;word-spacing:normal;text-transform:none;direction:ltr;block-progression:tb;writing-mode:lr-tb;text-anchor:start;baseline-shift:baseline;color:#000000;fill:#555753;fill-opacity:1;stroke:none;stroke-width:4;marker:none;visibility:visible;display:inline;overflow:visible;enable-background:accumulate;font-family:Sans;-inkscape-font-specification:Sans"
             d="m -130.625,327.21875 a 2.0002,2.0002 0 0 0 -1.75,2.03125 l 0,10.96875 -6.0625,0 a 2.0002,2.0002 0 1 0 0,4 l 8.0625,0 a 2.0002,2.0002 0 0 0 2,-2 l 0,-12.96875 a 2.0002,2.0002 0 0 0 -2.25,-2.03125 z"
             id="path13349"
             inkscape:connector-curvature="0" />
          <path
             inkscape:connector-curvature="0"
             style="font-size:medium;font-style:normal;font-variant:normal;font-weight:normal;font-stretch:normal;text-indent:0;text-align:start;text-decoration:none;line-height:normal;letter-spacing:normal;word-spacing:normal;text-transform:none;direction:ltr;block-progression:tb;writing-mode:lr-tb;text-anchor:start;baseline-shift:baseline;color:#000000;fill:#555753;fill-opacity:1;fill-rule:evenodd;stroke:none;stroke-width:6;marker:none;visibility:visible;display:inline;overflow:visible;enable-background:accumulate;font-family:Sans;-inkscape-font-specification:Sans"
             d="m -130.3125,319.375 c -12.65856,0 -23,10.31019 -23,22.96875 0,4.32676 1.21976,8.38206 3.3125,11.84375 l 7.46875,0 c -2.96235,-3.05694 -4.78125,-7.23237 -4.78125,-11.84375 0,-9.41591 7.58409,-16.96875 17,-16.96875 3.08563,0 5.95469,0.82152 8.4375,2.25 1.08098,-1.70546 2.33554,-3.29025 3.71875,-4.75 -3.52975,-2.21493 -7.69153,-3.5 -12.15625,-3.5 z"
             id="path13738" />
          <path
             inkscape:connector-curvature="0"
             style="fill:#8ae234;fill-opacity:1;stroke:none"
             d="m -95.75,319.1875 c -13.75265,0 -24.90625,11.1536 -24.90625,24.90625 0,3.59806 0.75179,7.00518 2.125,10.09375 l 45.53125,0 c 1.373205,-3.08857 2.125,-6.49569 2.125,-10.09375 0,-13.75265 -11.122348,-24.90625 -24.875,-24.90625 z"
             id="path13277" />
          <path
             inkscape:connector-curvature="0"
             style="font-size:medium;font-style:normal;font-variant:normal;font-weight:normal;font-stretch:normal;text-indent:0;text-align:start;text-decoration:none;line-height:normal;letter-spacing:normal;word-spacing:normal;text-transform:none;direction:ltr;block-progression:tb;writing-mode:lr-tb;text-anchor:start;baseline-shift:baseline;color:#000000;fill:#555753;fill-opacity:1;stroke:none;stroke-width:6;marker:none;visibility:visible;display:inline;overflow:visible;enable-background:accumulate;font-family:Sans;-inkscape-font-specification:Sans"
             d="m -95.75,316.1875 c -15.37398,0 -27.90625,12.53228 -27.90625,27.90625 0,3.55358 0.65555,6.96606 1.875,10.09375 l 6.5625,0 c -1.55919,-3.01101 -2.4375,-6.45435 -2.4375,-10.09375 0,-12.13133 9.77492,-21.90625 21.90625,-21.90625 12.131331,0 21.90625,9.77492 21.90625,21.90625 0,3.6415 -0.907881,7.08148 -2.46875,10.09375 l 6.5625,0 c 1.219447,-3.12769 1.90625,-6.54017 1.90625,-10.09375 0,-15.37397 -12.532277,-27.90625 -27.90625,-27.90625 z"
             id="path13751" />
        </g>
      </g>
    </g>
  </g>
</svg>
