<?xml version="1.0" encoding="UTF-8" standalone="no"?>
<!-- Created with Inkscape (http://www.inkscape.org/) -->

<svg
   xmlns:dc="http://purl.org/dc/elements/1.1/"
   xmlns:cc="http://creativecommons.org/ns#"
   xmlns:rdf="http://www.w3.org/1999/02/22-rdf-syntax-ns#"
   xmlns:svg="http://www.w3.org/2000/svg"
   xmlns="http://www.w3.org/2000/svg"
   xmlns:xlink="http://www.w3.org/1999/xlink"
   xmlns:sodipodi="http://sodipodi.sourceforge.net/DTD/sodipodi-0.dtd"
   xmlns:inkscape="http://www.inkscape.org/namespaces/inkscape"
   id="svg3106"
   version="1.1"
   inkscape:version="0.48.2 r9819"
   width="128"
   height="128"
   sodipodi:docname="brush.svg"
   inkscape:export-filename="/Users/chyu/Source/synfig_ui/icons/sif/brush.png"
   inkscape:export-xdpi="90"
   inkscape:export-ydpi="90">
  <metadata
     id="metadata3112">
    <rdf:RDF>
      <cc:Work
         rdf:about="">
        <dc:format>image/svg+xml</dc:format>
        <dc:type
           rdf:resource="http://purl.org/dc/dcmitype/StillImage" />
        <dc:title />
      </cc:Work>
    </rdf:RDF>
  </metadata>
  <defs
     id="defs3110">
    <linearGradient
       id="linearGradient5146">
      <stop
         style="stop-color:#dee3e9;stop-opacity:1;"
         offset="0"
         id="stop5148" />
      <stop
         id="stop5150"
         offset="0.39605093"
         style="stop-color:#656565;stop-opacity:1;" />
      <stop
         style="stop-color:#e5e5e5;stop-opacity:1;"
         offset="1"
         id="stop5152" />
    </linearGradient>
    <linearGradient
       id="linearGradient5044">
      <stop
         id="stop5046"
         offset="0"
         style="stop-color:#dee3e9;stop-opacity:1;" />
      <stop
         style="stop-color:#656565;stop-opacity:1;"
         offset="0.68285418"
         id="stop5048" />
      <stop
         id="stop5050"
         offset="1"
         style="stop-color:#e5e5e5;stop-opacity:1;" />
    </linearGradient>
    <linearGradient
       id="linearGradient4866">
      <stop
         style="stop-color:#989c95;stop-opacity:1;"
         offset="0"
         id="stop4868" />
      <stop
         style="stop-color:#000000;stop-opacity:1;"
         offset="1"
         id="stop4870" />
    </linearGradient>
    <linearGradient
       id="linearGradient4854">
      <stop
         style="stop-color:#a0680e;stop-opacity:1;"
         offset="0"
         id="stop4856" />
      <stop
         id="stop4862"
         offset="0.68285418"
         style="stop-color:#dcbe88;stop-opacity:1;" />
      <stop
         style="stop-color:#ffbb00;stop-opacity:1;"
         offset="1"
         id="stop4858" />
    </linearGradient>
    <linearGradient
       id="linearGradient4357">
      <stop
         id="stop4359"
         offset="0"
         style="stop-color:#7c7c7c;stop-opacity:1;" />
      <stop
         style="stop-color:#aaa8a8;stop-opacity:1;"
         offset="0.15370539"
         id="stop4361" />
      <stop
         id="stop4363"
         offset="0.74611163"
         style="stop-color:#595e60;stop-opacity:1;" />
      <stop
         id="stop4365"
         offset="1"
         style="stop-color:#575959;stop-opacity:1;" />
    </linearGradient>
    <linearGradient
       id="linearGradient3433">
      <stop
         style="stop-color:#7c7c7c;stop-opacity:1;"
         offset="0"
         id="stop3435" />
      <stop
         id="stop3441"
         offset="0.17262964"
         style="stop-color:#aaa8a8;stop-opacity:1;" />
      <stop
         style="stop-color:#595e60;stop-opacity:1;"
         offset="0.80946285"
         id="stop3443" />
      <stop
         style="stop-color:#575959;stop-opacity:1;"
         offset="1"
         id="stop3437" />
    </linearGradient>
    <clipPath
       clipPathUnits="userSpaceOnUse"
       id="clipPath4221">
      <rect
         style="fill:url(#linearGradient4225);fill-opacity:1;stroke:none"
         id="rect4223"
         width="23.5972"
         height="47.763149"
         x="34.991112"
         y="21.45809"
         ry="5.0828853" />
    </clipPath>
    <linearGradient
       inkscape:collect="always"
       xlink:href="#linearGradient3433"
       id="linearGradient4225"
       gradientUnits="userSpaceOnUse"
       x1="45.713161"
       y1="17.970915"
       x2="45.713161"
       y2="72.745178" />
    <clipPath
       clipPathUnits="userSpaceOnUse"
       id="clipPath4242">
      <path
         sodipodi:nodetypes="cccccc"
         inkscape:connector-curvature="0"
         id="path4244"
         d="m 92.127206,43.370802 0,43.169403 0,43.169405 -29.115219,-34.605425 0,-43.169403 z"
         style="fill:#555753;fill-opacity:1;stroke:none" />
    </clipPath>
    <clipPath
       clipPathUnits="userSpaceOnUse"
       id="clipPath4281">
      <rect
         style="fill:url(#linearGradient4285);fill-opacity:1;stroke:none"
         id="rect4283"
         width="23.5972"
         height="47.763149"
         x="34.991112"
         y="21.45809"
         ry="3.181469" />
    </clipPath>
    <linearGradient
       inkscape:collect="always"
       xlink:href="#linearGradient3433"
       id="linearGradient4285"
       gradientUnits="userSpaceOnUse"
       x1="45.713161"
       y1="17.970915"
       x2="45.713161"
       y2="72.745178" />
    <clipPath
       clipPathUnits="userSpaceOnUse"
       id="clipPath4312">
      <path
         sodipodi:nodetypes="ccccccccccccc"
         inkscape:connector-curvature="0"
         id="path4314"
         d="M 81.21875,3.09375 56.375,2.7048613 c 0,28.1199847 0,56.5146607 0,84.6346447 l 0,0.0625 24.8125,0.03549 1.21875,-0.5 0,-41.59375 0,-0.0625 0,-41.59375 c 2.91e-4,-0.029977 0.0064,-0.06568 0,-0.09375 l -0.03125,0 C 82.285566,3.2209354 81.65324,3.0331002 81.3125,3.125 z"
         clip-path="none"
         style="fill:#555753;fill-opacity:1;stroke:none" />
    </clipPath>
    <clipPath
       clipPathUnits="userSpaceOnUse"
       id="clipPath4388">
      <rect
         style="opacity:0.52155175;fill:#2e3436;fill-opacity:1;stroke:none"
         id="rect4390"
         width="22.662037"
         height="87.077156"
         x="81.171295"
         y="2.0648162" />
    </clipPath>
    <clipPath
       clipPathUnits="userSpaceOnUse"
       id="clipPath4394">
      <path
         style="fill:url(#linearGradient4398);fill-opacity:1;stroke:none"
         clip-path="none"
         d="m 82.454861,3.09375 -24.84375,20.625 0,0.03125 0,43.125 0,0.0625 24.8125,20.5 1.21875,-0.5 0,-41.59375 0,-0.0625 0,-41.59375 c 2.91e-4,-0.029977 0.0064,-0.06568 0,-0.09375 l -0.03125,0 C 83.521677,3.2209354 82.889351,3.0331002 82.548611,3.125 z"
         id="path4396"
         inkscape:connector-curvature="0"
         sodipodi:nodetypes="cccccccccccccc" />
    </clipPath>
    <linearGradient
       inkscape:collect="always"
       xlink:href="#linearGradient4357"
       id="linearGradient4398"
       gradientUnits="userSpaceOnUse"
       x1="68.883324"
       y1="-6.3502717"
       x2="68.883324"
       y2="93.243652" />
    <clipPath
       clipPathUnits="userSpaceOnUse"
       id="clipPath4400">
      <path
         style="fill:url(#linearGradient4404);fill-opacity:1;stroke:none"
         clip-path="none"
         d="m 82.454861,3.09375 -24.84375,20.625 0,0.03125 0,43.125 0,0.0625 24.8125,20.5 1.21875,-0.5 0,-41.59375 0,-0.0625 0,-41.59375 c 2.91e-4,-0.029977 0.0064,-0.06568 0,-0.09375 l -0.03125,0 C 83.521677,3.2209354 82.889351,3.0331002 82.548611,3.125 z"
         id="path4402"
         inkscape:connector-curvature="0"
         sodipodi:nodetypes="cccccccccccccc" />
    </clipPath>
    <linearGradient
       inkscape:collect="always"
       xlink:href="#linearGradient4357"
       id="linearGradient4404"
       gradientUnits="userSpaceOnUse"
       x1="68.883324"
       y1="-6.3502717"
       x2="68.883324"
       y2="93.243652" />
    <clipPath
       clipPathUnits="userSpaceOnUse"
       id="clipPath4406">
      <path
         style="fill:url(#linearGradient4410);fill-opacity:1;stroke:none"
         clip-path="none"
         d="m 82.454861,3.09375 -24.84375,20.625 0,0.03125 0,43.125 0,0.0625 24.8125,20.5 1.21875,-0.5 0,-41.59375 0,-0.0625 0,-41.59375 c 2.91e-4,-0.029977 0.0064,-0.06568 0,-0.09375 l -0.03125,0 C 83.521677,3.2209354 82.889351,3.0331002 82.548611,3.125 z"
         id="path4408"
         inkscape:connector-curvature="0"
         sodipodi:nodetypes="cccccccccccccc" />
    </clipPath>
    <linearGradient
       inkscape:collect="always"
       xlink:href="#linearGradient4357"
       id="linearGradient4410"
       gradientUnits="userSpaceOnUse"
       x1="68.883324"
       y1="-6.3502717"
       x2="68.883324"
       y2="93.243652" />
    <clipPath
       clipPathUnits="userSpaceOnUse"
       id="clipPath4472">
      <path
         sodipodi:nodetypes="ccccccccccccc"
         inkscape:connector-curvature="0"
         id="path4474"
         d="m 99.498077,21.39231 -34.566936,17.743042 0,6.08484 0,6.084841 34.523458,17.69013 1.695731,-0.282195 0,-23.475138 0,-0.03528 0,-23.475138 0,-0.05291 -0.0435,0 -1.478341,-0.264558 z"
         clip-path="none"
         style="opacity:0.375;fill:#2e3436;fill-opacity:1;stroke:none" />
    </clipPath>
    <clipPath
       clipPathUnits="userSpaceOnUse"
       id="clipPath4476">
      <path
         sodipodi:nodetypes="ccccccccccccc"
         inkscape:connector-curvature="0"
         id="path4478"
         d="m 111.76998,13.661614 -45.838369,23.528617 0,8.068959 0,8.068959 45.780719,23.458452 2.24867,-0.374213 0,-31.12981 0,-0.04678 0,-31.129809 0,-0.07017 -0.0577,0 -1.96038,-0.350825 z"
         clip-path="none"
         style="opacity:0.375;fill:#2e3436;fill-opacity:1;stroke:none" />
    </clipPath>
    <clipPath
       clipPathUnits="userSpaceOnUse"
       id="clipPath4480">
      <path
         sodipodi:nodetypes="ccccccccccccc"
         inkscape:connector-curvature="0"
         id="path4482"
         d="M 136.96672,-2.2110852 67.985785,33.1965 l 0,12.14276 0,12.14276 68.894175,35.301996 3.38396,-0.563142 0,-46.846418 0,-0.07039 0,-46.8464175 0,-0.1055892 -0.0868,0 -2.95013,-0.5279461 z"
         clip-path="none"
         style="opacity:0.375;fill:#2e3436;fill-opacity:1;stroke:none" />
    </clipPath>
    <linearGradient
       inkscape:collect="always"
       xlink:href="#linearGradient4854"
       id="linearGradient4860"
       x1="80.623276"
       y1="63.421352"
       x2="80.623276"
       y2="49.255386"
       gradientUnits="userSpaceOnUse" />
    <radialGradient
       inkscape:collect="always"
       xlink:href="#linearGradient4866"
       id="radialGradient4872"
       cx="57.604458"
       cy="54.998672"
       fx="57.604458"
       fy="54.998672"
       r="12.613108"
       gradientTransform="matrix(-1.7412094,-0.07573543,0.02345266,-0.53919259,155.81304,88.98972)"
       gradientUnits="userSpaceOnUse" />
    <filter
       inkscape:collect="always"
       id="filter4878"
       x="-0.0974674"
       width="1.1949348"
       y="-0.18059471"
       height="1.3611894"
       color-interpolation-filters="sRGB">
      <feGaussianBlur
         inkscape:collect="always"
         stdDeviation="1.0244724"
         id="feGaussianBlur4880" />
    </filter>
    <filter
       inkscape:collect="always"
       id="filter4940"
       x="-0.072183214"
       width="1.1443664"
       y="-0.13299796"
       height="1.2659959"
       color-interpolation-filters="sRGB">
      <feGaussianBlur
         inkscape:collect="always"
         stdDeviation="0.67357616"
         id="feGaussianBlur4942" />
    </filter>
    <filter
       inkscape:collect="always"
       id="filter4968"
       x="-0.07136669"
       width="1.1427335"
       y="-0.88750887"
       height="2.7750177"
       color-interpolation-filters="sRGB">
      <feGaussianBlur
         inkscape:collect="always"
         stdDeviation="1.0674206"
         id="feGaussianBlur4970" />
    </filter>
    <clipPath
       clipPathUnits="userSpaceOnUse"
       id="clipPath5005">
      <path
         style="fill:url(#linearGradient5009);fill-opacity:1;stroke:none"
         d="M 66.732311,45.201179 94.595279,43.54019 c 3.36425,-0.200557 5.149847,5.502153 5.149847,12.336666 l 0,4.650766 c 0,6.834514 -1.786235,12.577286 -5.149847,12.336668 L 66.732311,70.871102 c -3.363612,-0.240618 -6.075269,-3.508966 -6.075269,-10.34348 l 0,-4.650766 c 0,-6.834513 2.711019,-10.475122 6.075269,-10.675677 z"
         id="path5007"
         inkscape:connector-curvature="0"
         sodipodi:nodetypes="sssssssss" />
    </clipPath>
    <linearGradient
       inkscape:collect="always"
       xlink:href="#linearGradient4854"
       id="linearGradient5009"
       gradientUnits="userSpaceOnUse"
       gradientTransform="matrix(1.0104933,0,0,2.0519456,-0.13705445,-56.985586)"
       x1="80.623276"
       y1="63.421352"
       x2="80.623276"
       y2="49.255386" />
    <clipPath
       clipPathUnits="userSpaceOnUse"
       id="clipPath5011">
      <path
         style="fill:url(#linearGradient5015);fill-opacity:1;stroke:none"
         d="m 66.806324,48.576619 27.862968,-0.965746 c 3.36425,-0.11661 5.149847,3.199107 5.149847,7.172886 l 0,2.704087 c 0,3.97378 -1.786235,7.31279 -5.149847,7.172888 L 66.806324,63.501838 c -3.363612,-0.139902 -6.075269,-2.040212 -6.075269,-6.013992 l 0,-2.704087 c 0,-3.973779 2.711019,-6.090532 6.075269,-6.20714 z"
         id="path5013"
         inkscape:connector-curvature="0"
         sodipodi:nodetypes="sssssssss" />
    </clipPath>
    <linearGradient
       inkscape:collect="always"
       xlink:href="#linearGradient4854"
       id="linearGradient5015"
       gradientUnits="userSpaceOnUse"
       gradientTransform="matrix(1.0104933,0,0,1.1930592,-0.06304119,-10.837656)"
       x1="80.623276"
       y1="63.421352"
       x2="80.623276"
       y2="49.255386" />
    <clipPath
       clipPathUnits="userSpaceOnUse"
       id="clipPath5017">
      <path
         style="fill:url(#linearGradient5021);fill-opacity:1;stroke:none"
         d="m 66.806324,48.576619 27.862968,-0.965746 c 3.36425,-0.11661 5.149847,3.199107 5.149847,7.172886 l 0,2.704087 c 0,3.97378 -1.786235,7.31279 -5.149847,7.172888 L 66.806324,63.501838 c -3.363612,-0.139902 -6.075269,-2.040212 -6.075269,-6.013992 l 0,-2.704087 c 0,-3.973779 2.711019,-6.090532 6.075269,-6.20714 z"
         id="path5019"
         inkscape:connector-curvature="0"
         sodipodi:nodetypes="sssssssss" />
    </clipPath>
    <linearGradient
       inkscape:collect="always"
       xlink:href="#linearGradient4854"
       id="linearGradient5021"
       gradientUnits="userSpaceOnUse"
       gradientTransform="matrix(1.0104933,0,0,1.1930592,-0.06304119,-10.837656)"
       x1="80.623276"
       y1="63.421352"
       x2="80.623276"
       y2="49.255386" />
    <clipPath
       clipPathUnits="userSpaceOnUse"
       id="clipPath5034">
      <path
         style="fill:#d3d7cf;fill-opacity:1;stroke:none"
         d="m 56.299044,55.865004 c 0.06833,5.997668 7.596526,8.097808 9.092275,8.016627 -0.493185,0 -0.892991,-3.480128 -0.892991,-7.773084 0,-4.292955 0.399806,-7.773083 0.892991,-7.773083 -1.739292,0.243543 -9.163838,1.247926 -9.092275,7.52954 z"
         id="path5036"
         inkscape:connector-curvature="0"
         sodipodi:nodetypes="scscs" />
    </clipPath>
    <linearGradient
       inkscape:collect="always"
       xlink:href="#linearGradient5044"
       id="linearGradient5052"
       gradientUnits="userSpaceOnUse"
       x1="80.623276"
       y1="63.421352"
       x2="80.623276"
       y2="49.255386" />
    <filter
       inkscape:collect="always"
       id="filter5072"
       x="-0.045184195"
       width="1.0903684"
       y="-0.29661372"
       height="1.5932275"
       color-interpolation-filters="sRGB">
      <feGaussianBlur
         inkscape:collect="always"
         stdDeviation="0.11855645"
         id="feGaussianBlur5074" />
    </filter>
    <filter
       inkscape:collect="always"
       id="filter5080"
       x="-0.043960344"
       width="1.0879207"
       y="-0.37229812"
       height="1.7445962"
       color-interpolation-filters="sRGB">
      <feGaussianBlur
         inkscape:collect="always"
         stdDeviation="0.11849878"
         id="feGaussianBlur5082" />
    </filter>
    <filter
       inkscape:collect="always"
       id="filter5096"
       x="-0.040471718"
       width="1.0809433"
       y="-0.30818436"
       height="1.6163687"
       color-interpolation-filters="sRGB">
      <feGaussianBlur
         inkscape:collect="always"
         stdDeviation="0.10906283"
         id="feGaussianBlur5098" />
    </filter>
    <linearGradient
       inkscape:collect="always"
       xlink:href="#linearGradient5044"
       id="linearGradient5124"
       gradientUnits="userSpaceOnUse"
       x1="80.623276"
       y1="63.421352"
       x2="80.623276"
       y2="49.255386" />
    <mask
       maskUnits="userSpaceOnUse"
       id="mask5120">
      <path
         sodipodi:nodetypes="sssssssss"
         inkscape:connector-curvature="0"
         id="path5122"
         d="m 66.174969,49.799938 27.573629,-0.809471 c 3.329314,-0.09774 5.096369,2.681432 5.096369,6.01218 l 0,2.266515 c 0,3.330748 -1.767686,6.129444 -5.096369,6.012181 L 66.174969,62.309978 c -5.645187,-0.198869 -5.728047,1.619344 -5.728047,-5.040816 l 0,-2.266515 c 0,-7.176793 0.0088,-5.03481 5.728047,-5.202709 z"
         style="fill:url(#linearGradient5124);fill-opacity:1;stroke:none"
         clip-path="url(#clipPath5034)"
         transform="matrix(1.0006308,0.03552508,0,1.3039131,0,-18.553821)" />
    </mask>
    <linearGradient
       inkscape:collect="always"
       xlink:href="#linearGradient5044"
       id="linearGradient5130"
       gradientUnits="userSpaceOnUse"
       x1="80.623276"
       y1="63.421352"
       x2="80.623276"
       y2="49.255386" />
    <mask
       maskUnits="userSpaceOnUse"
       id="mask5126">
      <path
         sodipodi:nodetypes="sssssssss"
         inkscape:connector-curvature="0"
         id="path5128"
         d="m 66.174969,49.799938 27.573629,-0.809471 c 3.329314,-0.09774 5.096369,2.681432 5.096369,6.01218 l 0,2.266515 c 0,3.330748 -1.767686,6.129444 -5.096369,6.012181 L 66.174969,62.309978 c -5.645187,-0.198869 -5.728047,1.619344 -5.728047,-5.040816 l 0,-2.266515 c 0,-7.176793 0.0088,-5.03481 5.728047,-5.202709 z"
         style="fill:url(#linearGradient5130);fill-opacity:1;stroke:none"
         clip-path="url(#clipPath5034)"
         transform="matrix(1.0003367,-0.02595313,0,1,0.03600954,-0.18092136)" />
    </mask>
    <linearGradient
       inkscape:collect="always"
       xlink:href="#linearGradient5044"
       id="linearGradient5136"
       gradientUnits="userSpaceOnUse"
       x1="80.623276"
       y1="63.421352"
       x2="80.623276"
       y2="49.255386" />
    <mask
       maskUnits="userSpaceOnUse"
       id="mask5132">
      <path
         sodipodi:nodetypes="sssssssss"
         inkscape:connector-curvature="0"
         id="path5134"
         d="m 66.174969,49.799938 27.573629,-0.809471 c 3.329314,-0.09774 5.096369,2.681432 5.096369,6.01218 l 0,2.266515 c 0,3.330748 -1.767686,6.129444 -5.096369,6.012181 L 66.174969,62.309978 c -5.645187,-0.198869 -5.728047,1.619344 -5.728047,-5.040816 l 0,-2.266515 c 0,-7.176793 0.0088,-5.03481 5.728047,-5.202709 z"
         style="fill:url(#linearGradient5136);fill-opacity:1;stroke:none"
         clip-path="url(#clipPath5034)"
         transform="matrix(1.001605,-0.05668016,0,1.4231069,0,-21.345641)" />
    </mask>
    <linearGradient
       inkscape:collect="always"
       xlink:href="#linearGradient5146"
       id="linearGradient5144"
       x1="62.8396"
       y1="63.161743"
       x2="62.922279"
       y2="49.060215"
       gradientUnits="userSpaceOnUse" />
    <linearGradient
       inkscape:collect="always"
       xlink:href="#linearGradient5146"
       id="linearGradient5172"
       gradientUnits="userSpaceOnUse"
       x1="62.8396"
       y1="63.161743"
       x2="62.922279"
       y2="49.060215" />
    <filter
       inkscape:collect="always"
       id="filter5188"
       x="-0.18012691"
       width="1.3602538"
       y="-0.0062067457"
       height="1.0124135"
       color-interpolation-filters="sRGB">
      <feGaussianBlur
         inkscape:collect="always"
         stdDeviation="0.032316847"
         id="feGaussianBlur5190" />
    </filter>
    <filter
       inkscape:collect="always"
       id="filter5200"
       x="-0.28390515"
       width="1.5678103"
       y="-0.41855854"
       height="1.8371171"
       color-interpolation-filters="sRGB">
      <feGaussianBlur
         inkscape:collect="always"
         stdDeviation="0.22763798"
         id="feGaussianBlur5202" />
    </filter>
    <linearGradient
       inkscape:collect="always"
       xlink:href="#linearGradient5146"
       id="linearGradient5204"
       gradientUnits="userSpaceOnUse"
       x1="62.8396"
       y1="63.161743"
       x2="62.922279"
       y2="49.060215" />
    <linearGradient
       inkscape:collect="always"
       xlink:href="#linearGradient4854"
       id="linearGradient5206"
       gradientUnits="userSpaceOnUse"
       x1="80.623276"
       y1="63.421352"
       x2="80.623276"
       y2="49.255386" />
    <filter
       inkscape:collect="always"
       id="filter5208"
       color-interpolation-filters="sRGB">
      <feGaussianBlur
         inkscape:collect="always"
         stdDeviation="0.51396447"
         id="feGaussianBlur5210" />
    </filter>
    <filter
       inkscape:collect="always"
       id="filter5234"
       x="-0.17911594"
       width="1.3582319"
       y="-1.7384781"
       height="4.4769564"
       color-interpolation-filters="sRGB">
      <feGaussianBlur
         inkscape:collect="always"
         stdDeviation="4.4634618"
         id="feGaussianBlur5236" />
    </filter>
    <radialGradient
       inkscape:collect="always"
       xlink:href="#linearGradient4866"
       id="radialGradient5261"
       gradientUnits="userSpaceOnUse"
       gradientTransform="matrix(-1.7412094,-0.07573543,0.02345266,-0.53919259,155.81304,88.98972)"
       cx="57.604458"
       cy="54.998672"
       fx="57.604458"
       fy="54.998672"
       r="12.613108" />
    <linearGradient
       inkscape:collect="always"
       xlink:href="#linearGradient4854"
       id="linearGradient5263"
       gradientUnits="userSpaceOnUse"
       x1="80.623276"
       y1="63.421352"
       x2="80.623276"
       y2="49.255386" />
    <linearGradient
       inkscape:collect="always"
       xlink:href="#linearGradient5146"
       id="linearGradient5265"
       gradientUnits="userSpaceOnUse"
       x1="62.8396"
       y1="63.161743"
       x2="62.922279"
       y2="49.060215" />
  </defs>
  <sodipodi:namedview
     pagecolor="#ffffff"
     bordercolor="#666666"
     borderopacity="1"
     objecttolerance="10"
     gridtolerance="10"
     guidetolerance="10"
     inkscape:pageopacity="0"
     inkscape:pageshadow="2"
     inkscape:window-width="1408"
     inkscape:window-height="856"
     id="namedview3108"
     showgrid="false"
     inkscape:zoom="2.8163947"
     inkscape:cx="46.3165"
     inkscape:cy="95.851424"
     inkscape:window-x="32"
     inkscape:window-y="0"
     inkscape:window-maximized="1"
     inkscape:current-layer="layer3" />
  <g
     id="g3116"
     transform="translate(-181.67123,-41.438356)" />
  <g
     inkscape:groupmode="layer"
     id="layer3"
     inkscape:label="Layer#1"
     transform="translate(0,-43)">
    <g
       id="g5238"
       transform="matrix(1.0885079,0,0,1.0885079,-7.2231463,29.976558)">
      <path
         transform="translate(3.9871044,-3.6246403)"
         d="m 74.667591,117.17409 c 0,1.70156 -13.388155,3.08094 -29.903282,3.08094 -16.515127,0 -29.903282,-1.37938 -29.903282,-3.08094 0,-1.70156 13.388155,-3.08095 29.903282,-3.08095 16.515127,0 29.903282,1.37939 29.903282,3.08095 z"
         sodipodi:ry="3.0809443"
         sodipodi:rx="29.903282"
         sodipodi:cy="117.17409"
         sodipodi:cx="44.764309"
         id="path5224"
         style="fill:#555753;fill-opacity:1;stroke:#555753;stroke-width:3;stroke-miterlimit:4;stroke-opacity:1;stroke-dasharray:none;filter:url(#filter5234)"
         sodipodi:type="arc" />
      <path
         sodipodi:nodetypes="sssssssss"
         inkscape:connector-curvature="0"
         id="path5212"
         d="m 66.174969,49.799938 27.573629,-0.809471 c 3.329314,-0.09774 5.096369,2.681432 5.096369,6.01218 l 0,2.266515 c 0,3.330748 -1.767686,6.129444 -5.096369,6.012181 L 66.174969,62.309978 C 62.846286,62.192715 60.162788,60.59991 60.162788,57.269162 l 0,-2.266515 c 0,-3.330748 2.682867,-5.104971 6.012181,-5.202709 z"
         style="fill:#8f5902;fill-opacity:1;stroke:#8f5902;stroke-width:1.64558291"
         clip-path="url(#clipPath5011)"
         transform="matrix(1.5261747,-1.5261747,1.5261747,1.5261747,-120.46139,86.009344)" />
      <g
         style="fill:#555753;stroke:#555753;stroke-width:1.64558291"
         id="g5214"
         transform="matrix(1.5261747,-1.5261747,1.5261747,1.5261747,-120.46139,86.009344)">
        <path
           sodipodi:nodetypes="sssssssss"
           inkscape:connector-curvature="0"
           id="path5216"
           d="m 66.174969,49.799938 27.573629,-0.809471 c 3.329314,-0.09774 5.096369,2.681432 5.096369,6.01218 l 0,2.266515 c 0,3.330748 -1.767686,6.129444 -5.096369,6.012181 L 66.174969,62.309978 c -5.645187,-0.198869 -5.728047,1.619344 -5.728047,-5.040816 l 0,-2.266515 c 0,-7.176793 0.0088,-5.03481 5.728047,-5.202709 z"
           style="fill:#555753;fill-opacity:1;stroke:#555753;stroke-width:1.64558291"
           clip-path="url(#clipPath5034)" />
        <rect
           mask="url(#mask5132)"
           transform="matrix(0.99839754,0.03976464,0,0.70268788,0,14.999323)"
           ry="0.31817526"
           y="47.079517"
           x="59.55603"
           height="0.63635051"
           width="6.2972345"
           id="rect5218"
           style="fill:#555753;fill-opacity:1;stroke:#555753;stroke-width:1.96465731;filter:url(#filter5072)" />
        <rect
           mask="url(#mask5126)"
           style="fill:#555753;fill-opacity:1;stroke:#555753;stroke-width:1.64585996;filter:url(#filter5096)"
           id="rect5220"
           width="6.4674988"
           height="0.69914728"
           x="59.378765"
           y="51.326588"
           ry="0.34957364"
           transform="matrix(0.99966339,0.02594439,0,1,-0.03599742,0.17998711)" />
        <rect
           mask="url(#mask5120)"
           transform="matrix(0.99936958,-0.0272278,0,0.7669223,0,14.229339)"
           ry="0.27650404"
           y="62.611813"
           x="59.574512"
           height="0.55300808"
           width="6.4694004"
           id="rect5222"
           style="fill:#555753;fill-opacity:1;stroke:#555753;stroke-width:1.87966752;filter:url(#filter5080)" />
      </g>
      <path
         sodipodi:nodetypes="sscccs"
         inkscape:connector-curvature="0"
         id="rect4848"
         d="m 30.518639,78.377503 c 4.234968,-4.532743 9.904215,-10.225107 14.79949,-9.042264 4.68289,1.131525 4.89127,-2.704887 15.11926,7.34236 C 72.262186,88.526505 66.61532,99.233 61.375464,104.06922 48.983312,116.46138 26.277865,120.7036 9.2512848,112.28624 19.654335,105.61635 18.554254,91.183147 30.518639,78.377503 z"
         style="fill:#000000;fill-opacity:1;stroke:none" />
      <path
         transform="matrix(1.5753443,-1.5753443,1.7492043,1.7492043,-135.24848,79.665155)"
         sodipodi:nodetypes="szscs"
         inkscape:connector-curvature="0"
         id="path4904"
         d="m 52.477074,48.614547 c 3.123007,0 7.96245,-0.471441 7.8282,6.145943 -0.13425,6.617386 -4.549292,5.985415 -6.736888,5.985415 -6.396945,0 -12.280631,-2.255366 -15.655928,-6.522865 3.585742,-2.853912 8.16767,-5.608493 14.564616,-5.608493 z"
         style="opacity:0.23364485;fill:#eeeeec;fill-opacity:1;stroke:none;filter:url(#filter4940)" />
      <path
         transform="matrix(1.5261747,-1.5261747,1.6946083,1.6946083,-128.51181,77.958919)"
         style="opacity:0.52803799;fill:url(#radialGradient5261);fill-opacity:1;stroke:none;filter:url(#filter4878)"
         d="m 52.02602,48.173034 c 3.601908,0 9.183462,-0.528057 9.028625,6.884019 -0.154837,7.412076 -5.246909,6.704211 -7.769964,6.704211 -7.377893,0 -13.137687,-1.529671 -17.453098,-7.423446 4.135602,-3.196643 8.816544,-6.164784 16.194437,-6.164784 z"
         id="path4864"
         inkscape:connector-curvature="0"
         sodipodi:nodetypes="szscs" />
      <path
         transform="matrix(1.4406474,-1.4533071,1.1847804,1.3343559,-102.13785,94.142658)"
         sodipodi:nodetypes="cccc"
         inkscape:connector-curvature="0"
         id="path4882"
         d="m 42.832671,52.074876 c 5.225494,-3.143623 17.878834,-6.278498 18.414359,3.400149 0.07466,1.414649 -1.253929,1.184458 -1.433216,0.763141 -2.978313,-7.086892 -11.468049,-5.352869 -16.981143,-4.16329 z"
         style="opacity:0.71028035;fill:#eeeeec;stroke:none;filter:url(#filter5208)" />
      <path
         transform="matrix(2.2015331,-0.89195668,0.99039598,2.4445016,-124.69695,12.429437)"
         sodipodi:nodetypes="sssss"
         inkscape:connector-curvature="0"
         id="path4972"
         d="m 41.81749,52.808913 c 0,0.299873 -0.430779,0.70503 -0.962172,0.904946 -0.531393,0.199914 -0.962172,0.118883 -0.962172,-0.180989 0,-0.299873 0.430779,-0.70503 0.962172,-0.904945 0.531393,-0.199914 0.962172,-0.118884 0.962172,0.180988 z"
         style="opacity:0.26635515;fill:#eeeeec;fill-opacity:1;stroke:none;filter:url(#filter5200)" />
      <path
         transform="matrix(1.5261747,-1.5261747,1.5261747,1.5261747,-120.46139,86.009344)"
         clip-path="url(#clipPath5017)"
         sodipodi:nodetypes="sssssssss"
         inkscape:connector-curvature="0"
         id="path4944"
         d="m 66.174969,49.799938 27.573629,-0.809471 c 3.329314,-0.09774 5.096369,2.681432 5.096369,6.01218 l 0,2.266515 c 0,3.330748 -1.767686,6.129444 -5.096369,6.012181 L 66.174969,62.309978 C 62.846286,62.192715 60.162788,60.59991 60.162788,57.269162 l 0,-2.266515 c 0,-3.330748 2.682867,-5.104971 6.012181,-5.202709 z"
         style="fill:#744802;fill-opacity:1;stroke:none" />
      <path
         transform="matrix(1.5261747,-1.5261747,1.5261747,1.5261747,-120.46139,86.009344)"
         clip-path="url(#clipPath5011)"
         style="opacity:0.77102805;fill:url(#linearGradient5263);fill-opacity:1;stroke:none"
         d="m 66.174969,49.799938 27.573629,-0.809471 c 3.329314,-0.09774 5.096369,2.681432 5.096369,6.01218 l 0,2.266515 c 0,3.330748 -1.767686,6.129444 -5.096369,6.012181 L 66.174969,62.309978 C 62.846286,62.192715 60.162788,60.59991 60.162788,57.269162 l 0,-2.266515 c 0,-3.330748 2.682867,-5.104971 6.012181,-5.202709 z"
         id="path4852"
         inkscape:connector-curvature="0"
         sodipodi:nodetypes="sssssssss" />
      <rect
         clip-path="url(#clipPath5005)"
         transform="matrix(1.5261747,-1.5261747,0.88736115,0.88736115,-86.321793,119.92303)"
         ry="1.4432585"
         y="54.503128"
         x="60.024754"
         height="2.886517"
         width="35.896431"
         id="rect4946"
         style="opacity:0.58878503;fill:#eeeeec;fill-opacity:1;stroke:none;filter:url(#filter4968)" />
      <g
         transform="matrix(1.5261747,-1.5261747,1.5261747,1.5261747,-120.46139,86.009344)"
         id="g5156">
        <path
           clip-path="url(#clipPath5034)"
           style="fill:url(#linearGradient5265);fill-opacity:1;stroke:none"
           d="m 66.174969,49.799938 27.573629,-0.809471 c 3.329314,-0.09774 5.096369,2.681432 5.096369,6.01218 l 0,2.266515 c 0,3.330748 -1.767686,6.129444 -5.096369,6.012181 L 66.174969,62.309978 c -5.645187,-0.198869 -5.728047,1.619344 -5.728047,-5.040816 l 0,-2.266515 c 0,-7.176793 0.0088,-5.03481 5.728047,-5.202709 z"
           id="path5026"
           inkscape:connector-curvature="0"
           sodipodi:nodetypes="sssssssss" />
        <rect
           style="fill:#eeeeec;fill-opacity:1;stroke:none;filter:url(#filter5072)"
           id="rect5054"
           width="6.2972345"
           height="0.63635051"
           x="59.55603"
           y="47.079517"
           ry="0.31817526"
           transform="matrix(0.99839754,0.03976464,0,0.70268788,0,14.999323)"
           mask="url(#mask5132)" />
        <rect
           transform="matrix(0.99966339,0.02594439,0,1,-0.03599742,0.17998711)"
           ry="0.34957364"
           y="51.326588"
           x="59.378765"
           height="0.69914728"
           width="6.4674988"
           id="rect5056"
           style="fill:#eeeeec;fill-opacity:1;stroke:none;filter:url(#filter5096)"
           mask="url(#mask5126)" />
        <rect
           style="fill:#eeeeec;fill-opacity:1;stroke:none;filter:url(#filter5080)"
           id="rect5058"
           width="6.4694004"
           height="0.55300808"
           x="59.574512"
           y="62.611813"
           ry="0.27650404"
           transform="matrix(0.99936958,-0.0272278,0,0.7669223,0,14.229339)"
           mask="url(#mask5120)" />
      </g>
      <path
         transform="matrix(1.5261747,-1.5261747,1.5261747,1.5261747,-120.46139,86.009344)"
         sodipodi:nodetypes="csc"
         inkscape:connector-curvature="0"
         id="path5182"
         d="m 64.862988,49.79668 c 0,0 -0.359975,3.405732 -0.359975,4.479279 0,1.073545 -0.139622,6.795251 0.364342,8.016872"
         style="fill:none;stroke:#888a85;stroke-width:0.5;stroke-linecap:butt;stroke-linejoin:miter;stroke-opacity:1;filter:url(#filter5188)" />
    </g>
  </g>
</svg>
